%TF.GenerationSoftware,KiCad,Pcbnew,(5.1.10)-1*%
%TF.CreationDate,2022-02-17T21:59:23+01:00*%
%TF.ProjectId,TinyLora102,54696e79-4c6f-4726-9131-30322e6b6963,rev?*%
%TF.SameCoordinates,Original*%
%TF.FileFunction,Copper,L2,Bot*%
%TF.FilePolarity,Positive*%
%FSLAX46Y46*%
G04 Gerber Fmt 4.6, Leading zero omitted, Abs format (unit mm)*
G04 Created by KiCad (PCBNEW (5.1.10)-1) date 2022-02-17 21:59:23*
%MOMM*%
%LPD*%
G01*
G04 APERTURE LIST*
%TA.AperFunction,ComponentPad*%
%ADD10O,1.000000X1.000000*%
%TD*%
%TA.AperFunction,ComponentPad*%
%ADD11R,1.000000X1.000000*%
%TD*%
%TA.AperFunction,SMDPad,CuDef*%
%ADD12R,1.350000X4.200000*%
%TD*%
%TA.AperFunction,ComponentPad*%
%ADD13O,1.700000X1.700000*%
%TD*%
%TA.AperFunction,ComponentPad*%
%ADD14R,1.700000X1.700000*%
%TD*%
%TA.AperFunction,SMDPad,CuDef*%
%ADD15R,2.510000X1.000000*%
%TD*%
%TA.AperFunction,ViaPad*%
%ADD16C,0.800000*%
%TD*%
%TA.AperFunction,Conductor*%
%ADD17C,0.500000*%
%TD*%
%TA.AperFunction,Conductor*%
%ADD18C,0.400000*%
%TD*%
%TA.AperFunction,Conductor*%
%ADD19C,0.250000*%
%TD*%
%TA.AperFunction,Conductor*%
%ADD20C,1.000000*%
%TD*%
%TA.AperFunction,Conductor*%
%ADD21C,0.254000*%
%TD*%
%TA.AperFunction,Conductor*%
%ADD22C,0.100000*%
%TD*%
G04 APERTURE END LIST*
D10*
%TO.P,J6,8*%
%TO.N,GND*%
X114126000Y-116764000D03*
%TO.P,J6,7*%
%TO.N,/GDO2*%
X114126000Y-115494000D03*
%TO.P,J6,6*%
%TO.N,/IO38_MISO*%
X114126000Y-114224000D03*
%TO.P,J6,5*%
%TO.N,/IO18_MOSI*%
X114126000Y-112954000D03*
%TO.P,J6,4*%
%TO.N,/IO32_SCK*%
X114126000Y-111684000D03*
%TO.P,J6,3*%
%TO.N,/IO25*%
X114126000Y-110414000D03*
%TO.P,J6,2*%
%TO.N,/IO26*%
X114126000Y-109144000D03*
D11*
%TO.P,J6,1*%
%TO.N,VDD*%
X114126000Y-107874000D03*
%TD*%
D12*
%TO.P,AE1,2*%
%TO.N,GND*%
X101075000Y-101016000D03*
X106725000Y-101016000D03*
%TD*%
%TO.P,D6,2*%
%TO.N,VDD*%
%TA.AperFunction,SMDPad,CuDef*%
G36*
G01*
X109358000Y-101073999D02*
X109358000Y-101974001D01*
G75*
G02*
X109108001Y-102224000I-249999J0D01*
G01*
X108457999Y-102224000D01*
G75*
G02*
X108208000Y-101974001I0J249999D01*
G01*
X108208000Y-101073999D01*
G75*
G02*
X108457999Y-100824000I249999J0D01*
G01*
X109108001Y-100824000D01*
G75*
G02*
X109358000Y-101073999I0J-249999D01*
G01*
G37*
%TD.AperFunction*%
%TO.P,D6,1*%
%TO.N,Net-(D6-Pad1)*%
%TA.AperFunction,SMDPad,CuDef*%
G36*
G01*
X111408000Y-101073999D02*
X111408000Y-101974001D01*
G75*
G02*
X111158001Y-102224000I-249999J0D01*
G01*
X110507999Y-102224000D01*
G75*
G02*
X110258000Y-101974001I0J249999D01*
G01*
X110258000Y-101073999D01*
G75*
G02*
X110507999Y-100824000I249999J0D01*
G01*
X111158001Y-100824000D01*
G75*
G02*
X111408000Y-101073999I0J-249999D01*
G01*
G37*
%TD.AperFunction*%
%TD*%
%TO.P,R8,2*%
%TO.N,Net-(D6-Pad1)*%
%TA.AperFunction,SMDPad,CuDef*%
G36*
G01*
X113422000Y-101073999D02*
X113422000Y-101974001D01*
G75*
G02*
X113172001Y-102224000I-249999J0D01*
G01*
X112521999Y-102224000D01*
G75*
G02*
X112272000Y-101974001I0J249999D01*
G01*
X112272000Y-101073999D01*
G75*
G02*
X112521999Y-100824000I249999J0D01*
G01*
X113172001Y-100824000D01*
G75*
G02*
X113422000Y-101073999I0J-249999D01*
G01*
G37*
%TD.AperFunction*%
%TO.P,R8,1*%
%TO.N,/IO37_LED*%
%TA.AperFunction,SMDPad,CuDef*%
G36*
G01*
X115472000Y-101073999D02*
X115472000Y-101974001D01*
G75*
G02*
X115222001Y-102224000I-249999J0D01*
G01*
X114571999Y-102224000D01*
G75*
G02*
X114322000Y-101974001I0J249999D01*
G01*
X114322000Y-101073999D01*
G75*
G02*
X114571999Y-100824000I249999J0D01*
G01*
X115222001Y-100824000D01*
G75*
G02*
X115472000Y-101073999I0J-249999D01*
G01*
G37*
%TD.AperFunction*%
%TD*%
%TO.P,PAM8403,16*%
%TO.N,Net-(J5-Pad4)*%
%TA.AperFunction,SMDPad,CuDef*%
G36*
G01*
X106483000Y-130644000D02*
X106783000Y-130644000D01*
G75*
G02*
X106933000Y-130794000I0J-150000D01*
G01*
X106933000Y-132094000D01*
G75*
G02*
X106783000Y-132244000I-150000J0D01*
G01*
X106483000Y-132244000D01*
G75*
G02*
X106333000Y-132094000I0J150000D01*
G01*
X106333000Y-130794000D01*
G75*
G02*
X106483000Y-130644000I150000J0D01*
G01*
G37*
%TD.AperFunction*%
%TO.P,PAM8403,15*%
%TO.N,GND*%
%TA.AperFunction,SMDPad,CuDef*%
G36*
G01*
X107753000Y-130644000D02*
X108053000Y-130644000D01*
G75*
G02*
X108203000Y-130794000I0J-150000D01*
G01*
X108203000Y-132094000D01*
G75*
G02*
X108053000Y-132244000I-150000J0D01*
G01*
X107753000Y-132244000D01*
G75*
G02*
X107603000Y-132094000I0J150000D01*
G01*
X107603000Y-130794000D01*
G75*
G02*
X107753000Y-130644000I150000J0D01*
G01*
G37*
%TD.AperFunction*%
%TO.P,PAM8403,14*%
%TO.N,Net-(J5-Pad3)*%
%TA.AperFunction,SMDPad,CuDef*%
G36*
G01*
X109023000Y-130644000D02*
X109323000Y-130644000D01*
G75*
G02*
X109473000Y-130794000I0J-150000D01*
G01*
X109473000Y-132094000D01*
G75*
G02*
X109323000Y-132244000I-150000J0D01*
G01*
X109023000Y-132244000D01*
G75*
G02*
X108873000Y-132094000I0J150000D01*
G01*
X108873000Y-130794000D01*
G75*
G02*
X109023000Y-130644000I150000J0D01*
G01*
G37*
%TD.AperFunction*%
%TO.P,PAM8403,13*%
%TO.N,+5V*%
%TA.AperFunction,SMDPad,CuDef*%
G36*
G01*
X110293000Y-130644000D02*
X110593000Y-130644000D01*
G75*
G02*
X110743000Y-130794000I0J-150000D01*
G01*
X110743000Y-132094000D01*
G75*
G02*
X110593000Y-132244000I-150000J0D01*
G01*
X110293000Y-132244000D01*
G75*
G02*
X110143000Y-132094000I0J150000D01*
G01*
X110143000Y-130794000D01*
G75*
G02*
X110293000Y-130644000I150000J0D01*
G01*
G37*
%TD.AperFunction*%
%TO.P,PAM8403,12*%
%TO.N,Net-(PAM8403-Pad12)*%
%TA.AperFunction,SMDPad,CuDef*%
G36*
G01*
X111563000Y-130644000D02*
X111863000Y-130644000D01*
G75*
G02*
X112013000Y-130794000I0J-150000D01*
G01*
X112013000Y-132094000D01*
G75*
G02*
X111863000Y-132244000I-150000J0D01*
G01*
X111563000Y-132244000D01*
G75*
G02*
X111413000Y-132094000I0J150000D01*
G01*
X111413000Y-130794000D01*
G75*
G02*
X111563000Y-130644000I150000J0D01*
G01*
G37*
%TD.AperFunction*%
%TO.P,PAM8403,11*%
%TO.N,GND*%
%TA.AperFunction,SMDPad,CuDef*%
G36*
G01*
X112833000Y-130644000D02*
X113133000Y-130644000D01*
G75*
G02*
X113283000Y-130794000I0J-150000D01*
G01*
X113283000Y-132094000D01*
G75*
G02*
X113133000Y-132244000I-150000J0D01*
G01*
X112833000Y-132244000D01*
G75*
G02*
X112683000Y-132094000I0J150000D01*
G01*
X112683000Y-130794000D01*
G75*
G02*
X112833000Y-130644000I150000J0D01*
G01*
G37*
%TD.AperFunction*%
%TO.P,PAM8403,10*%
%TO.N,Net-(PAM8403-Pad10)*%
%TA.AperFunction,SMDPad,CuDef*%
G36*
G01*
X114103000Y-130644000D02*
X114403000Y-130644000D01*
G75*
G02*
X114553000Y-130794000I0J-150000D01*
G01*
X114553000Y-132094000D01*
G75*
G02*
X114403000Y-132244000I-150000J0D01*
G01*
X114103000Y-132244000D01*
G75*
G02*
X113953000Y-132094000I0J150000D01*
G01*
X113953000Y-130794000D01*
G75*
G02*
X114103000Y-130644000I150000J0D01*
G01*
G37*
%TD.AperFunction*%
%TO.P,PAM8403,9*%
%TO.N,GND*%
%TA.AperFunction,SMDPad,CuDef*%
G36*
G01*
X115373000Y-130644000D02*
X115673000Y-130644000D01*
G75*
G02*
X115823000Y-130794000I0J-150000D01*
G01*
X115823000Y-132094000D01*
G75*
G02*
X115673000Y-132244000I-150000J0D01*
G01*
X115373000Y-132244000D01*
G75*
G02*
X115223000Y-132094000I0J150000D01*
G01*
X115223000Y-130794000D01*
G75*
G02*
X115373000Y-130644000I150000J0D01*
G01*
G37*
%TD.AperFunction*%
%TO.P,PAM8403,8*%
%TO.N,Net-(C5-Pad1)*%
%TA.AperFunction,SMDPad,CuDef*%
G36*
G01*
X115373000Y-124144000D02*
X115673000Y-124144000D01*
G75*
G02*
X115823000Y-124294000I0J-150000D01*
G01*
X115823000Y-125594000D01*
G75*
G02*
X115673000Y-125744000I-150000J0D01*
G01*
X115373000Y-125744000D01*
G75*
G02*
X115223000Y-125594000I0J150000D01*
G01*
X115223000Y-124294000D01*
G75*
G02*
X115373000Y-124144000I150000J0D01*
G01*
G37*
%TD.AperFunction*%
%TO.P,PAM8403,7*%
%TO.N,Net-(PAM8403-Pad7)*%
%TA.AperFunction,SMDPad,CuDef*%
G36*
G01*
X114103000Y-124144000D02*
X114403000Y-124144000D01*
G75*
G02*
X114553000Y-124294000I0J-150000D01*
G01*
X114553000Y-125594000D01*
G75*
G02*
X114403000Y-125744000I-150000J0D01*
G01*
X114103000Y-125744000D01*
G75*
G02*
X113953000Y-125594000I0J150000D01*
G01*
X113953000Y-124294000D01*
G75*
G02*
X114103000Y-124144000I150000J0D01*
G01*
G37*
%TD.AperFunction*%
%TO.P,PAM8403,6*%
%TO.N,+5V*%
%TA.AperFunction,SMDPad,CuDef*%
G36*
G01*
X112833000Y-124144000D02*
X113133000Y-124144000D01*
G75*
G02*
X113283000Y-124294000I0J-150000D01*
G01*
X113283000Y-125594000D01*
G75*
G02*
X113133000Y-125744000I-150000J0D01*
G01*
X112833000Y-125744000D01*
G75*
G02*
X112683000Y-125594000I0J150000D01*
G01*
X112683000Y-124294000D01*
G75*
G02*
X112833000Y-124144000I150000J0D01*
G01*
G37*
%TD.AperFunction*%
%TO.P,PAM8403,5*%
%TO.N,Net-(PAM8403-Pad5)*%
%TA.AperFunction,SMDPad,CuDef*%
G36*
G01*
X111563000Y-124144000D02*
X111863000Y-124144000D01*
G75*
G02*
X112013000Y-124294000I0J-150000D01*
G01*
X112013000Y-125594000D01*
G75*
G02*
X111863000Y-125744000I-150000J0D01*
G01*
X111563000Y-125744000D01*
G75*
G02*
X111413000Y-125594000I0J150000D01*
G01*
X111413000Y-124294000D01*
G75*
G02*
X111563000Y-124144000I150000J0D01*
G01*
G37*
%TD.AperFunction*%
%TO.P,PAM8403,4*%
%TO.N,+5V*%
%TA.AperFunction,SMDPad,CuDef*%
G36*
G01*
X110293000Y-124144000D02*
X110593000Y-124144000D01*
G75*
G02*
X110743000Y-124294000I0J-150000D01*
G01*
X110743000Y-125594000D01*
G75*
G02*
X110593000Y-125744000I-150000J0D01*
G01*
X110293000Y-125744000D01*
G75*
G02*
X110143000Y-125594000I0J150000D01*
G01*
X110143000Y-124294000D01*
G75*
G02*
X110293000Y-124144000I150000J0D01*
G01*
G37*
%TD.AperFunction*%
%TO.P,PAM8403,3*%
%TO.N,Net-(J5-Pad2)*%
%TA.AperFunction,SMDPad,CuDef*%
G36*
G01*
X109023000Y-124144000D02*
X109323000Y-124144000D01*
G75*
G02*
X109473000Y-124294000I0J-150000D01*
G01*
X109473000Y-125594000D01*
G75*
G02*
X109323000Y-125744000I-150000J0D01*
G01*
X109023000Y-125744000D01*
G75*
G02*
X108873000Y-125594000I0J150000D01*
G01*
X108873000Y-124294000D01*
G75*
G02*
X109023000Y-124144000I150000J0D01*
G01*
G37*
%TD.AperFunction*%
%TO.P,PAM8403,2*%
%TO.N,GND*%
%TA.AperFunction,SMDPad,CuDef*%
G36*
G01*
X107753000Y-124144000D02*
X108053000Y-124144000D01*
G75*
G02*
X108203000Y-124294000I0J-150000D01*
G01*
X108203000Y-125594000D01*
G75*
G02*
X108053000Y-125744000I-150000J0D01*
G01*
X107753000Y-125744000D01*
G75*
G02*
X107603000Y-125594000I0J150000D01*
G01*
X107603000Y-124294000D01*
G75*
G02*
X107753000Y-124144000I150000J0D01*
G01*
G37*
%TD.AperFunction*%
%TO.P,PAM8403,1*%
%TO.N,Net-(J5-Pad1)*%
%TA.AperFunction,SMDPad,CuDef*%
G36*
G01*
X106483000Y-124144000D02*
X106783000Y-124144000D01*
G75*
G02*
X106933000Y-124294000I0J-150000D01*
G01*
X106933000Y-125594000D01*
G75*
G02*
X106783000Y-125744000I-150000J0D01*
G01*
X106483000Y-125744000D01*
G75*
G02*
X106333000Y-125594000I0J150000D01*
G01*
X106333000Y-124294000D01*
G75*
G02*
X106483000Y-124144000I150000J0D01*
G01*
G37*
%TD.AperFunction*%
%TD*%
%TO.P,R7,2*%
%TO.N,Net-(PAM8403-Pad5)*%
%TA.AperFunction,SMDPad,CuDef*%
G36*
G01*
X111898000Y-122409999D02*
X111898000Y-123310001D01*
G75*
G02*
X111648001Y-123560000I-249999J0D01*
G01*
X110997999Y-123560000D01*
G75*
G02*
X110748000Y-123310001I0J249999D01*
G01*
X110748000Y-122409999D01*
G75*
G02*
X110997999Y-122160000I249999J0D01*
G01*
X111648001Y-122160000D01*
G75*
G02*
X111898000Y-122409999I0J-249999D01*
G01*
G37*
%TD.AperFunction*%
%TO.P,R7,1*%
%TO.N,+5V*%
%TA.AperFunction,SMDPad,CuDef*%
G36*
G01*
X113948000Y-122409999D02*
X113948000Y-123310001D01*
G75*
G02*
X113698001Y-123560000I-249999J0D01*
G01*
X113047999Y-123560000D01*
G75*
G02*
X112798000Y-123310001I0J249999D01*
G01*
X112798000Y-122409999D01*
G75*
G02*
X113047999Y-122160000I249999J0D01*
G01*
X113698001Y-122160000D01*
G75*
G02*
X113948000Y-122409999I0J-249999D01*
G01*
G37*
%TD.AperFunction*%
%TD*%
%TO.P,R6,2*%
%TO.N,+5V*%
%TA.AperFunction,SMDPad,CuDef*%
G36*
G01*
X111136000Y-133077999D02*
X111136000Y-133978001D01*
G75*
G02*
X110886001Y-134228000I-249999J0D01*
G01*
X110235999Y-134228000D01*
G75*
G02*
X109986000Y-133978001I0J249999D01*
G01*
X109986000Y-133077999D01*
G75*
G02*
X110235999Y-132828000I249999J0D01*
G01*
X110886001Y-132828000D01*
G75*
G02*
X111136000Y-133077999I0J-249999D01*
G01*
G37*
%TD.AperFunction*%
%TO.P,R6,1*%
%TO.N,Net-(PAM8403-Pad12)*%
%TA.AperFunction,SMDPad,CuDef*%
G36*
G01*
X113186000Y-133077999D02*
X113186000Y-133978001D01*
G75*
G02*
X112936001Y-134228000I-249999J0D01*
G01*
X112285999Y-134228000D01*
G75*
G02*
X112036000Y-133978001I0J249999D01*
G01*
X112036000Y-133077999D01*
G75*
G02*
X112285999Y-132828000I249999J0D01*
G01*
X112936001Y-132828000D01*
G75*
G02*
X113186000Y-133077999I0J-249999D01*
G01*
G37*
%TD.AperFunction*%
%TD*%
%TO.P,R5,2*%
%TO.N,Net-(C4-Pad2)*%
%TA.AperFunction,SMDPad,CuDef*%
G36*
G01*
X114945999Y-135248000D02*
X115846001Y-135248000D01*
G75*
G02*
X116096000Y-135497999I0J-249999D01*
G01*
X116096000Y-136148001D01*
G75*
G02*
X115846001Y-136398000I-249999J0D01*
G01*
X114945999Y-136398000D01*
G75*
G02*
X114696000Y-136148001I0J249999D01*
G01*
X114696000Y-135497999D01*
G75*
G02*
X114945999Y-135248000I249999J0D01*
G01*
G37*
%TD.AperFunction*%
%TO.P,R5,1*%
%TO.N,Net-(PAM8403-Pad10)*%
%TA.AperFunction,SMDPad,CuDef*%
G36*
G01*
X114945999Y-133198000D02*
X115846001Y-133198000D01*
G75*
G02*
X116096000Y-133447999I0J-249999D01*
G01*
X116096000Y-134098001D01*
G75*
G02*
X115846001Y-134348000I-249999J0D01*
G01*
X114945999Y-134348000D01*
G75*
G02*
X114696000Y-134098001I0J249999D01*
G01*
X114696000Y-133447999D01*
G75*
G02*
X114945999Y-133198000I249999J0D01*
G01*
G37*
%TD.AperFunction*%
%TD*%
%TO.P,R1,2*%
%TO.N,Net-(PAM8403-Pad7)*%
%TA.AperFunction,SMDPad,CuDef*%
G36*
G01*
X113306000Y-119246001D02*
X113306000Y-118345999D01*
G75*
G02*
X113555999Y-118096000I249999J0D01*
G01*
X114206001Y-118096000D01*
G75*
G02*
X114456000Y-118345999I0J-249999D01*
G01*
X114456000Y-119246001D01*
G75*
G02*
X114206001Y-119496000I-249999J0D01*
G01*
X113555999Y-119496000D01*
G75*
G02*
X113306000Y-119246001I0J249999D01*
G01*
G37*
%TD.AperFunction*%
%TO.P,R1,1*%
%TO.N,Net-(C3-Pad1)*%
%TA.AperFunction,SMDPad,CuDef*%
G36*
G01*
X111256000Y-119246001D02*
X111256000Y-118345999D01*
G75*
G02*
X111505999Y-118096000I249999J0D01*
G01*
X112156001Y-118096000D01*
G75*
G02*
X112406000Y-118345999I0J-249999D01*
G01*
X112406000Y-119246001D01*
G75*
G02*
X112156001Y-119496000I-249999J0D01*
G01*
X111505999Y-119496000D01*
G75*
G02*
X111256000Y-119246001I0J249999D01*
G01*
G37*
%TD.AperFunction*%
%TD*%
D13*
%TO.P,J5,4*%
%TO.N,Net-(J5-Pad4)*%
X102442000Y-135120000D03*
%TO.P,J5,3*%
%TO.N,Net-(J5-Pad3)*%
X102442000Y-132580000D03*
%TO.P,J5,2*%
%TO.N,Net-(J5-Pad2)*%
X102442000Y-130040000D03*
D14*
%TO.P,J5,1*%
%TO.N,Net-(J5-Pad1)*%
X102442000Y-127500000D03*
%TD*%
%TO.P,C7,2*%
%TO.N,+5V*%
%TA.AperFunction,SMDPad,CuDef*%
G36*
G01*
X112798000Y-121278001D02*
X112798000Y-120377999D01*
G75*
G02*
X113047999Y-120128000I249999J0D01*
G01*
X113698001Y-120128000D01*
G75*
G02*
X113948000Y-120377999I0J-249999D01*
G01*
X113948000Y-121278001D01*
G75*
G02*
X113698001Y-121528000I-249999J0D01*
G01*
X113047999Y-121528000D01*
G75*
G02*
X112798000Y-121278001I0J249999D01*
G01*
G37*
%TD.AperFunction*%
%TO.P,C7,1*%
%TO.N,GND*%
%TA.AperFunction,SMDPad,CuDef*%
G36*
G01*
X110748000Y-121278001D02*
X110748000Y-120377999D01*
G75*
G02*
X110997999Y-120128000I249999J0D01*
G01*
X111648001Y-120128000D01*
G75*
G02*
X111898000Y-120377999I0J-249999D01*
G01*
X111898000Y-121278001D01*
G75*
G02*
X111648001Y-121528000I-249999J0D01*
G01*
X110997999Y-121528000D01*
G75*
G02*
X110748000Y-121278001I0J249999D01*
G01*
G37*
%TD.AperFunction*%
%TD*%
%TO.P,C6,2*%
%TO.N,GND*%
%TA.AperFunction,SMDPad,CuDef*%
G36*
G01*
X107326000Y-133077999D02*
X107326000Y-133978001D01*
G75*
G02*
X107076001Y-134228000I-249999J0D01*
G01*
X106425999Y-134228000D01*
G75*
G02*
X106176000Y-133978001I0J249999D01*
G01*
X106176000Y-133077999D01*
G75*
G02*
X106425999Y-132828000I249999J0D01*
G01*
X107076001Y-132828000D01*
G75*
G02*
X107326000Y-133077999I0J-249999D01*
G01*
G37*
%TD.AperFunction*%
%TO.P,C6,1*%
%TO.N,+5V*%
%TA.AperFunction,SMDPad,CuDef*%
G36*
G01*
X109376000Y-133077999D02*
X109376000Y-133978001D01*
G75*
G02*
X109126001Y-134228000I-249999J0D01*
G01*
X108475999Y-134228000D01*
G75*
G02*
X108226000Y-133978001I0J249999D01*
G01*
X108226000Y-133077999D01*
G75*
G02*
X108475999Y-132828000I249999J0D01*
G01*
X109126001Y-132828000D01*
G75*
G02*
X109376000Y-133077999I0J-249999D01*
G01*
G37*
%TD.AperFunction*%
%TD*%
%TO.P,C5,2*%
%TO.N,GND*%
%TA.AperFunction,SMDPad,CuDef*%
G36*
G01*
X119656000Y-123818001D02*
X119656000Y-122917999D01*
G75*
G02*
X119905999Y-122668000I249999J0D01*
G01*
X120556001Y-122668000D01*
G75*
G02*
X120806000Y-122917999I0J-249999D01*
G01*
X120806000Y-123818001D01*
G75*
G02*
X120556001Y-124068000I-249999J0D01*
G01*
X119905999Y-124068000D01*
G75*
G02*
X119656000Y-123818001I0J249999D01*
G01*
G37*
%TD.AperFunction*%
%TO.P,C5,1*%
%TO.N,Net-(C5-Pad1)*%
%TA.AperFunction,SMDPad,CuDef*%
G36*
G01*
X117606000Y-123818001D02*
X117606000Y-122917999D01*
G75*
G02*
X117855999Y-122668000I249999J0D01*
G01*
X118506001Y-122668000D01*
G75*
G02*
X118756000Y-122917999I0J-249999D01*
G01*
X118756000Y-123818001D01*
G75*
G02*
X118506001Y-124068000I-249999J0D01*
G01*
X117855999Y-124068000D01*
G75*
G02*
X117606000Y-123818001I0J249999D01*
G01*
G37*
%TD.AperFunction*%
%TD*%
%TO.P,C4,2*%
%TO.N,Net-(C4-Pad2)*%
%TA.AperFunction,SMDPad,CuDef*%
G36*
G01*
X112798000Y-136264001D02*
X112798000Y-135363999D01*
G75*
G02*
X113047999Y-135114000I249999J0D01*
G01*
X113698001Y-135114000D01*
G75*
G02*
X113948000Y-135363999I0J-249999D01*
G01*
X113948000Y-136264001D01*
G75*
G02*
X113698001Y-136514000I-249999J0D01*
G01*
X113047999Y-136514000D01*
G75*
G02*
X112798000Y-136264001I0J249999D01*
G01*
G37*
%TD.AperFunction*%
%TO.P,C4,1*%
%TO.N,/IO26*%
%TA.AperFunction,SMDPad,CuDef*%
G36*
G01*
X110748000Y-136264001D02*
X110748000Y-135363999D01*
G75*
G02*
X110997999Y-135114000I249999J0D01*
G01*
X111648001Y-135114000D01*
G75*
G02*
X111898000Y-135363999I0J-249999D01*
G01*
X111898000Y-136264001D01*
G75*
G02*
X111648001Y-136514000I-249999J0D01*
G01*
X110997999Y-136514000D01*
G75*
G02*
X110748000Y-136264001I0J249999D01*
G01*
G37*
%TD.AperFunction*%
%TD*%
%TO.P,C3,2*%
%TO.N,/IO25*%
%TA.AperFunction,SMDPad,CuDef*%
G36*
G01*
X107834000Y-117329999D02*
X107834000Y-118230001D01*
G75*
G02*
X107584001Y-118480000I-249999J0D01*
G01*
X106933999Y-118480000D01*
G75*
G02*
X106684000Y-118230001I0J249999D01*
G01*
X106684000Y-117329999D01*
G75*
G02*
X106933999Y-117080000I249999J0D01*
G01*
X107584001Y-117080000D01*
G75*
G02*
X107834000Y-117329999I0J-249999D01*
G01*
G37*
%TD.AperFunction*%
%TO.P,C3,1*%
%TO.N,Net-(C3-Pad1)*%
%TA.AperFunction,SMDPad,CuDef*%
G36*
G01*
X109884000Y-117329999D02*
X109884000Y-118230001D01*
G75*
G02*
X109634001Y-118480000I-249999J0D01*
G01*
X108983999Y-118480000D01*
G75*
G02*
X108734000Y-118230001I0J249999D01*
G01*
X108734000Y-117329999D01*
G75*
G02*
X108983999Y-117080000I249999J0D01*
G01*
X109634001Y-117080000D01*
G75*
G02*
X109884000Y-117329999I0J-249999D01*
G01*
G37*
%TD.AperFunction*%
%TD*%
D13*
%TO.P,J1,4*%
%TO.N,/IO25*%
X119968000Y-135120000D03*
%TO.P,J1,3*%
%TO.N,/IO26*%
X119968000Y-132580000D03*
%TO.P,J1,2*%
%TO.N,GND*%
X119968000Y-130040000D03*
D14*
%TO.P,J1,1*%
%TO.N,+5V*%
X119968000Y-127500000D03*
%TD*%
%TO.P,R4,2*%
%TO.N,GND*%
%TA.AperFunction,SMDPad,CuDef*%
G36*
G01*
X110119999Y-110356000D02*
X111020001Y-110356000D01*
G75*
G02*
X111270000Y-110605999I0J-249999D01*
G01*
X111270000Y-111256001D01*
G75*
G02*
X111020001Y-111506000I-249999J0D01*
G01*
X110119999Y-111506000D01*
G75*
G02*
X109870000Y-111256001I0J249999D01*
G01*
X109870000Y-110605999D01*
G75*
G02*
X110119999Y-110356000I249999J0D01*
G01*
G37*
%TD.AperFunction*%
%TO.P,R4,1*%
%TO.N,/IO23_RST*%
%TA.AperFunction,SMDPad,CuDef*%
G36*
G01*
X110119999Y-108306000D02*
X111020001Y-108306000D01*
G75*
G02*
X111270000Y-108555999I0J-249999D01*
G01*
X111270000Y-109206001D01*
G75*
G02*
X111020001Y-109456000I-249999J0D01*
G01*
X110119999Y-109456000D01*
G75*
G02*
X109870000Y-109206001I0J249999D01*
G01*
X109870000Y-108555999D01*
G75*
G02*
X110119999Y-108306000I249999J0D01*
G01*
G37*
%TD.AperFunction*%
%TD*%
%TO.P,R3,2*%
%TO.N,/IO23_RST*%
%TA.AperFunction,SMDPad,CuDef*%
G36*
G01*
X108734001Y-109456000D02*
X107833999Y-109456000D01*
G75*
G02*
X107584000Y-109206001I0J249999D01*
G01*
X107584000Y-108555999D01*
G75*
G02*
X107833999Y-108306000I249999J0D01*
G01*
X108734001Y-108306000D01*
G75*
G02*
X108984000Y-108555999I0J-249999D01*
G01*
X108984000Y-109206001D01*
G75*
G02*
X108734001Y-109456000I-249999J0D01*
G01*
G37*
%TD.AperFunction*%
%TO.P,R3,1*%
%TO.N,+3V3*%
%TA.AperFunction,SMDPad,CuDef*%
G36*
G01*
X108734001Y-111506000D02*
X107833999Y-111506000D01*
G75*
G02*
X107584000Y-111256001I0J249999D01*
G01*
X107584000Y-110605999D01*
G75*
G02*
X107833999Y-110356000I249999J0D01*
G01*
X108734001Y-110356000D01*
G75*
G02*
X108984000Y-110605999I0J-249999D01*
G01*
X108984000Y-111256001D01*
G75*
G02*
X108734001Y-111506000I-249999J0D01*
G01*
G37*
%TD.AperFunction*%
%TD*%
D15*
%TO.P,J4,8*%
%TO.N,+VDC*%
X117705000Y-120370000D03*
%TO.P,J4,6*%
%TO.N,+5V*%
X117705000Y-115290000D03*
%TO.P,J4,4*%
%TO.N,/IO18_MOSI*%
X117705000Y-110210000D03*
%TO.P,J4,2*%
%TO.N,VDD*%
X117705000Y-105130000D03*
%TO.P,J4,7*%
%TO.N,+BATT*%
X121015000Y-117830000D03*
%TO.P,J4,5*%
%TO.N,/IO12_NSS*%
X121015000Y-112750000D03*
%TO.P,J4,3*%
%TO.N,/IO23_RST*%
X121015000Y-107670000D03*
%TO.P,J4,1*%
%TO.N,/IO37_LED*%
X121015000Y-102590000D03*
%TD*%
%TO.P,J3,6*%
%TO.N,/IO26*%
X101085000Y-117856000D03*
%TO.P,J3,4*%
%TO.N,/IO38_MISO*%
X101085000Y-112776000D03*
%TO.P,J3,2*%
%TO.N,/IO33_D0*%
X101085000Y-107696000D03*
%TO.P,J3,7*%
%TO.N,+3V3*%
X104395000Y-120396000D03*
%TO.P,J3,5*%
%TO.N,/IO25*%
X104395000Y-115316000D03*
%TO.P,J3,3*%
%TO.N,/IO32_SCK*%
X104395000Y-110236000D03*
%TO.P,J3,1*%
%TO.N,GND*%
X104395000Y-105156000D03*
%TD*%
%TO.P,C2,2*%
%TO.N,GND*%
%TA.AperFunction,SMDPad,CuDef*%
G36*
G01*
X109750000Y-115690001D02*
X109750000Y-114789999D01*
G75*
G02*
X109999999Y-114540000I249999J0D01*
G01*
X110650001Y-114540000D01*
G75*
G02*
X110900000Y-114789999I0J-249999D01*
G01*
X110900000Y-115690001D01*
G75*
G02*
X110650001Y-115940000I-249999J0D01*
G01*
X109999999Y-115940000D01*
G75*
G02*
X109750000Y-115690001I0J249999D01*
G01*
G37*
%TD.AperFunction*%
%TO.P,C2,1*%
%TO.N,+3V3*%
%TA.AperFunction,SMDPad,CuDef*%
G36*
G01*
X107700000Y-115690001D02*
X107700000Y-114789999D01*
G75*
G02*
X107949999Y-114540000I249999J0D01*
G01*
X108600001Y-114540000D01*
G75*
G02*
X108850000Y-114789999I0J-249999D01*
G01*
X108850000Y-115690001D01*
G75*
G02*
X108600001Y-115940000I-249999J0D01*
G01*
X107949999Y-115940000D01*
G75*
G02*
X107700000Y-115690001I0J249999D01*
G01*
G37*
%TD.AperFunction*%
%TD*%
%TO.P,C1,2*%
%TO.N,+3V3*%
%TA.AperFunction,SMDPad,CuDef*%
G36*
G01*
X108850000Y-112579999D02*
X108850000Y-113480001D01*
G75*
G02*
X108600001Y-113730000I-249999J0D01*
G01*
X107949999Y-113730000D01*
G75*
G02*
X107700000Y-113480001I0J249999D01*
G01*
X107700000Y-112579999D01*
G75*
G02*
X107949999Y-112330000I249999J0D01*
G01*
X108600001Y-112330000D01*
G75*
G02*
X108850000Y-112579999I0J-249999D01*
G01*
G37*
%TD.AperFunction*%
%TO.P,C1,1*%
%TO.N,GND*%
%TA.AperFunction,SMDPad,CuDef*%
G36*
G01*
X110900000Y-112579999D02*
X110900000Y-113480001D01*
G75*
G02*
X110650001Y-113730000I-249999J0D01*
G01*
X109999999Y-113730000D01*
G75*
G02*
X109750000Y-113480001I0J249999D01*
G01*
X109750000Y-112579999D01*
G75*
G02*
X109999999Y-112330000I249999J0D01*
G01*
X110650001Y-112330000D01*
G75*
G02*
X110900000Y-112579999I0J-249999D01*
G01*
G37*
%TD.AperFunction*%
%TD*%
D16*
%TO.N,+3V3*%
X108275000Y-114233000D03*
%TO.N,GND*%
X100918000Y-104572000D03*
X108284000Y-129718000D03*
X105998000Y-107366000D03*
X112602000Y-111684000D03*
X114634000Y-105080000D03*
X103712000Y-123622000D03*
X112856000Y-130480000D03*
X117428000Y-131750000D03*
X117682000Y-135814000D03*
X106700000Y-126700000D03*
X112602000Y-128448000D03*
X112602000Y-115240000D03*
X106760000Y-104064000D03*
X118952000Y-125146000D03*
%TO.N,/IO25*%
X104216459Y-126158459D03*
%TO.N,/IO12_NSS*%
X119968000Y-111684000D03*
%TO.N,/IO33_D0*%
X100664000Y-108890000D03*
%TO.N,/IO38_MISO*%
X104982000Y-112954000D03*
%TO.N,/IO23_RST*%
X110570000Y-108881000D03*
X120476000Y-108890000D03*
%TO.N,/IO32_SCK*%
X104982000Y-110115564D03*
%TO.N,/IO18_MOSI*%
X120476000Y-114986000D03*
%TO.N,+5V*%
X112348000Y-121844000D03*
%TO.N,/IO37_LED*%
X121238000Y-104318000D03*
%TO.N,+BATT*%
X119460000Y-121590000D03*
%TD*%
D17*
%TO.N,+3V3*%
X104319000Y-120320000D02*
X104395000Y-120396000D01*
X108284000Y-113021000D02*
X108275000Y-113030000D01*
X108284000Y-110931000D02*
X108284000Y-113021000D01*
X108275000Y-114233000D02*
X108275000Y-113030000D01*
X108275000Y-115240000D02*
X108275000Y-114233000D01*
D18*
X108275000Y-118558236D02*
X108275000Y-115240000D01*
X106437236Y-120396000D02*
X108275000Y-118558236D01*
X104395000Y-120396000D02*
X106437236Y-120396000D01*
D17*
%TO.N,GND*%
X107903000Y-132376000D02*
X106751000Y-133528000D01*
X107903000Y-131444000D02*
X107903000Y-132376000D01*
X107903000Y-125781000D02*
X106760000Y-126924000D01*
X107903000Y-124944000D02*
X107903000Y-125781000D01*
X112602000Y-130226000D02*
X112856000Y-130480000D01*
X112602000Y-128448000D02*
X112602000Y-130226000D01*
D19*
X101502000Y-105156000D02*
X100918000Y-104572000D01*
X104395000Y-105156000D02*
X101502000Y-105156000D01*
X105668000Y-105156000D02*
X106760000Y-104064000D01*
X104395000Y-105156000D02*
X105668000Y-105156000D01*
D17*
%TO.N,/IO26*%
X101085000Y-121423000D02*
X101085000Y-117856000D01*
X101085000Y-122519000D02*
X101085000Y-121423000D01*
D18*
X117378010Y-134847990D02*
X119968000Y-132258000D01*
X114542754Y-134713990D02*
X114676754Y-134847990D01*
X112423010Y-134713990D02*
X114542754Y-134713990D01*
X114676754Y-134847990D02*
X117378010Y-134847990D01*
X111323000Y-135814000D02*
X112423010Y-134713990D01*
D17*
X113585998Y-109144000D02*
X114126000Y-109144000D01*
D18*
X105366001Y-113754001D02*
X106252000Y-112868002D01*
X103481997Y-113754001D02*
X105366001Y-113754001D01*
X101085000Y-116150998D02*
X103481997Y-113754001D01*
X101085000Y-117856000D02*
X101085000Y-116150998D01*
X113418894Y-109144000D02*
X114126000Y-109144000D01*
X112180884Y-107905990D02*
X113418894Y-109144000D01*
X107564754Y-107905990D02*
X112180884Y-107905990D01*
X106583981Y-108886763D02*
X107564754Y-107905990D01*
X106583981Y-112536021D02*
X106583981Y-108886763D01*
X105366001Y-113754001D02*
X106583981Y-112536021D01*
D17*
X105490000Y-135814000D02*
X111323000Y-135814000D01*
X104883999Y-136420001D02*
X105490000Y-135814000D01*
X101817999Y-136420001D02*
X104883999Y-136420001D01*
X101085000Y-135687002D02*
X101817999Y-136420001D01*
X101085000Y-121423000D02*
X101085000Y-135687002D01*
%TO.N,/IO25*%
X104445998Y-117780000D02*
X104395000Y-117830998D01*
X107259000Y-117780000D02*
X104445998Y-117780000D01*
X107259000Y-117692000D02*
X107425000Y-117526000D01*
X107259000Y-117780000D02*
X107259000Y-117692000D01*
X102689999Y-124631999D02*
X104216459Y-126158459D01*
X102689999Y-118898001D02*
X102689999Y-124631999D01*
X104395000Y-117193000D02*
X102689999Y-118898001D01*
X104395000Y-115316000D02*
X104395000Y-117193000D01*
X104395000Y-117193000D02*
X104395000Y-117830998D01*
D18*
X107183990Y-110236774D02*
X107464774Y-109955990D01*
X107183990Y-111525246D02*
X107183990Y-110236774D01*
X107464774Y-109955990D02*
X112905990Y-109955990D01*
X107259000Y-111600256D02*
X107183990Y-111525246D01*
X113364000Y-110414000D02*
X112905990Y-109955990D01*
X114126000Y-110414000D02*
X113364000Y-110414000D01*
X105650000Y-115316000D02*
X107259000Y-113707000D01*
X104395000Y-115316000D02*
X105650000Y-115316000D01*
X107259000Y-113707000D02*
X107259000Y-111600256D01*
D17*
%TO.N,/IO12_NSS*%
X120984000Y-112719000D02*
X121015000Y-112750000D01*
X121015000Y-112731000D02*
X119968000Y-111684000D01*
X121015000Y-112750000D02*
X121015000Y-112731000D01*
%TO.N,/IO33_D0*%
X100664000Y-108117000D02*
X101085000Y-107696000D01*
X100664000Y-108890000D02*
X100664000Y-108117000D01*
%TO.N,/IO38_MISO*%
X101263000Y-112954000D02*
X101085000Y-112776000D01*
X104982000Y-112954000D02*
X101263000Y-112954000D01*
%TO.N,/IO23_RST*%
X121015000Y-107670000D02*
X120346000Y-107670000D01*
X108284000Y-108881000D02*
X110570000Y-108881000D01*
X120476000Y-108209000D02*
X121015000Y-107670000D01*
X120476000Y-108890000D02*
X120476000Y-108209000D01*
%TO.N,/IO18_MOSI*%
X117705000Y-112723000D02*
X119968000Y-114986000D01*
X117705000Y-110210000D02*
X117705000Y-112723000D01*
X119968000Y-114986000D02*
X120476000Y-114986000D01*
%TO.N,+5V*%
X110443000Y-133410000D02*
X110561000Y-133528000D01*
X110443000Y-131444000D02*
X110443000Y-133410000D01*
X108801000Y-133528000D02*
X110561000Y-133528000D01*
X113373000Y-124554000D02*
X112983000Y-124944000D01*
X113373000Y-122860000D02*
X113373000Y-124554000D01*
X112983000Y-125744000D02*
X112983000Y-124944000D01*
X111168000Y-127559000D02*
X112983000Y-125744000D01*
X110443000Y-127559000D02*
X111168000Y-127559000D01*
X110443000Y-131444000D02*
X110443000Y-127559000D01*
X110443000Y-127559000D02*
X110443000Y-124944000D01*
D20*
X112434520Y-121835000D02*
X112425520Y-121844000D01*
X113373000Y-121835000D02*
X112434520Y-121835000D01*
D17*
X113373000Y-120828000D02*
X113373000Y-121835000D01*
X113373000Y-121835000D02*
X113373000Y-122860000D01*
X112983000Y-125322544D02*
X112983000Y-124944000D01*
X114838456Y-127178000D02*
X112983000Y-125322544D01*
X119968000Y-127178000D02*
X114838456Y-127178000D01*
D18*
X112905990Y-120360990D02*
X113373000Y-120828000D01*
X112905990Y-118076754D02*
X112905990Y-120360990D01*
X113286754Y-117695990D02*
X112905990Y-118076754D01*
X115299010Y-117695990D02*
X113286754Y-117695990D01*
X117705000Y-115290000D02*
X115299010Y-117695990D01*
D17*
%TO.N,/IO37_LED*%
X121015000Y-104095000D02*
X121238000Y-104318000D01*
X121015000Y-102590000D02*
X121015000Y-104095000D01*
X119949000Y-101524000D02*
X121015000Y-102590000D01*
X115405000Y-101524000D02*
X119949000Y-101524000D01*
X121082002Y-104318000D02*
X121238000Y-104318000D01*
D18*
%TO.N,Net-(C3-Pad1)*%
X110325000Y-118796000D02*
X109309000Y-117780000D01*
X111831000Y-118796000D02*
X110325000Y-118796000D01*
D17*
%TO.N,Net-(C4-Pad2)*%
X115133000Y-135814000D02*
X113373000Y-135814000D01*
%TO.N,Net-(C5-Pad1)*%
X116605000Y-124944000D02*
X118181000Y-123368000D01*
X115523000Y-124944000D02*
X116605000Y-124944000D01*
%TO.N,VDD*%
X117705000Y-105130000D02*
X116131000Y-103556000D01*
X116131000Y-103556000D02*
X109300000Y-103556000D01*
X108783000Y-103039000D02*
X108783000Y-101524000D01*
X109300000Y-103556000D02*
X108783000Y-103039000D01*
X116362000Y-105130000D02*
X117705000Y-105130000D01*
X114126000Y-107366000D02*
X116362000Y-105130000D01*
X114126000Y-107874000D02*
X114126000Y-107366000D01*
%TO.N,Net-(J5-Pad4)*%
X106050000Y-131444000D02*
X102442000Y-135052000D01*
X106633000Y-131444000D02*
X106050000Y-131444000D01*
%TO.N,Net-(J5-Pad3)*%
X109173000Y-131065456D02*
X109173000Y-131444000D01*
X109173000Y-129083000D02*
X109173000Y-131444000D01*
X108538000Y-128448000D02*
X109173000Y-129083000D01*
X107980456Y-128448000D02*
X108538000Y-128448000D01*
X103736772Y-131217228D02*
X102442000Y-132512000D01*
X105211228Y-131217228D02*
X103736772Y-131217228D01*
X105211228Y-131217228D02*
X107980456Y-128448000D01*
%TO.N,Net-(J5-Pad2)*%
X109173000Y-125744000D02*
X109173000Y-124944000D01*
X104945000Y-129972000D02*
X109173000Y-125744000D01*
X102442000Y-129972000D02*
X104945000Y-129972000D01*
%TO.N,Net-(J5-Pad1)*%
X104145000Y-127432000D02*
X106633000Y-124944000D01*
X102442000Y-127432000D02*
X104145000Y-127432000D01*
%TO.N,Net-(D6-Pad1)*%
X110833000Y-101524000D02*
X112847000Y-101524000D01*
%TO.N,Net-(PAM8403-Pad12)*%
X111713000Y-132630000D02*
X112611000Y-133528000D01*
X111713000Y-131444000D02*
X111713000Y-132630000D01*
%TO.N,Net-(PAM8403-Pad10)*%
X114253000Y-132630000D02*
X115396000Y-133773000D01*
X114253000Y-131444000D02*
X114253000Y-132630000D01*
D18*
%TO.N,Net-(PAM8403-Pad7)*%
X114553000Y-119468000D02*
X113881000Y-118796000D01*
X114553000Y-124644000D02*
X114553000Y-119468000D01*
X114253000Y-124944000D02*
X114553000Y-124644000D01*
D17*
%TO.N,Net-(PAM8403-Pad5)*%
X111713000Y-123250000D02*
X111323000Y-122860000D01*
X111713000Y-124944000D02*
X111713000Y-123250000D01*
D18*
%TO.N,+BATT*%
X121015000Y-117830000D02*
X121015000Y-120035000D01*
X121015000Y-120035000D02*
X119460000Y-121590000D01*
%TD*%
D21*
%TO.N,GND*%
X118483000Y-134973740D02*
X118483000Y-135266260D01*
X118540068Y-135553158D01*
X118652010Y-135823411D01*
X118814525Y-136066632D01*
X119021368Y-136273475D01*
X119120930Y-136340000D01*
X116711322Y-136340000D01*
X116717008Y-136321255D01*
X116734072Y-136148001D01*
X116734072Y-135682990D01*
X117336992Y-135682990D01*
X117378010Y-135687030D01*
X117419028Y-135682990D01*
X117419029Y-135682990D01*
X117541699Y-135670908D01*
X117699097Y-135623162D01*
X117844156Y-135545626D01*
X117971301Y-135441281D01*
X117997456Y-135409411D01*
X118495384Y-134911484D01*
X118483000Y-134973740D01*
%TA.AperFunction,Conductor*%
D22*
G36*
X118483000Y-134973740D02*
G01*
X118483000Y-135266260D01*
X118540068Y-135553158D01*
X118652010Y-135823411D01*
X118814525Y-136066632D01*
X119021368Y-136273475D01*
X119120930Y-136340000D01*
X116711322Y-136340000D01*
X116717008Y-136321255D01*
X116734072Y-136148001D01*
X116734072Y-135682990D01*
X117336992Y-135682990D01*
X117378010Y-135687030D01*
X117419028Y-135682990D01*
X117419029Y-135682990D01*
X117541699Y-135670908D01*
X117699097Y-135623162D01*
X117844156Y-135545626D01*
X117971301Y-135441281D01*
X117997456Y-135409411D01*
X118495384Y-134911484D01*
X118483000Y-134973740D01*
G37*
%TD.AperFunction*%
D21*
X105541000Y-133242250D02*
X105699750Y-133401000D01*
X106624000Y-133401000D01*
X106624000Y-133381000D01*
X106878000Y-133381000D01*
X106878000Y-133401000D01*
X106898000Y-133401000D01*
X106898000Y-133655000D01*
X106878000Y-133655000D01*
X106878000Y-134704250D01*
X107036750Y-134863000D01*
X107326000Y-134866072D01*
X107450482Y-134853812D01*
X107570180Y-134817502D01*
X107680494Y-134758537D01*
X107777185Y-134679185D01*
X107842658Y-134599406D01*
X107848038Y-134605962D01*
X107982613Y-134716405D01*
X108136149Y-134798472D01*
X108302745Y-134849008D01*
X108475999Y-134866072D01*
X109126001Y-134866072D01*
X109299255Y-134849008D01*
X109465851Y-134798472D01*
X109619387Y-134716405D01*
X109681000Y-134665840D01*
X109742613Y-134716405D01*
X109896149Y-134798472D01*
X110062745Y-134849008D01*
X110235999Y-134866072D01*
X110263322Y-134866072D01*
X110259595Y-134870613D01*
X110228386Y-134929000D01*
X105533469Y-134929000D01*
X105490000Y-134924719D01*
X105446531Y-134929000D01*
X105446523Y-134929000D01*
X105316510Y-134941805D01*
X105149687Y-134992411D01*
X105069864Y-135035077D01*
X104995941Y-135074589D01*
X104894953Y-135157468D01*
X104894951Y-135157470D01*
X104861183Y-135185183D01*
X104833470Y-135218951D01*
X104517421Y-135535001D01*
X103873544Y-135535001D01*
X103927000Y-135266260D01*
X103927000Y-134973740D01*
X103901257Y-134844321D01*
X104517578Y-134228000D01*
X105537928Y-134228000D01*
X105550188Y-134352482D01*
X105586498Y-134472180D01*
X105645463Y-134582494D01*
X105724815Y-134679185D01*
X105821506Y-134758537D01*
X105931820Y-134817502D01*
X106051518Y-134853812D01*
X106176000Y-134866072D01*
X106465250Y-134863000D01*
X106624000Y-134704250D01*
X106624000Y-133655000D01*
X105699750Y-133655000D01*
X105541000Y-133813750D01*
X105537928Y-134228000D01*
X104517578Y-134228000D01*
X105540723Y-133204856D01*
X105541000Y-133242250D01*
%TA.AperFunction,Conductor*%
D22*
G36*
X105541000Y-133242250D02*
G01*
X105699750Y-133401000D01*
X106624000Y-133401000D01*
X106624000Y-133381000D01*
X106878000Y-133381000D01*
X106878000Y-133401000D01*
X106898000Y-133401000D01*
X106898000Y-133655000D01*
X106878000Y-133655000D01*
X106878000Y-134704250D01*
X107036750Y-134863000D01*
X107326000Y-134866072D01*
X107450482Y-134853812D01*
X107570180Y-134817502D01*
X107680494Y-134758537D01*
X107777185Y-134679185D01*
X107842658Y-134599406D01*
X107848038Y-134605962D01*
X107982613Y-134716405D01*
X108136149Y-134798472D01*
X108302745Y-134849008D01*
X108475999Y-134866072D01*
X109126001Y-134866072D01*
X109299255Y-134849008D01*
X109465851Y-134798472D01*
X109619387Y-134716405D01*
X109681000Y-134665840D01*
X109742613Y-134716405D01*
X109896149Y-134798472D01*
X110062745Y-134849008D01*
X110235999Y-134866072D01*
X110263322Y-134866072D01*
X110259595Y-134870613D01*
X110228386Y-134929000D01*
X105533469Y-134929000D01*
X105490000Y-134924719D01*
X105446531Y-134929000D01*
X105446523Y-134929000D01*
X105316510Y-134941805D01*
X105149687Y-134992411D01*
X105069864Y-135035077D01*
X104995941Y-135074589D01*
X104894953Y-135157468D01*
X104894951Y-135157470D01*
X104861183Y-135185183D01*
X104833470Y-135218951D01*
X104517421Y-135535001D01*
X103873544Y-135535001D01*
X103927000Y-135266260D01*
X103927000Y-134973740D01*
X103901257Y-134844321D01*
X104517578Y-134228000D01*
X105537928Y-134228000D01*
X105550188Y-134352482D01*
X105586498Y-134472180D01*
X105645463Y-134582494D01*
X105724815Y-134679185D01*
X105821506Y-134758537D01*
X105931820Y-134817502D01*
X106051518Y-134853812D01*
X106176000Y-134866072D01*
X106465250Y-134863000D01*
X106624000Y-134704250D01*
X106624000Y-133655000D01*
X105699750Y-133655000D01*
X105541000Y-133813750D01*
X105537928Y-134228000D01*
X104517578Y-134228000D01*
X105540723Y-133204856D01*
X105541000Y-133242250D01*
G37*
%TD.AperFunction*%
D21*
X114181926Y-127773049D02*
X114209639Y-127806817D01*
X114243407Y-127834530D01*
X114243409Y-127834532D01*
X114314908Y-127893210D01*
X114344397Y-127917411D01*
X114498143Y-127999589D01*
X114664966Y-128050195D01*
X114794979Y-128063000D01*
X114794989Y-128063000D01*
X114838455Y-128067281D01*
X114881922Y-128063000D01*
X118479928Y-128063000D01*
X118479928Y-128350000D01*
X118492188Y-128474482D01*
X118528498Y-128594180D01*
X118587463Y-128704494D01*
X118666815Y-128801185D01*
X118763506Y-128880537D01*
X118873820Y-128939502D01*
X118954466Y-128963966D01*
X118870412Y-129039731D01*
X118696359Y-129273080D01*
X118571175Y-129535901D01*
X118526524Y-129683110D01*
X118647845Y-129913000D01*
X119841000Y-129913000D01*
X119841000Y-129893000D01*
X120095000Y-129893000D01*
X120095000Y-129913000D01*
X120115000Y-129913000D01*
X120115000Y-130167000D01*
X120095000Y-130167000D01*
X120095000Y-130187000D01*
X119841000Y-130187000D01*
X119841000Y-130167000D01*
X118647845Y-130167000D01*
X118526524Y-130396890D01*
X118571175Y-130544099D01*
X118696359Y-130806920D01*
X118870412Y-131040269D01*
X119086645Y-131235178D01*
X119203534Y-131304805D01*
X119021368Y-131426525D01*
X118814525Y-131633368D01*
X118652010Y-131876589D01*
X118540068Y-132146842D01*
X118483000Y-132433740D01*
X118483000Y-132562132D01*
X117032143Y-134012990D01*
X116734072Y-134012990D01*
X116734072Y-133447999D01*
X116717008Y-133274745D01*
X116666472Y-133108149D01*
X116584405Y-132954613D01*
X116473962Y-132820038D01*
X116339387Y-132709595D01*
X116285846Y-132680976D01*
X116353537Y-132598494D01*
X116412502Y-132488180D01*
X116448812Y-132368482D01*
X116461072Y-132244000D01*
X116458000Y-131729750D01*
X116299250Y-131571000D01*
X115650000Y-131571000D01*
X115650000Y-131591000D01*
X115396000Y-131591000D01*
X115396000Y-131571000D01*
X115376000Y-131571000D01*
X115376000Y-131317000D01*
X115396000Y-131317000D01*
X115396000Y-130167750D01*
X115650000Y-130167750D01*
X115650000Y-131317000D01*
X116299250Y-131317000D01*
X116458000Y-131158250D01*
X116461072Y-130644000D01*
X116448812Y-130519518D01*
X116412502Y-130399820D01*
X116353537Y-130289506D01*
X116274185Y-130192815D01*
X116177494Y-130113463D01*
X116067180Y-130054498D01*
X115947482Y-130018188D01*
X115823000Y-130005928D01*
X115808750Y-130009000D01*
X115650000Y-130167750D01*
X115396000Y-130167750D01*
X115237250Y-130009000D01*
X115223000Y-130005928D01*
X115098518Y-130018188D01*
X114978820Y-130054498D01*
X114868506Y-130113463D01*
X114838936Y-130137730D01*
X114704582Y-130065916D01*
X114556745Y-130021071D01*
X114403000Y-130005928D01*
X114103000Y-130005928D01*
X113949255Y-130021071D01*
X113801418Y-130065916D01*
X113667064Y-130137730D01*
X113637494Y-130113463D01*
X113527180Y-130054498D01*
X113407482Y-130018188D01*
X113283000Y-130005928D01*
X113268750Y-130009000D01*
X113110000Y-130167750D01*
X113110000Y-131317000D01*
X113130000Y-131317000D01*
X113130000Y-131571000D01*
X113110000Y-131571000D01*
X113110000Y-131591000D01*
X112856000Y-131591000D01*
X112856000Y-131571000D01*
X112836000Y-131571000D01*
X112836000Y-131317000D01*
X112856000Y-131317000D01*
X112856000Y-130167750D01*
X112697250Y-130009000D01*
X112683000Y-130005928D01*
X112558518Y-130018188D01*
X112438820Y-130054498D01*
X112328506Y-130113463D01*
X112298936Y-130137730D01*
X112164582Y-130065916D01*
X112016745Y-130021071D01*
X111863000Y-130005928D01*
X111563000Y-130005928D01*
X111409255Y-130021071D01*
X111328000Y-130045719D01*
X111328000Y-128432524D01*
X111341490Y-128431195D01*
X111508313Y-128380589D01*
X111662059Y-128298411D01*
X111796817Y-128187817D01*
X111824534Y-128154044D01*
X113193728Y-126784851D01*
X114181926Y-127773049D01*
%TA.AperFunction,Conductor*%
D22*
G36*
X114181926Y-127773049D02*
G01*
X114209639Y-127806817D01*
X114243407Y-127834530D01*
X114243409Y-127834532D01*
X114314908Y-127893210D01*
X114344397Y-127917411D01*
X114498143Y-127999589D01*
X114664966Y-128050195D01*
X114794979Y-128063000D01*
X114794989Y-128063000D01*
X114838455Y-128067281D01*
X114881922Y-128063000D01*
X118479928Y-128063000D01*
X118479928Y-128350000D01*
X118492188Y-128474482D01*
X118528498Y-128594180D01*
X118587463Y-128704494D01*
X118666815Y-128801185D01*
X118763506Y-128880537D01*
X118873820Y-128939502D01*
X118954466Y-128963966D01*
X118870412Y-129039731D01*
X118696359Y-129273080D01*
X118571175Y-129535901D01*
X118526524Y-129683110D01*
X118647845Y-129913000D01*
X119841000Y-129913000D01*
X119841000Y-129893000D01*
X120095000Y-129893000D01*
X120095000Y-129913000D01*
X120115000Y-129913000D01*
X120115000Y-130167000D01*
X120095000Y-130167000D01*
X120095000Y-130187000D01*
X119841000Y-130187000D01*
X119841000Y-130167000D01*
X118647845Y-130167000D01*
X118526524Y-130396890D01*
X118571175Y-130544099D01*
X118696359Y-130806920D01*
X118870412Y-131040269D01*
X119086645Y-131235178D01*
X119203534Y-131304805D01*
X119021368Y-131426525D01*
X118814525Y-131633368D01*
X118652010Y-131876589D01*
X118540068Y-132146842D01*
X118483000Y-132433740D01*
X118483000Y-132562132D01*
X117032143Y-134012990D01*
X116734072Y-134012990D01*
X116734072Y-133447999D01*
X116717008Y-133274745D01*
X116666472Y-133108149D01*
X116584405Y-132954613D01*
X116473962Y-132820038D01*
X116339387Y-132709595D01*
X116285846Y-132680976D01*
X116353537Y-132598494D01*
X116412502Y-132488180D01*
X116448812Y-132368482D01*
X116461072Y-132244000D01*
X116458000Y-131729750D01*
X116299250Y-131571000D01*
X115650000Y-131571000D01*
X115650000Y-131591000D01*
X115396000Y-131591000D01*
X115396000Y-131571000D01*
X115376000Y-131571000D01*
X115376000Y-131317000D01*
X115396000Y-131317000D01*
X115396000Y-130167750D01*
X115650000Y-130167750D01*
X115650000Y-131317000D01*
X116299250Y-131317000D01*
X116458000Y-131158250D01*
X116461072Y-130644000D01*
X116448812Y-130519518D01*
X116412502Y-130399820D01*
X116353537Y-130289506D01*
X116274185Y-130192815D01*
X116177494Y-130113463D01*
X116067180Y-130054498D01*
X115947482Y-130018188D01*
X115823000Y-130005928D01*
X115808750Y-130009000D01*
X115650000Y-130167750D01*
X115396000Y-130167750D01*
X115237250Y-130009000D01*
X115223000Y-130005928D01*
X115098518Y-130018188D01*
X114978820Y-130054498D01*
X114868506Y-130113463D01*
X114838936Y-130137730D01*
X114704582Y-130065916D01*
X114556745Y-130021071D01*
X114403000Y-130005928D01*
X114103000Y-130005928D01*
X113949255Y-130021071D01*
X113801418Y-130065916D01*
X113667064Y-130137730D01*
X113637494Y-130113463D01*
X113527180Y-130054498D01*
X113407482Y-130018188D01*
X113283000Y-130005928D01*
X113268750Y-130009000D01*
X113110000Y-130167750D01*
X113110000Y-131317000D01*
X113130000Y-131317000D01*
X113130000Y-131571000D01*
X113110000Y-131571000D01*
X113110000Y-131591000D01*
X112856000Y-131591000D01*
X112856000Y-131571000D01*
X112836000Y-131571000D01*
X112836000Y-131317000D01*
X112856000Y-131317000D01*
X112856000Y-130167750D01*
X112697250Y-130009000D01*
X112683000Y-130005928D01*
X112558518Y-130018188D01*
X112438820Y-130054498D01*
X112328506Y-130113463D01*
X112298936Y-130137730D01*
X112164582Y-130065916D01*
X112016745Y-130021071D01*
X111863000Y-130005928D01*
X111563000Y-130005928D01*
X111409255Y-130021071D01*
X111328000Y-130045719D01*
X111328000Y-128432524D01*
X111341490Y-128431195D01*
X111508313Y-128380589D01*
X111662059Y-128298411D01*
X111796817Y-128187817D01*
X111824534Y-128154044D01*
X113193728Y-126784851D01*
X114181926Y-127773049D01*
G37*
%TD.AperFunction*%
D21*
X108288000Y-129449579D02*
X108288000Y-130014300D01*
X108203000Y-130005928D01*
X108188750Y-130009000D01*
X108030000Y-130167750D01*
X108030000Y-131317000D01*
X108050000Y-131317000D01*
X108050000Y-131571000D01*
X108030000Y-131571000D01*
X108030000Y-131591000D01*
X107776000Y-131591000D01*
X107776000Y-131571000D01*
X107756000Y-131571000D01*
X107756000Y-131317000D01*
X107776000Y-131317000D01*
X107776000Y-130167750D01*
X107644142Y-130035892D01*
X108259228Y-129420807D01*
X108288000Y-129449579D01*
%TA.AperFunction,Conductor*%
D22*
G36*
X108288000Y-129449579D02*
G01*
X108288000Y-130014300D01*
X108203000Y-130005928D01*
X108188750Y-130009000D01*
X108030000Y-130167750D01*
X108030000Y-131317000D01*
X108050000Y-131317000D01*
X108050000Y-131571000D01*
X108030000Y-131571000D01*
X108030000Y-131591000D01*
X107776000Y-131591000D01*
X107776000Y-131571000D01*
X107756000Y-131571000D01*
X107756000Y-131317000D01*
X107776000Y-131317000D01*
X107776000Y-130167750D01*
X107644142Y-130035892D01*
X108259228Y-129420807D01*
X108288000Y-129449579D01*
G37*
%TD.AperFunction*%
D21*
X107248506Y-126274537D02*
X107341290Y-126324132D01*
X104578422Y-129087000D01*
X103589107Y-129087000D01*
X103463620Y-128961513D01*
X103536180Y-128939502D01*
X103646494Y-128880537D01*
X103743185Y-128801185D01*
X103822537Y-128704494D01*
X103881502Y-128594180D01*
X103917812Y-128474482D01*
X103930072Y-128350000D01*
X103930072Y-128317000D01*
X104101531Y-128317000D01*
X104145000Y-128321281D01*
X104188469Y-128317000D01*
X104188477Y-128317000D01*
X104318490Y-128304195D01*
X104485313Y-128253589D01*
X104639059Y-128171411D01*
X104773817Y-128060817D01*
X104801534Y-128027044D01*
X106449779Y-126378800D01*
X106483000Y-126382072D01*
X106783000Y-126382072D01*
X106936745Y-126366929D01*
X107084582Y-126322084D01*
X107218936Y-126250270D01*
X107248506Y-126274537D01*
%TA.AperFunction,Conductor*%
D22*
G36*
X107248506Y-126274537D02*
G01*
X107341290Y-126324132D01*
X104578422Y-129087000D01*
X103589107Y-129087000D01*
X103463620Y-128961513D01*
X103536180Y-128939502D01*
X103646494Y-128880537D01*
X103743185Y-128801185D01*
X103822537Y-128704494D01*
X103881502Y-128594180D01*
X103917812Y-128474482D01*
X103930072Y-128350000D01*
X103930072Y-128317000D01*
X104101531Y-128317000D01*
X104145000Y-128321281D01*
X104188469Y-128317000D01*
X104188477Y-128317000D01*
X104318490Y-128304195D01*
X104485313Y-128253589D01*
X104639059Y-128171411D01*
X104773817Y-128060817D01*
X104801534Y-128027044D01*
X106449779Y-126378800D01*
X106483000Y-126382072D01*
X106783000Y-126382072D01*
X106936745Y-126366929D01*
X107084582Y-126322084D01*
X107218936Y-126250270D01*
X107248506Y-126274537D01*
G37*
%TD.AperFunction*%
D21*
X120358000Y-123241000D02*
X120378000Y-123241000D01*
X120378000Y-123495000D01*
X120358000Y-123495000D01*
X120358000Y-124544250D01*
X120516750Y-124703000D01*
X120806000Y-124706072D01*
X120930482Y-124693812D01*
X121050180Y-124657502D01*
X121160494Y-124598537D01*
X121257185Y-124519185D01*
X121336537Y-124422494D01*
X121340001Y-124416014D01*
X121340001Y-126285104D01*
X121269185Y-126198815D01*
X121172494Y-126119463D01*
X121062180Y-126060498D01*
X120942482Y-126024188D01*
X120818000Y-126011928D01*
X119118000Y-126011928D01*
X118993518Y-126024188D01*
X118873820Y-126060498D01*
X118763506Y-126119463D01*
X118666815Y-126198815D01*
X118589520Y-126293000D01*
X116028994Y-126293000D01*
X116110829Y-126249258D01*
X116230251Y-126151251D01*
X116328258Y-126031829D01*
X116401084Y-125895582D01*
X116421281Y-125829000D01*
X116561531Y-125829000D01*
X116605000Y-125833281D01*
X116648469Y-125829000D01*
X116648477Y-125829000D01*
X116778490Y-125816195D01*
X116945313Y-125765589D01*
X117099059Y-125683411D01*
X117233817Y-125572817D01*
X117261534Y-125539044D01*
X118094507Y-124706072D01*
X118506001Y-124706072D01*
X118679255Y-124689008D01*
X118845851Y-124638472D01*
X118999387Y-124556405D01*
X119133962Y-124445962D01*
X119139342Y-124439406D01*
X119204815Y-124519185D01*
X119301506Y-124598537D01*
X119411820Y-124657502D01*
X119531518Y-124693812D01*
X119656000Y-124706072D01*
X119945250Y-124703000D01*
X120104000Y-124544250D01*
X120104000Y-123495000D01*
X120084000Y-123495000D01*
X120084000Y-123241000D01*
X120104000Y-123241000D01*
X120104000Y-123221000D01*
X120358000Y-123221000D01*
X120358000Y-123241000D01*
%TA.AperFunction,Conductor*%
D22*
G36*
X120358000Y-123241000D02*
G01*
X120378000Y-123241000D01*
X120378000Y-123495000D01*
X120358000Y-123495000D01*
X120358000Y-124544250D01*
X120516750Y-124703000D01*
X120806000Y-124706072D01*
X120930482Y-124693812D01*
X121050180Y-124657502D01*
X121160494Y-124598537D01*
X121257185Y-124519185D01*
X121336537Y-124422494D01*
X121340001Y-124416014D01*
X121340001Y-126285104D01*
X121269185Y-126198815D01*
X121172494Y-126119463D01*
X121062180Y-126060498D01*
X120942482Y-126024188D01*
X120818000Y-126011928D01*
X119118000Y-126011928D01*
X118993518Y-126024188D01*
X118873820Y-126060498D01*
X118763506Y-126119463D01*
X118666815Y-126198815D01*
X118589520Y-126293000D01*
X116028994Y-126293000D01*
X116110829Y-126249258D01*
X116230251Y-126151251D01*
X116328258Y-126031829D01*
X116401084Y-125895582D01*
X116421281Y-125829000D01*
X116561531Y-125829000D01*
X116605000Y-125833281D01*
X116648469Y-125829000D01*
X116648477Y-125829000D01*
X116778490Y-125816195D01*
X116945313Y-125765589D01*
X117099059Y-125683411D01*
X117233817Y-125572817D01*
X117261534Y-125539044D01*
X118094507Y-124706072D01*
X118506001Y-124706072D01*
X118679255Y-124689008D01*
X118845851Y-124638472D01*
X118999387Y-124556405D01*
X119133962Y-124445962D01*
X119139342Y-124439406D01*
X119204815Y-124519185D01*
X119301506Y-124598537D01*
X119411820Y-124657502D01*
X119531518Y-124693812D01*
X119656000Y-124706072D01*
X119945250Y-124703000D01*
X120104000Y-124544250D01*
X120104000Y-123495000D01*
X120084000Y-123495000D01*
X120084000Y-123241000D01*
X120104000Y-123241000D01*
X120104000Y-123221000D01*
X120358000Y-123221000D01*
X120358000Y-123241000D01*
G37*
%TD.AperFunction*%
D21*
X108983999Y-119118072D02*
X109466204Y-119118072D01*
X109705558Y-119357426D01*
X109731709Y-119389291D01*
X109858854Y-119493636D01*
X110003913Y-119571172D01*
X110161311Y-119618918D01*
X110180704Y-119620828D01*
X110325000Y-119635040D01*
X110350816Y-119632497D01*
X110296815Y-119676815D01*
X110217463Y-119773506D01*
X110158498Y-119883820D01*
X110122188Y-120003518D01*
X110109928Y-120128000D01*
X110113000Y-120542250D01*
X110271750Y-120701000D01*
X111196000Y-120701000D01*
X111196000Y-120681000D01*
X111450000Y-120681000D01*
X111450000Y-120701000D01*
X111470000Y-120701000D01*
X111470000Y-120955000D01*
X111450000Y-120955000D01*
X111450000Y-120975000D01*
X111196000Y-120975000D01*
X111196000Y-120955000D01*
X110271750Y-120955000D01*
X110113000Y-121113750D01*
X110109928Y-121528000D01*
X110122188Y-121652482D01*
X110158498Y-121772180D01*
X110217463Y-121882494D01*
X110254021Y-121927041D01*
X110177528Y-122070149D01*
X110126992Y-122236745D01*
X110109928Y-122409999D01*
X110109928Y-123310001D01*
X110126992Y-123483255D01*
X110138530Y-123521291D01*
X109991418Y-123565916D01*
X109855171Y-123638742D01*
X109808000Y-123677454D01*
X109760829Y-123638742D01*
X109624582Y-123565916D01*
X109476745Y-123521071D01*
X109323000Y-123505928D01*
X109023000Y-123505928D01*
X108869255Y-123521071D01*
X108721418Y-123565916D01*
X108587064Y-123637730D01*
X108557494Y-123613463D01*
X108447180Y-123554498D01*
X108327482Y-123518188D01*
X108203000Y-123505928D01*
X108188750Y-123509000D01*
X108030000Y-123667750D01*
X108030000Y-124817000D01*
X108050000Y-124817000D01*
X108050000Y-125071000D01*
X108030000Y-125071000D01*
X108030000Y-125091000D01*
X107776000Y-125091000D01*
X107776000Y-125071000D01*
X107756000Y-125071000D01*
X107756000Y-124817000D01*
X107776000Y-124817000D01*
X107776000Y-123667750D01*
X107617250Y-123509000D01*
X107603000Y-123505928D01*
X107478518Y-123518188D01*
X107358820Y-123554498D01*
X107248506Y-123613463D01*
X107218936Y-123637730D01*
X107084582Y-123565916D01*
X106936745Y-123521071D01*
X106783000Y-123505928D01*
X106483000Y-123505928D01*
X106329255Y-123521071D01*
X106181418Y-123565916D01*
X106045171Y-123638742D01*
X105925749Y-123736749D01*
X105827742Y-123856171D01*
X105754916Y-123992418D01*
X105710071Y-124140255D01*
X105694928Y-124294000D01*
X105694928Y-124630493D01*
X104923566Y-125401855D01*
X104876233Y-125354522D01*
X104706715Y-125241254D01*
X104518357Y-125163233D01*
X104461503Y-125151924D01*
X103574999Y-124265421D01*
X103574999Y-121534072D01*
X105650000Y-121534072D01*
X105774482Y-121521812D01*
X105894180Y-121485502D01*
X106004494Y-121426537D01*
X106101185Y-121347185D01*
X106180537Y-121250494D01*
X106190957Y-121231000D01*
X106396218Y-121231000D01*
X106437236Y-121235040D01*
X106478254Y-121231000D01*
X106478255Y-121231000D01*
X106600925Y-121218918D01*
X106758323Y-121171172D01*
X106903382Y-121093636D01*
X107030527Y-120989291D01*
X107056682Y-120957421D01*
X108836433Y-119177672D01*
X108868291Y-119151527D01*
X108896556Y-119117087D01*
X108902347Y-119110030D01*
X108983999Y-119118072D01*
%TA.AperFunction,Conductor*%
D22*
G36*
X108983999Y-119118072D02*
G01*
X109466204Y-119118072D01*
X109705558Y-119357426D01*
X109731709Y-119389291D01*
X109858854Y-119493636D01*
X110003913Y-119571172D01*
X110161311Y-119618918D01*
X110180704Y-119620828D01*
X110325000Y-119635040D01*
X110350816Y-119632497D01*
X110296815Y-119676815D01*
X110217463Y-119773506D01*
X110158498Y-119883820D01*
X110122188Y-120003518D01*
X110109928Y-120128000D01*
X110113000Y-120542250D01*
X110271750Y-120701000D01*
X111196000Y-120701000D01*
X111196000Y-120681000D01*
X111450000Y-120681000D01*
X111450000Y-120701000D01*
X111470000Y-120701000D01*
X111470000Y-120955000D01*
X111450000Y-120955000D01*
X111450000Y-120975000D01*
X111196000Y-120975000D01*
X111196000Y-120955000D01*
X110271750Y-120955000D01*
X110113000Y-121113750D01*
X110109928Y-121528000D01*
X110122188Y-121652482D01*
X110158498Y-121772180D01*
X110217463Y-121882494D01*
X110254021Y-121927041D01*
X110177528Y-122070149D01*
X110126992Y-122236745D01*
X110109928Y-122409999D01*
X110109928Y-123310001D01*
X110126992Y-123483255D01*
X110138530Y-123521291D01*
X109991418Y-123565916D01*
X109855171Y-123638742D01*
X109808000Y-123677454D01*
X109760829Y-123638742D01*
X109624582Y-123565916D01*
X109476745Y-123521071D01*
X109323000Y-123505928D01*
X109023000Y-123505928D01*
X108869255Y-123521071D01*
X108721418Y-123565916D01*
X108587064Y-123637730D01*
X108557494Y-123613463D01*
X108447180Y-123554498D01*
X108327482Y-123518188D01*
X108203000Y-123505928D01*
X108188750Y-123509000D01*
X108030000Y-123667750D01*
X108030000Y-124817000D01*
X108050000Y-124817000D01*
X108050000Y-125071000D01*
X108030000Y-125071000D01*
X108030000Y-125091000D01*
X107776000Y-125091000D01*
X107776000Y-125071000D01*
X107756000Y-125071000D01*
X107756000Y-124817000D01*
X107776000Y-124817000D01*
X107776000Y-123667750D01*
X107617250Y-123509000D01*
X107603000Y-123505928D01*
X107478518Y-123518188D01*
X107358820Y-123554498D01*
X107248506Y-123613463D01*
X107218936Y-123637730D01*
X107084582Y-123565916D01*
X106936745Y-123521071D01*
X106783000Y-123505928D01*
X106483000Y-123505928D01*
X106329255Y-123521071D01*
X106181418Y-123565916D01*
X106045171Y-123638742D01*
X105925749Y-123736749D01*
X105827742Y-123856171D01*
X105754916Y-123992418D01*
X105710071Y-124140255D01*
X105694928Y-124294000D01*
X105694928Y-124630493D01*
X104923566Y-125401855D01*
X104876233Y-125354522D01*
X104706715Y-125241254D01*
X104518357Y-125163233D01*
X104461503Y-125151924D01*
X103574999Y-124265421D01*
X103574999Y-121534072D01*
X105650000Y-121534072D01*
X105774482Y-121521812D01*
X105894180Y-121485502D01*
X106004494Y-121426537D01*
X106101185Y-121347185D01*
X106180537Y-121250494D01*
X106190957Y-121231000D01*
X106396218Y-121231000D01*
X106437236Y-121235040D01*
X106478254Y-121231000D01*
X106478255Y-121231000D01*
X106600925Y-121218918D01*
X106758323Y-121171172D01*
X106903382Y-121093636D01*
X107030527Y-120989291D01*
X107056682Y-120957421D01*
X108836433Y-119177672D01*
X108868291Y-119151527D01*
X108896556Y-119117087D01*
X108902347Y-119110030D01*
X108983999Y-119118072D01*
G37*
%TD.AperFunction*%
D21*
X110697000Y-110804000D02*
X111746250Y-110804000D01*
X111759260Y-110790990D01*
X112560122Y-110790990D01*
X112744558Y-110975426D01*
X112770709Y-111007291D01*
X112897854Y-111111636D01*
X113039196Y-111187185D01*
X113042913Y-111189172D01*
X113095804Y-111205216D01*
X113034617Y-111352933D01*
X112991000Y-111572212D01*
X112991000Y-111795788D01*
X113034617Y-112015067D01*
X113120176Y-112221624D01*
X113185241Y-112319000D01*
X113120176Y-112416376D01*
X113034617Y-112622933D01*
X112991000Y-112842212D01*
X112991000Y-113065788D01*
X113034617Y-113285067D01*
X113120176Y-113491624D01*
X113185241Y-113589000D01*
X113120176Y-113686376D01*
X113034617Y-113892933D01*
X112991000Y-114112212D01*
X112991000Y-114335788D01*
X113034617Y-114555067D01*
X113120176Y-114761624D01*
X113185241Y-114859000D01*
X113120176Y-114956376D01*
X113034617Y-115162933D01*
X112991000Y-115382212D01*
X112991000Y-115605788D01*
X113034617Y-115825067D01*
X113120176Y-116031624D01*
X113188353Y-116133658D01*
X113138877Y-116203794D01*
X113048554Y-116407136D01*
X113031881Y-116462126D01*
X113158046Y-116637000D01*
X113999000Y-116637000D01*
X113999000Y-116625974D01*
X114014212Y-116629000D01*
X114237788Y-116629000D01*
X114253000Y-116625974D01*
X114253000Y-116637000D01*
X114273000Y-116637000D01*
X114273000Y-116860990D01*
X113327772Y-116860990D01*
X113286754Y-116856950D01*
X113245736Y-116860990D01*
X113245735Y-116860990D01*
X113123065Y-116873072D01*
X112965667Y-116920818D01*
X112820608Y-116998354D01*
X112693463Y-117102699D01*
X112667315Y-117134561D01*
X112344568Y-117457309D01*
X112323689Y-117474444D01*
X112156001Y-117457928D01*
X111505999Y-117457928D01*
X111332745Y-117474992D01*
X111166149Y-117525528D01*
X111012613Y-117607595D01*
X110878038Y-117718038D01*
X110767595Y-117852613D01*
X110709661Y-117961000D01*
X110670868Y-117961000D01*
X110522072Y-117812204D01*
X110522072Y-117329999D01*
X110505008Y-117156745D01*
X110454472Y-116990149D01*
X110372405Y-116836613D01*
X110261962Y-116702038D01*
X110127387Y-116591595D01*
X110059136Y-116555114D01*
X110198000Y-116416250D01*
X110198000Y-115367000D01*
X110452000Y-115367000D01*
X110452000Y-116416250D01*
X110610750Y-116575000D01*
X110900000Y-116578072D01*
X111024482Y-116565812D01*
X111144180Y-116529502D01*
X111254494Y-116470537D01*
X111351185Y-116391185D01*
X111430537Y-116294494D01*
X111489502Y-116184180D01*
X111525812Y-116064482D01*
X111538072Y-115940000D01*
X111535000Y-115525750D01*
X111376250Y-115367000D01*
X110452000Y-115367000D01*
X110198000Y-115367000D01*
X110178000Y-115367000D01*
X110178000Y-115113000D01*
X110198000Y-115113000D01*
X110198000Y-113157000D01*
X110452000Y-113157000D01*
X110452000Y-115113000D01*
X111376250Y-115113000D01*
X111535000Y-114954250D01*
X111538072Y-114540000D01*
X111525812Y-114415518D01*
X111489502Y-114295820D01*
X111430537Y-114185506D01*
X111389088Y-114135000D01*
X111430537Y-114084494D01*
X111489502Y-113974180D01*
X111525812Y-113854482D01*
X111538072Y-113730000D01*
X111535000Y-113315750D01*
X111376250Y-113157000D01*
X110452000Y-113157000D01*
X110198000Y-113157000D01*
X110178000Y-113157000D01*
X110178000Y-112903000D01*
X110198000Y-112903000D01*
X110198000Y-112883000D01*
X110452000Y-112883000D01*
X110452000Y-112903000D01*
X111376250Y-112903000D01*
X111535000Y-112744250D01*
X111538072Y-112330000D01*
X111525812Y-112205518D01*
X111494271Y-112101541D01*
X111514180Y-112095502D01*
X111624494Y-112036537D01*
X111721185Y-111957185D01*
X111800537Y-111860494D01*
X111859502Y-111750180D01*
X111895812Y-111630482D01*
X111908072Y-111506000D01*
X111905000Y-111216750D01*
X111746250Y-111058000D01*
X110697000Y-111058000D01*
X110697000Y-111078000D01*
X110443000Y-111078000D01*
X110443000Y-111058000D01*
X110423000Y-111058000D01*
X110423000Y-110804000D01*
X110443000Y-110804000D01*
X110443000Y-110790990D01*
X110697000Y-110790990D01*
X110697000Y-110804000D01*
%TA.AperFunction,Conductor*%
D22*
G36*
X110697000Y-110804000D02*
G01*
X111746250Y-110804000D01*
X111759260Y-110790990D01*
X112560122Y-110790990D01*
X112744558Y-110975426D01*
X112770709Y-111007291D01*
X112897854Y-111111636D01*
X113039196Y-111187185D01*
X113042913Y-111189172D01*
X113095804Y-111205216D01*
X113034617Y-111352933D01*
X112991000Y-111572212D01*
X112991000Y-111795788D01*
X113034617Y-112015067D01*
X113120176Y-112221624D01*
X113185241Y-112319000D01*
X113120176Y-112416376D01*
X113034617Y-112622933D01*
X112991000Y-112842212D01*
X112991000Y-113065788D01*
X113034617Y-113285067D01*
X113120176Y-113491624D01*
X113185241Y-113589000D01*
X113120176Y-113686376D01*
X113034617Y-113892933D01*
X112991000Y-114112212D01*
X112991000Y-114335788D01*
X113034617Y-114555067D01*
X113120176Y-114761624D01*
X113185241Y-114859000D01*
X113120176Y-114956376D01*
X113034617Y-115162933D01*
X112991000Y-115382212D01*
X112991000Y-115605788D01*
X113034617Y-115825067D01*
X113120176Y-116031624D01*
X113188353Y-116133658D01*
X113138877Y-116203794D01*
X113048554Y-116407136D01*
X113031881Y-116462126D01*
X113158046Y-116637000D01*
X113999000Y-116637000D01*
X113999000Y-116625974D01*
X114014212Y-116629000D01*
X114237788Y-116629000D01*
X114253000Y-116625974D01*
X114253000Y-116637000D01*
X114273000Y-116637000D01*
X114273000Y-116860990D01*
X113327772Y-116860990D01*
X113286754Y-116856950D01*
X113245736Y-116860990D01*
X113245735Y-116860990D01*
X113123065Y-116873072D01*
X112965667Y-116920818D01*
X112820608Y-116998354D01*
X112693463Y-117102699D01*
X112667315Y-117134561D01*
X112344568Y-117457309D01*
X112323689Y-117474444D01*
X112156001Y-117457928D01*
X111505999Y-117457928D01*
X111332745Y-117474992D01*
X111166149Y-117525528D01*
X111012613Y-117607595D01*
X110878038Y-117718038D01*
X110767595Y-117852613D01*
X110709661Y-117961000D01*
X110670868Y-117961000D01*
X110522072Y-117812204D01*
X110522072Y-117329999D01*
X110505008Y-117156745D01*
X110454472Y-116990149D01*
X110372405Y-116836613D01*
X110261962Y-116702038D01*
X110127387Y-116591595D01*
X110059136Y-116555114D01*
X110198000Y-116416250D01*
X110198000Y-115367000D01*
X110452000Y-115367000D01*
X110452000Y-116416250D01*
X110610750Y-116575000D01*
X110900000Y-116578072D01*
X111024482Y-116565812D01*
X111144180Y-116529502D01*
X111254494Y-116470537D01*
X111351185Y-116391185D01*
X111430537Y-116294494D01*
X111489502Y-116184180D01*
X111525812Y-116064482D01*
X111538072Y-115940000D01*
X111535000Y-115525750D01*
X111376250Y-115367000D01*
X110452000Y-115367000D01*
X110198000Y-115367000D01*
X110178000Y-115367000D01*
X110178000Y-115113000D01*
X110198000Y-115113000D01*
X110198000Y-113157000D01*
X110452000Y-113157000D01*
X110452000Y-115113000D01*
X111376250Y-115113000D01*
X111535000Y-114954250D01*
X111538072Y-114540000D01*
X111525812Y-114415518D01*
X111489502Y-114295820D01*
X111430537Y-114185506D01*
X111389088Y-114135000D01*
X111430537Y-114084494D01*
X111489502Y-113974180D01*
X111525812Y-113854482D01*
X111538072Y-113730000D01*
X111535000Y-113315750D01*
X111376250Y-113157000D01*
X110452000Y-113157000D01*
X110198000Y-113157000D01*
X110178000Y-113157000D01*
X110178000Y-112903000D01*
X110198000Y-112903000D01*
X110198000Y-112883000D01*
X110452000Y-112883000D01*
X110452000Y-112903000D01*
X111376250Y-112903000D01*
X111535000Y-112744250D01*
X111538072Y-112330000D01*
X111525812Y-112205518D01*
X111494271Y-112101541D01*
X111514180Y-112095502D01*
X111624494Y-112036537D01*
X111721185Y-111957185D01*
X111800537Y-111860494D01*
X111859502Y-111750180D01*
X111895812Y-111630482D01*
X111908072Y-111506000D01*
X111905000Y-111216750D01*
X111746250Y-111058000D01*
X110697000Y-111058000D01*
X110697000Y-111078000D01*
X110443000Y-111078000D01*
X110443000Y-111058000D01*
X110423000Y-111058000D01*
X110423000Y-110804000D01*
X110443000Y-110804000D01*
X110443000Y-110790990D01*
X110697000Y-110790990D01*
X110697000Y-110804000D01*
G37*
%TD.AperFunction*%
D21*
X105415000Y-100730250D02*
X105573750Y-100889000D01*
X106598000Y-100889000D01*
X106598000Y-100660000D01*
X106852000Y-100660000D01*
X106852000Y-100889000D01*
X106872000Y-100889000D01*
X106872000Y-101143000D01*
X106852000Y-101143000D01*
X106852000Y-103592250D01*
X107010750Y-103751000D01*
X107400000Y-103754072D01*
X107524482Y-103741812D01*
X107644180Y-103705502D01*
X107754494Y-103646537D01*
X107851185Y-103567185D01*
X107930537Y-103470494D01*
X107970343Y-103396023D01*
X108043589Y-103533058D01*
X108154183Y-103667817D01*
X108187956Y-103695534D01*
X108643466Y-104151044D01*
X108671183Y-104184817D01*
X108805941Y-104295411D01*
X108959687Y-104377589D01*
X109126510Y-104428195D01*
X109256523Y-104441000D01*
X109256533Y-104441000D01*
X109299999Y-104445281D01*
X109343465Y-104441000D01*
X115764422Y-104441000D01*
X115783396Y-104459974D01*
X115766953Y-104473468D01*
X115766951Y-104473470D01*
X115733183Y-104501183D01*
X115705470Y-104534951D01*
X113530951Y-106709471D01*
X113497184Y-106737183D01*
X113483722Y-106753586D01*
X113381820Y-106784498D01*
X113271506Y-106843463D01*
X113174815Y-106922815D01*
X113095463Y-107019506D01*
X113036498Y-107129820D01*
X113000188Y-107249518D01*
X112987928Y-107374000D01*
X112987928Y-107532167D01*
X112800329Y-107344568D01*
X112774175Y-107312699D01*
X112647030Y-107208354D01*
X112501971Y-107130818D01*
X112344573Y-107083072D01*
X112221903Y-107070990D01*
X112221902Y-107070990D01*
X112180884Y-107066950D01*
X112139866Y-107070990D01*
X107605761Y-107070990D01*
X107564753Y-107066951D01*
X107523745Y-107070990D01*
X107523735Y-107070990D01*
X107401065Y-107083072D01*
X107243667Y-107130818D01*
X107098608Y-107208354D01*
X106971463Y-107312699D01*
X106945312Y-107344564D01*
X106022555Y-108267322D01*
X105990691Y-108293472D01*
X105964543Y-108325334D01*
X105886345Y-108420618D01*
X105808809Y-108565677D01*
X105761063Y-108723075D01*
X105744941Y-108886763D01*
X105748982Y-108927791D01*
X105748982Y-109107677D01*
X105650000Y-109097928D01*
X105171234Y-109097928D01*
X105083939Y-109080564D01*
X104880061Y-109080564D01*
X104792766Y-109097928D01*
X103140000Y-109097928D01*
X103015518Y-109110188D01*
X102895820Y-109146498D01*
X102785506Y-109205463D01*
X102688815Y-109284815D01*
X102609463Y-109381506D01*
X102550498Y-109491820D01*
X102514188Y-109611518D01*
X102501928Y-109736000D01*
X102501928Y-110736000D01*
X102514188Y-110860482D01*
X102550498Y-110980180D01*
X102609463Y-111090494D01*
X102688815Y-111187185D01*
X102785506Y-111266537D01*
X102895820Y-111325502D01*
X103015518Y-111361812D01*
X103140000Y-111374072D01*
X105650000Y-111374072D01*
X105748981Y-111364324D01*
X105748981Y-112190152D01*
X105715422Y-112223711D01*
X105641774Y-112150063D01*
X105472256Y-112036795D01*
X105283898Y-111958774D01*
X105083939Y-111919000D01*
X104880061Y-111919000D01*
X104680102Y-111958774D01*
X104491744Y-112036795D01*
X104443546Y-112069000D01*
X102940780Y-112069000D01*
X102929502Y-112031820D01*
X102870537Y-111921506D01*
X102791185Y-111824815D01*
X102694494Y-111745463D01*
X102584180Y-111686498D01*
X102464482Y-111650188D01*
X102340000Y-111637928D01*
X100660000Y-111637928D01*
X100660000Y-109925000D01*
X100765939Y-109925000D01*
X100965898Y-109885226D01*
X101154256Y-109807205D01*
X101323774Y-109693937D01*
X101467937Y-109549774D01*
X101581205Y-109380256D01*
X101659226Y-109191898D01*
X101699000Y-108991939D01*
X101699000Y-108834072D01*
X102340000Y-108834072D01*
X102464482Y-108821812D01*
X102584180Y-108785502D01*
X102694494Y-108726537D01*
X102791185Y-108647185D01*
X102870537Y-108550494D01*
X102929502Y-108440180D01*
X102965812Y-108320482D01*
X102978072Y-108196000D01*
X102978072Y-107196000D01*
X102965812Y-107071518D01*
X102929502Y-106951820D01*
X102870537Y-106841506D01*
X102791185Y-106744815D01*
X102694494Y-106665463D01*
X102584180Y-106606498D01*
X102464482Y-106570188D01*
X102340000Y-106557928D01*
X100660000Y-106557928D01*
X100660000Y-105656000D01*
X102501928Y-105656000D01*
X102514188Y-105780482D01*
X102550498Y-105900180D01*
X102609463Y-106010494D01*
X102688815Y-106107185D01*
X102785506Y-106186537D01*
X102895820Y-106245502D01*
X103015518Y-106281812D01*
X103140000Y-106294072D01*
X104109250Y-106291000D01*
X104268000Y-106132250D01*
X104268000Y-105283000D01*
X104522000Y-105283000D01*
X104522000Y-106132250D01*
X104680750Y-106291000D01*
X105650000Y-106294072D01*
X105774482Y-106281812D01*
X105894180Y-106245502D01*
X106004494Y-106186537D01*
X106101185Y-106107185D01*
X106180537Y-106010494D01*
X106239502Y-105900180D01*
X106275812Y-105780482D01*
X106288072Y-105656000D01*
X106285000Y-105441750D01*
X106126250Y-105283000D01*
X104522000Y-105283000D01*
X104268000Y-105283000D01*
X102663750Y-105283000D01*
X102505000Y-105441750D01*
X102501928Y-105656000D01*
X100660000Y-105656000D01*
X100660000Y-104656000D01*
X102501928Y-104656000D01*
X102505000Y-104870250D01*
X102663750Y-105029000D01*
X104268000Y-105029000D01*
X104268000Y-104179750D01*
X104522000Y-104179750D01*
X104522000Y-105029000D01*
X106126250Y-105029000D01*
X106285000Y-104870250D01*
X106288072Y-104656000D01*
X106275812Y-104531518D01*
X106239502Y-104411820D01*
X106180537Y-104301506D01*
X106101185Y-104204815D01*
X106004494Y-104125463D01*
X105894180Y-104066498D01*
X105774482Y-104030188D01*
X105650000Y-104017928D01*
X104680750Y-104021000D01*
X104522000Y-104179750D01*
X104268000Y-104179750D01*
X104109250Y-104021000D01*
X103140000Y-104017928D01*
X103015518Y-104030188D01*
X102895820Y-104066498D01*
X102785506Y-104125463D01*
X102688815Y-104204815D01*
X102609463Y-104301506D01*
X102550498Y-104411820D01*
X102514188Y-104531518D01*
X102501928Y-104656000D01*
X100660000Y-104656000D01*
X100660000Y-103752020D01*
X100789250Y-103751000D01*
X100948000Y-103592250D01*
X100948000Y-102596091D01*
X101202000Y-102342091D01*
X101202000Y-103592250D01*
X101360750Y-103751000D01*
X101750000Y-103754072D01*
X101874482Y-103741812D01*
X101994180Y-103705502D01*
X102104494Y-103646537D01*
X102201185Y-103567185D01*
X102280537Y-103470494D01*
X102339502Y-103360180D01*
X102375812Y-103240482D01*
X102388072Y-103116000D01*
X105411928Y-103116000D01*
X105424188Y-103240482D01*
X105460498Y-103360180D01*
X105519463Y-103470494D01*
X105598815Y-103567185D01*
X105695506Y-103646537D01*
X105805820Y-103705502D01*
X105925518Y-103741812D01*
X106050000Y-103754072D01*
X106439250Y-103751000D01*
X106598000Y-103592250D01*
X106598000Y-101143000D01*
X105573750Y-101143000D01*
X105415000Y-101301750D01*
X105411928Y-103116000D01*
X102388072Y-103116000D01*
X102385000Y-101301750D01*
X102313671Y-101230421D01*
X102884092Y-100660000D01*
X105414881Y-100660000D01*
X105415000Y-100730250D01*
%TA.AperFunction,Conductor*%
D22*
G36*
X105415000Y-100730250D02*
G01*
X105573750Y-100889000D01*
X106598000Y-100889000D01*
X106598000Y-100660000D01*
X106852000Y-100660000D01*
X106852000Y-100889000D01*
X106872000Y-100889000D01*
X106872000Y-101143000D01*
X106852000Y-101143000D01*
X106852000Y-103592250D01*
X107010750Y-103751000D01*
X107400000Y-103754072D01*
X107524482Y-103741812D01*
X107644180Y-103705502D01*
X107754494Y-103646537D01*
X107851185Y-103567185D01*
X107930537Y-103470494D01*
X107970343Y-103396023D01*
X108043589Y-103533058D01*
X108154183Y-103667817D01*
X108187956Y-103695534D01*
X108643466Y-104151044D01*
X108671183Y-104184817D01*
X108805941Y-104295411D01*
X108959687Y-104377589D01*
X109126510Y-104428195D01*
X109256523Y-104441000D01*
X109256533Y-104441000D01*
X109299999Y-104445281D01*
X109343465Y-104441000D01*
X115764422Y-104441000D01*
X115783396Y-104459974D01*
X115766953Y-104473468D01*
X115766951Y-104473470D01*
X115733183Y-104501183D01*
X115705470Y-104534951D01*
X113530951Y-106709471D01*
X113497184Y-106737183D01*
X113483722Y-106753586D01*
X113381820Y-106784498D01*
X113271506Y-106843463D01*
X113174815Y-106922815D01*
X113095463Y-107019506D01*
X113036498Y-107129820D01*
X113000188Y-107249518D01*
X112987928Y-107374000D01*
X112987928Y-107532167D01*
X112800329Y-107344568D01*
X112774175Y-107312699D01*
X112647030Y-107208354D01*
X112501971Y-107130818D01*
X112344573Y-107083072D01*
X112221903Y-107070990D01*
X112221902Y-107070990D01*
X112180884Y-107066950D01*
X112139866Y-107070990D01*
X107605761Y-107070990D01*
X107564753Y-107066951D01*
X107523745Y-107070990D01*
X107523735Y-107070990D01*
X107401065Y-107083072D01*
X107243667Y-107130818D01*
X107098608Y-107208354D01*
X106971463Y-107312699D01*
X106945312Y-107344564D01*
X106022555Y-108267322D01*
X105990691Y-108293472D01*
X105964543Y-108325334D01*
X105886345Y-108420618D01*
X105808809Y-108565677D01*
X105761063Y-108723075D01*
X105744941Y-108886763D01*
X105748982Y-108927791D01*
X105748982Y-109107677D01*
X105650000Y-109097928D01*
X105171234Y-109097928D01*
X105083939Y-109080564D01*
X104880061Y-109080564D01*
X104792766Y-109097928D01*
X103140000Y-109097928D01*
X103015518Y-109110188D01*
X102895820Y-109146498D01*
X102785506Y-109205463D01*
X102688815Y-109284815D01*
X102609463Y-109381506D01*
X102550498Y-109491820D01*
X102514188Y-109611518D01*
X102501928Y-109736000D01*
X102501928Y-110736000D01*
X102514188Y-110860482D01*
X102550498Y-110980180D01*
X102609463Y-111090494D01*
X102688815Y-111187185D01*
X102785506Y-111266537D01*
X102895820Y-111325502D01*
X103015518Y-111361812D01*
X103140000Y-111374072D01*
X105650000Y-111374072D01*
X105748981Y-111364324D01*
X105748981Y-112190152D01*
X105715422Y-112223711D01*
X105641774Y-112150063D01*
X105472256Y-112036795D01*
X105283898Y-111958774D01*
X105083939Y-111919000D01*
X104880061Y-111919000D01*
X104680102Y-111958774D01*
X104491744Y-112036795D01*
X104443546Y-112069000D01*
X102940780Y-112069000D01*
X102929502Y-112031820D01*
X102870537Y-111921506D01*
X102791185Y-111824815D01*
X102694494Y-111745463D01*
X102584180Y-111686498D01*
X102464482Y-111650188D01*
X102340000Y-111637928D01*
X100660000Y-111637928D01*
X100660000Y-109925000D01*
X100765939Y-109925000D01*
X100965898Y-109885226D01*
X101154256Y-109807205D01*
X101323774Y-109693937D01*
X101467937Y-109549774D01*
X101581205Y-109380256D01*
X101659226Y-109191898D01*
X101699000Y-108991939D01*
X101699000Y-108834072D01*
X102340000Y-108834072D01*
X102464482Y-108821812D01*
X102584180Y-108785502D01*
X102694494Y-108726537D01*
X102791185Y-108647185D01*
X102870537Y-108550494D01*
X102929502Y-108440180D01*
X102965812Y-108320482D01*
X102978072Y-108196000D01*
X102978072Y-107196000D01*
X102965812Y-107071518D01*
X102929502Y-106951820D01*
X102870537Y-106841506D01*
X102791185Y-106744815D01*
X102694494Y-106665463D01*
X102584180Y-106606498D01*
X102464482Y-106570188D01*
X102340000Y-106557928D01*
X100660000Y-106557928D01*
X100660000Y-105656000D01*
X102501928Y-105656000D01*
X102514188Y-105780482D01*
X102550498Y-105900180D01*
X102609463Y-106010494D01*
X102688815Y-106107185D01*
X102785506Y-106186537D01*
X102895820Y-106245502D01*
X103015518Y-106281812D01*
X103140000Y-106294072D01*
X104109250Y-106291000D01*
X104268000Y-106132250D01*
X104268000Y-105283000D01*
X104522000Y-105283000D01*
X104522000Y-106132250D01*
X104680750Y-106291000D01*
X105650000Y-106294072D01*
X105774482Y-106281812D01*
X105894180Y-106245502D01*
X106004494Y-106186537D01*
X106101185Y-106107185D01*
X106180537Y-106010494D01*
X106239502Y-105900180D01*
X106275812Y-105780482D01*
X106288072Y-105656000D01*
X106285000Y-105441750D01*
X106126250Y-105283000D01*
X104522000Y-105283000D01*
X104268000Y-105283000D01*
X102663750Y-105283000D01*
X102505000Y-105441750D01*
X102501928Y-105656000D01*
X100660000Y-105656000D01*
X100660000Y-104656000D01*
X102501928Y-104656000D01*
X102505000Y-104870250D01*
X102663750Y-105029000D01*
X104268000Y-105029000D01*
X104268000Y-104179750D01*
X104522000Y-104179750D01*
X104522000Y-105029000D01*
X106126250Y-105029000D01*
X106285000Y-104870250D01*
X106288072Y-104656000D01*
X106275812Y-104531518D01*
X106239502Y-104411820D01*
X106180537Y-104301506D01*
X106101185Y-104204815D01*
X106004494Y-104125463D01*
X105894180Y-104066498D01*
X105774482Y-104030188D01*
X105650000Y-104017928D01*
X104680750Y-104021000D01*
X104522000Y-104179750D01*
X104268000Y-104179750D01*
X104109250Y-104021000D01*
X103140000Y-104017928D01*
X103015518Y-104030188D01*
X102895820Y-104066498D01*
X102785506Y-104125463D01*
X102688815Y-104204815D01*
X102609463Y-104301506D01*
X102550498Y-104411820D01*
X102514188Y-104531518D01*
X102501928Y-104656000D01*
X100660000Y-104656000D01*
X100660000Y-103752020D01*
X100789250Y-103751000D01*
X100948000Y-103592250D01*
X100948000Y-102596091D01*
X101202000Y-102342091D01*
X101202000Y-103592250D01*
X101360750Y-103751000D01*
X101750000Y-103754072D01*
X101874482Y-103741812D01*
X101994180Y-103705502D01*
X102104494Y-103646537D01*
X102201185Y-103567185D01*
X102280537Y-103470494D01*
X102339502Y-103360180D01*
X102375812Y-103240482D01*
X102388072Y-103116000D01*
X105411928Y-103116000D01*
X105424188Y-103240482D01*
X105460498Y-103360180D01*
X105519463Y-103470494D01*
X105598815Y-103567185D01*
X105695506Y-103646537D01*
X105805820Y-103705502D01*
X105925518Y-103741812D01*
X106050000Y-103754072D01*
X106439250Y-103751000D01*
X106598000Y-103592250D01*
X106598000Y-101143000D01*
X105573750Y-101143000D01*
X105415000Y-101301750D01*
X105411928Y-103116000D01*
X102388072Y-103116000D01*
X102385000Y-101301750D01*
X102313671Y-101230421D01*
X102884092Y-100660000D01*
X105414881Y-100660000D01*
X105415000Y-100730250D01*
G37*
%TD.AperFunction*%
%TD*%
M02*
