%TF.GenerationSoftware,KiCad,Pcbnew,(5.1.10)-1*%
%TF.CreationDate,2022-02-17T21:59:24+01:00*%
%TF.ProjectId,TinyLora102,54696e79-4c6f-4726-9131-30322e6b6963,rev?*%
%TF.SameCoordinates,Original*%
%TF.FileFunction,Paste,Top*%
%TF.FilePolarity,Positive*%
%FSLAX46Y46*%
G04 Gerber Fmt 4.6, Leading zero omitted, Abs format (unit mm)*
G04 Created by KiCad (PCBNEW (5.1.10)-1) date 2022-02-17 21:59:24*
%MOMM*%
%LPD*%
G01*
G04 APERTURE LIST*
%ADD10R,2.000000X1.000000*%
%ADD11R,1.200000X0.900000*%
%ADD12R,1.270000X3.600000*%
%ADD13R,1.350000X4.200000*%
%ADD14R,1.500000X1.000000*%
G04 APERTURE END LIST*
%TO.C,Je*%
G36*
G01*
X122418000Y-120885000D02*
X120218000Y-120885000D01*
G75*
G02*
X119968000Y-120635000I0J250000D01*
G01*
X119968000Y-120135000D01*
G75*
G02*
X120218000Y-119885000I250000J0D01*
G01*
X122418000Y-119885000D01*
G75*
G02*
X122668000Y-120135000I0J-250000D01*
G01*
X122668000Y-120635000D01*
G75*
G02*
X122418000Y-120885000I-250000J0D01*
G01*
G37*
G36*
G01*
X122418000Y-125835000D02*
X120218000Y-125835000D01*
G75*
G02*
X119968000Y-125585000I0J250000D01*
G01*
X119968000Y-125085000D01*
G75*
G02*
X120218000Y-124835000I250000J0D01*
G01*
X122418000Y-124835000D01*
G75*
G02*
X122668000Y-125085000I0J-250000D01*
G01*
X122668000Y-125585000D01*
G75*
G02*
X122418000Y-125835000I-250000J0D01*
G01*
G37*
G36*
G01*
X118818000Y-122535000D02*
X117418000Y-122535000D01*
G75*
G02*
X117268000Y-122385000I0J150000D01*
G01*
X117268000Y-122085000D01*
G75*
G02*
X117418000Y-121935000I150000J0D01*
G01*
X118818000Y-121935000D01*
G75*
G02*
X118968000Y-122085000I0J-150000D01*
G01*
X118968000Y-122385000D01*
G75*
G02*
X118818000Y-122535000I-150000J0D01*
G01*
G37*
G36*
G01*
X118818000Y-123785000D02*
X117418000Y-123785000D01*
G75*
G02*
X117268000Y-123635000I0J150000D01*
G01*
X117268000Y-123335000D01*
G75*
G02*
X117418000Y-123185000I150000J0D01*
G01*
X118818000Y-123185000D01*
G75*
G02*
X118968000Y-123335000I0J-150000D01*
G01*
X118968000Y-123635000D01*
G75*
G02*
X118818000Y-123785000I-150000J0D01*
G01*
G37*
%TD*%
D10*
%TO.C,RFM95*%
X103078000Y-118800000D03*
X103078000Y-116800000D03*
X103078000Y-114800000D03*
X103078000Y-112800000D03*
X103078000Y-110800000D03*
X103078000Y-108800000D03*
X103078000Y-106800000D03*
X103078000Y-104800000D03*
X119078000Y-104800000D03*
X119078000Y-106800000D03*
X119078000Y-108800000D03*
X119078000Y-110800000D03*
X119078000Y-112800000D03*
X119078000Y-114800000D03*
X119078000Y-116800000D03*
X119078000Y-118800000D03*
%TD*%
D11*
%TO.C,D1*%
X108966000Y-121464000D03*
X108966000Y-124764000D03*
%TD*%
%TO.C,D3*%
X101854000Y-121464000D03*
X101854000Y-124764000D03*
%TD*%
%TO.C,D2*%
X105156000Y-121464000D03*
X105156000Y-124764000D03*
%TD*%
D12*
%TO.C,AE1*%
X103900000Y-100816000D03*
D13*
X101075000Y-101016000D03*
X106725000Y-101016000D03*
%TD*%
D14*
%TO.C,D5*%
X109898000Y-131928000D03*
X109898000Y-135128000D03*
X114798000Y-131928000D03*
X114798000Y-135128000D03*
%TD*%
D11*
%TO.C,D4*%
X114888000Y-126290000D03*
X114888000Y-129590000D03*
%TD*%
%TO.C,R2*%
G36*
G01*
X110881999Y-124326000D02*
X111782001Y-124326000D01*
G75*
G02*
X112032000Y-124575999I0J-249999D01*
G01*
X112032000Y-125226001D01*
G75*
G02*
X111782001Y-125476000I-249999J0D01*
G01*
X110881999Y-125476000D01*
G75*
G02*
X110632000Y-125226001I0J249999D01*
G01*
X110632000Y-124575999D01*
G75*
G02*
X110881999Y-124326000I249999J0D01*
G01*
G37*
G36*
G01*
X110881999Y-122276000D02*
X111782001Y-122276000D01*
G75*
G02*
X112032000Y-122525999I0J-249999D01*
G01*
X112032000Y-123176001D01*
G75*
G02*
X111782001Y-123426000I-249999J0D01*
G01*
X110881999Y-123426000D01*
G75*
G02*
X110632000Y-123176001I0J249999D01*
G01*
X110632000Y-122525999D01*
G75*
G02*
X110881999Y-122276000I249999J0D01*
G01*
G37*
%TD*%
M02*
