%TF.GenerationSoftware,KiCad,Pcbnew,(5.1.10)-1*%
%TF.CreationDate,2022-02-17T21:59:24+01:00*%
%TF.ProjectId,TinyLora102,54696e79-4c6f-4726-9131-30322e6b6963,rev?*%
%TF.SameCoordinates,Original*%
%TF.FileFunction,Soldermask,Bot*%
%TF.FilePolarity,Negative*%
%FSLAX46Y46*%
G04 Gerber Fmt 4.6, Leading zero omitted, Abs format (unit mm)*
G04 Created by KiCad (PCBNEW (5.1.10)-1) date 2022-02-17 21:59:24*
%MOMM*%
%LPD*%
G01*
G04 APERTURE LIST*
%ADD10O,1.000000X1.000000*%
%ADD11R,1.000000X1.000000*%
%ADD12R,1.350000X4.200000*%
%ADD13O,1.700000X1.700000*%
%ADD14R,1.700000X1.700000*%
%ADD15R,2.510000X1.000000*%
G04 APERTURE END LIST*
D10*
%TO.C,J6*%
X114126000Y-116764000D03*
X114126000Y-115494000D03*
X114126000Y-114224000D03*
X114126000Y-112954000D03*
X114126000Y-111684000D03*
X114126000Y-110414000D03*
X114126000Y-109144000D03*
D11*
X114126000Y-107874000D03*
%TD*%
D12*
%TO.C,AE1*%
X101075000Y-101016000D03*
X106725000Y-101016000D03*
%TD*%
%TO.C,D6*%
G36*
G01*
X109358000Y-101073999D02*
X109358000Y-101974001D01*
G75*
G02*
X109108001Y-102224000I-249999J0D01*
G01*
X108457999Y-102224000D01*
G75*
G02*
X108208000Y-101974001I0J249999D01*
G01*
X108208000Y-101073999D01*
G75*
G02*
X108457999Y-100824000I249999J0D01*
G01*
X109108001Y-100824000D01*
G75*
G02*
X109358000Y-101073999I0J-249999D01*
G01*
G37*
G36*
G01*
X111408000Y-101073999D02*
X111408000Y-101974001D01*
G75*
G02*
X111158001Y-102224000I-249999J0D01*
G01*
X110507999Y-102224000D01*
G75*
G02*
X110258000Y-101974001I0J249999D01*
G01*
X110258000Y-101073999D01*
G75*
G02*
X110507999Y-100824000I249999J0D01*
G01*
X111158001Y-100824000D01*
G75*
G02*
X111408000Y-101073999I0J-249999D01*
G01*
G37*
%TD*%
%TO.C,R8*%
G36*
G01*
X113422000Y-101073999D02*
X113422000Y-101974001D01*
G75*
G02*
X113172001Y-102224000I-249999J0D01*
G01*
X112521999Y-102224000D01*
G75*
G02*
X112272000Y-101974001I0J249999D01*
G01*
X112272000Y-101073999D01*
G75*
G02*
X112521999Y-100824000I249999J0D01*
G01*
X113172001Y-100824000D01*
G75*
G02*
X113422000Y-101073999I0J-249999D01*
G01*
G37*
G36*
G01*
X115472000Y-101073999D02*
X115472000Y-101974001D01*
G75*
G02*
X115222001Y-102224000I-249999J0D01*
G01*
X114571999Y-102224000D01*
G75*
G02*
X114322000Y-101974001I0J249999D01*
G01*
X114322000Y-101073999D01*
G75*
G02*
X114571999Y-100824000I249999J0D01*
G01*
X115222001Y-100824000D01*
G75*
G02*
X115472000Y-101073999I0J-249999D01*
G01*
G37*
%TD*%
%TO.C,PAM8403*%
G36*
G01*
X106483000Y-130644000D02*
X106783000Y-130644000D01*
G75*
G02*
X106933000Y-130794000I0J-150000D01*
G01*
X106933000Y-132094000D01*
G75*
G02*
X106783000Y-132244000I-150000J0D01*
G01*
X106483000Y-132244000D01*
G75*
G02*
X106333000Y-132094000I0J150000D01*
G01*
X106333000Y-130794000D01*
G75*
G02*
X106483000Y-130644000I150000J0D01*
G01*
G37*
G36*
G01*
X107753000Y-130644000D02*
X108053000Y-130644000D01*
G75*
G02*
X108203000Y-130794000I0J-150000D01*
G01*
X108203000Y-132094000D01*
G75*
G02*
X108053000Y-132244000I-150000J0D01*
G01*
X107753000Y-132244000D01*
G75*
G02*
X107603000Y-132094000I0J150000D01*
G01*
X107603000Y-130794000D01*
G75*
G02*
X107753000Y-130644000I150000J0D01*
G01*
G37*
G36*
G01*
X109023000Y-130644000D02*
X109323000Y-130644000D01*
G75*
G02*
X109473000Y-130794000I0J-150000D01*
G01*
X109473000Y-132094000D01*
G75*
G02*
X109323000Y-132244000I-150000J0D01*
G01*
X109023000Y-132244000D01*
G75*
G02*
X108873000Y-132094000I0J150000D01*
G01*
X108873000Y-130794000D01*
G75*
G02*
X109023000Y-130644000I150000J0D01*
G01*
G37*
G36*
G01*
X110293000Y-130644000D02*
X110593000Y-130644000D01*
G75*
G02*
X110743000Y-130794000I0J-150000D01*
G01*
X110743000Y-132094000D01*
G75*
G02*
X110593000Y-132244000I-150000J0D01*
G01*
X110293000Y-132244000D01*
G75*
G02*
X110143000Y-132094000I0J150000D01*
G01*
X110143000Y-130794000D01*
G75*
G02*
X110293000Y-130644000I150000J0D01*
G01*
G37*
G36*
G01*
X111563000Y-130644000D02*
X111863000Y-130644000D01*
G75*
G02*
X112013000Y-130794000I0J-150000D01*
G01*
X112013000Y-132094000D01*
G75*
G02*
X111863000Y-132244000I-150000J0D01*
G01*
X111563000Y-132244000D01*
G75*
G02*
X111413000Y-132094000I0J150000D01*
G01*
X111413000Y-130794000D01*
G75*
G02*
X111563000Y-130644000I150000J0D01*
G01*
G37*
G36*
G01*
X112833000Y-130644000D02*
X113133000Y-130644000D01*
G75*
G02*
X113283000Y-130794000I0J-150000D01*
G01*
X113283000Y-132094000D01*
G75*
G02*
X113133000Y-132244000I-150000J0D01*
G01*
X112833000Y-132244000D01*
G75*
G02*
X112683000Y-132094000I0J150000D01*
G01*
X112683000Y-130794000D01*
G75*
G02*
X112833000Y-130644000I150000J0D01*
G01*
G37*
G36*
G01*
X114103000Y-130644000D02*
X114403000Y-130644000D01*
G75*
G02*
X114553000Y-130794000I0J-150000D01*
G01*
X114553000Y-132094000D01*
G75*
G02*
X114403000Y-132244000I-150000J0D01*
G01*
X114103000Y-132244000D01*
G75*
G02*
X113953000Y-132094000I0J150000D01*
G01*
X113953000Y-130794000D01*
G75*
G02*
X114103000Y-130644000I150000J0D01*
G01*
G37*
G36*
G01*
X115373000Y-130644000D02*
X115673000Y-130644000D01*
G75*
G02*
X115823000Y-130794000I0J-150000D01*
G01*
X115823000Y-132094000D01*
G75*
G02*
X115673000Y-132244000I-150000J0D01*
G01*
X115373000Y-132244000D01*
G75*
G02*
X115223000Y-132094000I0J150000D01*
G01*
X115223000Y-130794000D01*
G75*
G02*
X115373000Y-130644000I150000J0D01*
G01*
G37*
G36*
G01*
X115373000Y-124144000D02*
X115673000Y-124144000D01*
G75*
G02*
X115823000Y-124294000I0J-150000D01*
G01*
X115823000Y-125594000D01*
G75*
G02*
X115673000Y-125744000I-150000J0D01*
G01*
X115373000Y-125744000D01*
G75*
G02*
X115223000Y-125594000I0J150000D01*
G01*
X115223000Y-124294000D01*
G75*
G02*
X115373000Y-124144000I150000J0D01*
G01*
G37*
G36*
G01*
X114103000Y-124144000D02*
X114403000Y-124144000D01*
G75*
G02*
X114553000Y-124294000I0J-150000D01*
G01*
X114553000Y-125594000D01*
G75*
G02*
X114403000Y-125744000I-150000J0D01*
G01*
X114103000Y-125744000D01*
G75*
G02*
X113953000Y-125594000I0J150000D01*
G01*
X113953000Y-124294000D01*
G75*
G02*
X114103000Y-124144000I150000J0D01*
G01*
G37*
G36*
G01*
X112833000Y-124144000D02*
X113133000Y-124144000D01*
G75*
G02*
X113283000Y-124294000I0J-150000D01*
G01*
X113283000Y-125594000D01*
G75*
G02*
X113133000Y-125744000I-150000J0D01*
G01*
X112833000Y-125744000D01*
G75*
G02*
X112683000Y-125594000I0J150000D01*
G01*
X112683000Y-124294000D01*
G75*
G02*
X112833000Y-124144000I150000J0D01*
G01*
G37*
G36*
G01*
X111563000Y-124144000D02*
X111863000Y-124144000D01*
G75*
G02*
X112013000Y-124294000I0J-150000D01*
G01*
X112013000Y-125594000D01*
G75*
G02*
X111863000Y-125744000I-150000J0D01*
G01*
X111563000Y-125744000D01*
G75*
G02*
X111413000Y-125594000I0J150000D01*
G01*
X111413000Y-124294000D01*
G75*
G02*
X111563000Y-124144000I150000J0D01*
G01*
G37*
G36*
G01*
X110293000Y-124144000D02*
X110593000Y-124144000D01*
G75*
G02*
X110743000Y-124294000I0J-150000D01*
G01*
X110743000Y-125594000D01*
G75*
G02*
X110593000Y-125744000I-150000J0D01*
G01*
X110293000Y-125744000D01*
G75*
G02*
X110143000Y-125594000I0J150000D01*
G01*
X110143000Y-124294000D01*
G75*
G02*
X110293000Y-124144000I150000J0D01*
G01*
G37*
G36*
G01*
X109023000Y-124144000D02*
X109323000Y-124144000D01*
G75*
G02*
X109473000Y-124294000I0J-150000D01*
G01*
X109473000Y-125594000D01*
G75*
G02*
X109323000Y-125744000I-150000J0D01*
G01*
X109023000Y-125744000D01*
G75*
G02*
X108873000Y-125594000I0J150000D01*
G01*
X108873000Y-124294000D01*
G75*
G02*
X109023000Y-124144000I150000J0D01*
G01*
G37*
G36*
G01*
X107753000Y-124144000D02*
X108053000Y-124144000D01*
G75*
G02*
X108203000Y-124294000I0J-150000D01*
G01*
X108203000Y-125594000D01*
G75*
G02*
X108053000Y-125744000I-150000J0D01*
G01*
X107753000Y-125744000D01*
G75*
G02*
X107603000Y-125594000I0J150000D01*
G01*
X107603000Y-124294000D01*
G75*
G02*
X107753000Y-124144000I150000J0D01*
G01*
G37*
G36*
G01*
X106483000Y-124144000D02*
X106783000Y-124144000D01*
G75*
G02*
X106933000Y-124294000I0J-150000D01*
G01*
X106933000Y-125594000D01*
G75*
G02*
X106783000Y-125744000I-150000J0D01*
G01*
X106483000Y-125744000D01*
G75*
G02*
X106333000Y-125594000I0J150000D01*
G01*
X106333000Y-124294000D01*
G75*
G02*
X106483000Y-124144000I150000J0D01*
G01*
G37*
%TD*%
%TO.C,R7*%
G36*
G01*
X111898000Y-122409999D02*
X111898000Y-123310001D01*
G75*
G02*
X111648001Y-123560000I-249999J0D01*
G01*
X110997999Y-123560000D01*
G75*
G02*
X110748000Y-123310001I0J249999D01*
G01*
X110748000Y-122409999D01*
G75*
G02*
X110997999Y-122160000I249999J0D01*
G01*
X111648001Y-122160000D01*
G75*
G02*
X111898000Y-122409999I0J-249999D01*
G01*
G37*
G36*
G01*
X113948000Y-122409999D02*
X113948000Y-123310001D01*
G75*
G02*
X113698001Y-123560000I-249999J0D01*
G01*
X113047999Y-123560000D01*
G75*
G02*
X112798000Y-123310001I0J249999D01*
G01*
X112798000Y-122409999D01*
G75*
G02*
X113047999Y-122160000I249999J0D01*
G01*
X113698001Y-122160000D01*
G75*
G02*
X113948000Y-122409999I0J-249999D01*
G01*
G37*
%TD*%
%TO.C,R6*%
G36*
G01*
X111136000Y-133077999D02*
X111136000Y-133978001D01*
G75*
G02*
X110886001Y-134228000I-249999J0D01*
G01*
X110235999Y-134228000D01*
G75*
G02*
X109986000Y-133978001I0J249999D01*
G01*
X109986000Y-133077999D01*
G75*
G02*
X110235999Y-132828000I249999J0D01*
G01*
X110886001Y-132828000D01*
G75*
G02*
X111136000Y-133077999I0J-249999D01*
G01*
G37*
G36*
G01*
X113186000Y-133077999D02*
X113186000Y-133978001D01*
G75*
G02*
X112936001Y-134228000I-249999J0D01*
G01*
X112285999Y-134228000D01*
G75*
G02*
X112036000Y-133978001I0J249999D01*
G01*
X112036000Y-133077999D01*
G75*
G02*
X112285999Y-132828000I249999J0D01*
G01*
X112936001Y-132828000D01*
G75*
G02*
X113186000Y-133077999I0J-249999D01*
G01*
G37*
%TD*%
%TO.C,R5*%
G36*
G01*
X114945999Y-135248000D02*
X115846001Y-135248000D01*
G75*
G02*
X116096000Y-135497999I0J-249999D01*
G01*
X116096000Y-136148001D01*
G75*
G02*
X115846001Y-136398000I-249999J0D01*
G01*
X114945999Y-136398000D01*
G75*
G02*
X114696000Y-136148001I0J249999D01*
G01*
X114696000Y-135497999D01*
G75*
G02*
X114945999Y-135248000I249999J0D01*
G01*
G37*
G36*
G01*
X114945999Y-133198000D02*
X115846001Y-133198000D01*
G75*
G02*
X116096000Y-133447999I0J-249999D01*
G01*
X116096000Y-134098001D01*
G75*
G02*
X115846001Y-134348000I-249999J0D01*
G01*
X114945999Y-134348000D01*
G75*
G02*
X114696000Y-134098001I0J249999D01*
G01*
X114696000Y-133447999D01*
G75*
G02*
X114945999Y-133198000I249999J0D01*
G01*
G37*
%TD*%
%TO.C,R1*%
G36*
G01*
X113306000Y-119246001D02*
X113306000Y-118345999D01*
G75*
G02*
X113555999Y-118096000I249999J0D01*
G01*
X114206001Y-118096000D01*
G75*
G02*
X114456000Y-118345999I0J-249999D01*
G01*
X114456000Y-119246001D01*
G75*
G02*
X114206001Y-119496000I-249999J0D01*
G01*
X113555999Y-119496000D01*
G75*
G02*
X113306000Y-119246001I0J249999D01*
G01*
G37*
G36*
G01*
X111256000Y-119246001D02*
X111256000Y-118345999D01*
G75*
G02*
X111505999Y-118096000I249999J0D01*
G01*
X112156001Y-118096000D01*
G75*
G02*
X112406000Y-118345999I0J-249999D01*
G01*
X112406000Y-119246001D01*
G75*
G02*
X112156001Y-119496000I-249999J0D01*
G01*
X111505999Y-119496000D01*
G75*
G02*
X111256000Y-119246001I0J249999D01*
G01*
G37*
%TD*%
D13*
%TO.C,J5*%
X102442000Y-135120000D03*
X102442000Y-132580000D03*
X102442000Y-130040000D03*
D14*
X102442000Y-127500000D03*
%TD*%
%TO.C,C7*%
G36*
G01*
X112798000Y-121278001D02*
X112798000Y-120377999D01*
G75*
G02*
X113047999Y-120128000I249999J0D01*
G01*
X113698001Y-120128000D01*
G75*
G02*
X113948000Y-120377999I0J-249999D01*
G01*
X113948000Y-121278001D01*
G75*
G02*
X113698001Y-121528000I-249999J0D01*
G01*
X113047999Y-121528000D01*
G75*
G02*
X112798000Y-121278001I0J249999D01*
G01*
G37*
G36*
G01*
X110748000Y-121278001D02*
X110748000Y-120377999D01*
G75*
G02*
X110997999Y-120128000I249999J0D01*
G01*
X111648001Y-120128000D01*
G75*
G02*
X111898000Y-120377999I0J-249999D01*
G01*
X111898000Y-121278001D01*
G75*
G02*
X111648001Y-121528000I-249999J0D01*
G01*
X110997999Y-121528000D01*
G75*
G02*
X110748000Y-121278001I0J249999D01*
G01*
G37*
%TD*%
%TO.C,C6*%
G36*
G01*
X107326000Y-133077999D02*
X107326000Y-133978001D01*
G75*
G02*
X107076001Y-134228000I-249999J0D01*
G01*
X106425999Y-134228000D01*
G75*
G02*
X106176000Y-133978001I0J249999D01*
G01*
X106176000Y-133077999D01*
G75*
G02*
X106425999Y-132828000I249999J0D01*
G01*
X107076001Y-132828000D01*
G75*
G02*
X107326000Y-133077999I0J-249999D01*
G01*
G37*
G36*
G01*
X109376000Y-133077999D02*
X109376000Y-133978001D01*
G75*
G02*
X109126001Y-134228000I-249999J0D01*
G01*
X108475999Y-134228000D01*
G75*
G02*
X108226000Y-133978001I0J249999D01*
G01*
X108226000Y-133077999D01*
G75*
G02*
X108475999Y-132828000I249999J0D01*
G01*
X109126001Y-132828000D01*
G75*
G02*
X109376000Y-133077999I0J-249999D01*
G01*
G37*
%TD*%
%TO.C,C5*%
G36*
G01*
X119656000Y-123818001D02*
X119656000Y-122917999D01*
G75*
G02*
X119905999Y-122668000I249999J0D01*
G01*
X120556001Y-122668000D01*
G75*
G02*
X120806000Y-122917999I0J-249999D01*
G01*
X120806000Y-123818001D01*
G75*
G02*
X120556001Y-124068000I-249999J0D01*
G01*
X119905999Y-124068000D01*
G75*
G02*
X119656000Y-123818001I0J249999D01*
G01*
G37*
G36*
G01*
X117606000Y-123818001D02*
X117606000Y-122917999D01*
G75*
G02*
X117855999Y-122668000I249999J0D01*
G01*
X118506001Y-122668000D01*
G75*
G02*
X118756000Y-122917999I0J-249999D01*
G01*
X118756000Y-123818001D01*
G75*
G02*
X118506001Y-124068000I-249999J0D01*
G01*
X117855999Y-124068000D01*
G75*
G02*
X117606000Y-123818001I0J249999D01*
G01*
G37*
%TD*%
%TO.C,C4*%
G36*
G01*
X112798000Y-136264001D02*
X112798000Y-135363999D01*
G75*
G02*
X113047999Y-135114000I249999J0D01*
G01*
X113698001Y-135114000D01*
G75*
G02*
X113948000Y-135363999I0J-249999D01*
G01*
X113948000Y-136264001D01*
G75*
G02*
X113698001Y-136514000I-249999J0D01*
G01*
X113047999Y-136514000D01*
G75*
G02*
X112798000Y-136264001I0J249999D01*
G01*
G37*
G36*
G01*
X110748000Y-136264001D02*
X110748000Y-135363999D01*
G75*
G02*
X110997999Y-135114000I249999J0D01*
G01*
X111648001Y-135114000D01*
G75*
G02*
X111898000Y-135363999I0J-249999D01*
G01*
X111898000Y-136264001D01*
G75*
G02*
X111648001Y-136514000I-249999J0D01*
G01*
X110997999Y-136514000D01*
G75*
G02*
X110748000Y-136264001I0J249999D01*
G01*
G37*
%TD*%
%TO.C,C3*%
G36*
G01*
X107834000Y-117329999D02*
X107834000Y-118230001D01*
G75*
G02*
X107584001Y-118480000I-249999J0D01*
G01*
X106933999Y-118480000D01*
G75*
G02*
X106684000Y-118230001I0J249999D01*
G01*
X106684000Y-117329999D01*
G75*
G02*
X106933999Y-117080000I249999J0D01*
G01*
X107584001Y-117080000D01*
G75*
G02*
X107834000Y-117329999I0J-249999D01*
G01*
G37*
G36*
G01*
X109884000Y-117329999D02*
X109884000Y-118230001D01*
G75*
G02*
X109634001Y-118480000I-249999J0D01*
G01*
X108983999Y-118480000D01*
G75*
G02*
X108734000Y-118230001I0J249999D01*
G01*
X108734000Y-117329999D01*
G75*
G02*
X108983999Y-117080000I249999J0D01*
G01*
X109634001Y-117080000D01*
G75*
G02*
X109884000Y-117329999I0J-249999D01*
G01*
G37*
%TD*%
D13*
%TO.C,J1*%
X119968000Y-135120000D03*
X119968000Y-132580000D03*
X119968000Y-130040000D03*
D14*
X119968000Y-127500000D03*
%TD*%
%TO.C,R4*%
G36*
G01*
X110119999Y-110356000D02*
X111020001Y-110356000D01*
G75*
G02*
X111270000Y-110605999I0J-249999D01*
G01*
X111270000Y-111256001D01*
G75*
G02*
X111020001Y-111506000I-249999J0D01*
G01*
X110119999Y-111506000D01*
G75*
G02*
X109870000Y-111256001I0J249999D01*
G01*
X109870000Y-110605999D01*
G75*
G02*
X110119999Y-110356000I249999J0D01*
G01*
G37*
G36*
G01*
X110119999Y-108306000D02*
X111020001Y-108306000D01*
G75*
G02*
X111270000Y-108555999I0J-249999D01*
G01*
X111270000Y-109206001D01*
G75*
G02*
X111020001Y-109456000I-249999J0D01*
G01*
X110119999Y-109456000D01*
G75*
G02*
X109870000Y-109206001I0J249999D01*
G01*
X109870000Y-108555999D01*
G75*
G02*
X110119999Y-108306000I249999J0D01*
G01*
G37*
%TD*%
%TO.C,R3*%
G36*
G01*
X108734001Y-109456000D02*
X107833999Y-109456000D01*
G75*
G02*
X107584000Y-109206001I0J249999D01*
G01*
X107584000Y-108555999D01*
G75*
G02*
X107833999Y-108306000I249999J0D01*
G01*
X108734001Y-108306000D01*
G75*
G02*
X108984000Y-108555999I0J-249999D01*
G01*
X108984000Y-109206001D01*
G75*
G02*
X108734001Y-109456000I-249999J0D01*
G01*
G37*
G36*
G01*
X108734001Y-111506000D02*
X107833999Y-111506000D01*
G75*
G02*
X107584000Y-111256001I0J249999D01*
G01*
X107584000Y-110605999D01*
G75*
G02*
X107833999Y-110356000I249999J0D01*
G01*
X108734001Y-110356000D01*
G75*
G02*
X108984000Y-110605999I0J-249999D01*
G01*
X108984000Y-111256001D01*
G75*
G02*
X108734001Y-111506000I-249999J0D01*
G01*
G37*
%TD*%
D15*
%TO.C,J4*%
X117705000Y-120370000D03*
X117705000Y-115290000D03*
X117705000Y-110210000D03*
X117705000Y-105130000D03*
X121015000Y-117830000D03*
X121015000Y-112750000D03*
X121015000Y-107670000D03*
X121015000Y-102590000D03*
%TD*%
%TO.C,J3*%
X101085000Y-117856000D03*
X101085000Y-112776000D03*
X101085000Y-107696000D03*
X104395000Y-120396000D03*
X104395000Y-115316000D03*
X104395000Y-110236000D03*
X104395000Y-105156000D03*
%TD*%
%TO.C,C2*%
G36*
G01*
X109750000Y-115690001D02*
X109750000Y-114789999D01*
G75*
G02*
X109999999Y-114540000I249999J0D01*
G01*
X110650001Y-114540000D01*
G75*
G02*
X110900000Y-114789999I0J-249999D01*
G01*
X110900000Y-115690001D01*
G75*
G02*
X110650001Y-115940000I-249999J0D01*
G01*
X109999999Y-115940000D01*
G75*
G02*
X109750000Y-115690001I0J249999D01*
G01*
G37*
G36*
G01*
X107700000Y-115690001D02*
X107700000Y-114789999D01*
G75*
G02*
X107949999Y-114540000I249999J0D01*
G01*
X108600001Y-114540000D01*
G75*
G02*
X108850000Y-114789999I0J-249999D01*
G01*
X108850000Y-115690001D01*
G75*
G02*
X108600001Y-115940000I-249999J0D01*
G01*
X107949999Y-115940000D01*
G75*
G02*
X107700000Y-115690001I0J249999D01*
G01*
G37*
%TD*%
%TO.C,C1*%
G36*
G01*
X108850000Y-112579999D02*
X108850000Y-113480001D01*
G75*
G02*
X108600001Y-113730000I-249999J0D01*
G01*
X107949999Y-113730000D01*
G75*
G02*
X107700000Y-113480001I0J249999D01*
G01*
X107700000Y-112579999D01*
G75*
G02*
X107949999Y-112330000I249999J0D01*
G01*
X108600001Y-112330000D01*
G75*
G02*
X108850000Y-112579999I0J-249999D01*
G01*
G37*
G36*
G01*
X110900000Y-112579999D02*
X110900000Y-113480001D01*
G75*
G02*
X110650001Y-113730000I-249999J0D01*
G01*
X109999999Y-113730000D01*
G75*
G02*
X109750000Y-113480001I0J249999D01*
G01*
X109750000Y-112579999D01*
G75*
G02*
X109999999Y-112330000I249999J0D01*
G01*
X110650001Y-112330000D01*
G75*
G02*
X110900000Y-112579999I0J-249999D01*
G01*
G37*
%TD*%
M02*
