M48
; DRILL file {KiCad (5.1.10)-1} date 02/17/22 21:59:27
; FORMAT={-:-/ absolute / inch / decimal}
; #@! TF.CreationDate,2022-02-17T21:59:27+01:00
; #@! TF.GenerationSoftware,Kicad,Pcbnew,(5.1.10)-1
FMAT,2
INCH
T1C0.0157
T2C0.0256
T3C0.0394
%
G90
G05
T1
X3.9631Y-4.287
X3.9731Y-4.117
X4.0831Y-4.867
X4.103Y-4.9669
X4.1331Y-4.3353
X4.1331Y-4.447
X4.1731Y-4.227
X4.2008Y-4.9882
X4.2031Y-4.097
X4.2628Y-4.4974
X4.2631Y-5.107
X4.3531Y-4.2867
X4.4231Y-4.797
X4.4331Y-4.397
X4.4331Y-4.537
X4.4331Y-5.057
X4.4431Y-5.137
X4.5131Y-4.137
X4.6231Y-5.187
X4.6331Y-5.347
X4.6831Y-4.927
X4.7031Y-4.787
X4.7231Y-4.397
X4.7431Y-4.287
X4.7431Y-4.527
X4.7731Y-4.107
T2
X4.4931Y-4.247
X4.4931Y-4.297
X4.4931Y-4.347
X4.4931Y-4.397
X4.4931Y-4.447
X4.4931Y-4.497
X4.4931Y-4.547
X4.4931Y-4.597
T3
X4.0331Y-5.0197
X4.0331Y-5.1197
X4.0331Y-5.2197
X4.0331Y-5.3197
X4.7231Y-5.0197
X4.7231Y-5.1197
X4.7231Y-5.2197
X4.7231Y-5.3197
T0
M30
