%TF.GenerationSoftware,KiCad,Pcbnew,(5.1.10)-1*%
%TF.CreationDate,2022-02-17T21:59:23+01:00*%
%TF.ProjectId,TinyLora102,54696e79-4c6f-4726-9131-30322e6b6963,rev?*%
%TF.SameCoordinates,Original*%
%TF.FileFunction,Copper,L1,Top*%
%TF.FilePolarity,Positive*%
%FSLAX46Y46*%
G04 Gerber Fmt 4.6, Leading zero omitted, Abs format (unit mm)*
G04 Created by KiCad (PCBNEW (5.1.10)-1) date 2022-02-17 21:59:23*
%MOMM*%
%LPD*%
G01*
G04 APERTURE LIST*
%TA.AperFunction,ComponentPad*%
%ADD10O,1.000000X1.000000*%
%TD*%
%TA.AperFunction,ComponentPad*%
%ADD11R,1.000000X1.000000*%
%TD*%
%TA.AperFunction,SMDPad,CuDef*%
%ADD12R,2.000000X1.000000*%
%TD*%
%TA.AperFunction,SMDPad,CuDef*%
%ADD13R,1.200000X0.900000*%
%TD*%
%TA.AperFunction,SMDPad,CuDef*%
%ADD14R,1.270000X3.600000*%
%TD*%
%TA.AperFunction,SMDPad,CuDef*%
%ADD15R,1.350000X4.200000*%
%TD*%
%TA.AperFunction,SMDPad,CuDef*%
%ADD16R,2.500000X2.500000*%
%TD*%
%TA.AperFunction,ComponentPad*%
%ADD17O,1.700000X1.700000*%
%TD*%
%TA.AperFunction,ComponentPad*%
%ADD18R,1.700000X1.700000*%
%TD*%
%TA.AperFunction,SMDPad,CuDef*%
%ADD19R,1.500000X1.000000*%
%TD*%
%TA.AperFunction,ViaPad*%
%ADD20C,0.800000*%
%TD*%
%TA.AperFunction,Conductor*%
%ADD21C,0.500000*%
%TD*%
%TA.AperFunction,Conductor*%
%ADD22C,0.400000*%
%TD*%
%TA.AperFunction,Conductor*%
%ADD23C,0.254000*%
%TD*%
%TA.AperFunction,Conductor*%
%ADD24C,0.100000*%
%TD*%
G04 APERTURE END LIST*
%TO.P,Je,MP*%
%TO.N,N/C*%
%TA.AperFunction,SMDPad,CuDef*%
G36*
G01*
X122418000Y-120885000D02*
X120218000Y-120885000D01*
G75*
G02*
X119968000Y-120635000I0J250000D01*
G01*
X119968000Y-120135000D01*
G75*
G02*
X120218000Y-119885000I250000J0D01*
G01*
X122418000Y-119885000D01*
G75*
G02*
X122668000Y-120135000I0J-250000D01*
G01*
X122668000Y-120635000D01*
G75*
G02*
X122418000Y-120885000I-250000J0D01*
G01*
G37*
%TD.AperFunction*%
%TA.AperFunction,SMDPad,CuDef*%
G36*
G01*
X122418000Y-125835000D02*
X120218000Y-125835000D01*
G75*
G02*
X119968000Y-125585000I0J250000D01*
G01*
X119968000Y-125085000D01*
G75*
G02*
X120218000Y-124835000I250000J0D01*
G01*
X122418000Y-124835000D01*
G75*
G02*
X122668000Y-125085000I0J-250000D01*
G01*
X122668000Y-125585000D01*
G75*
G02*
X122418000Y-125835000I-250000J0D01*
G01*
G37*
%TD.AperFunction*%
%TO.P,Je,2*%
%TO.N,GND*%
%TA.AperFunction,SMDPad,CuDef*%
G36*
G01*
X118818000Y-122535000D02*
X117418000Y-122535000D01*
G75*
G02*
X117268000Y-122385000I0J150000D01*
G01*
X117268000Y-122085000D01*
G75*
G02*
X117418000Y-121935000I150000J0D01*
G01*
X118818000Y-121935000D01*
G75*
G02*
X118968000Y-122085000I0J-150000D01*
G01*
X118968000Y-122385000D01*
G75*
G02*
X118818000Y-122535000I-150000J0D01*
G01*
G37*
%TD.AperFunction*%
%TO.P,Je,1*%
%TO.N,+BATT*%
%TA.AperFunction,SMDPad,CuDef*%
G36*
G01*
X118818000Y-123785000D02*
X117418000Y-123785000D01*
G75*
G02*
X117268000Y-123635000I0J150000D01*
G01*
X117268000Y-123335000D01*
G75*
G02*
X117418000Y-123185000I150000J0D01*
G01*
X118818000Y-123185000D01*
G75*
G02*
X118968000Y-123335000I0J-150000D01*
G01*
X118968000Y-123635000D01*
G75*
G02*
X118818000Y-123785000I-150000J0D01*
G01*
G37*
%TD.AperFunction*%
%TD*%
D10*
%TO.P,J6,8*%
%TO.N,GND*%
X114126000Y-116764000D03*
%TO.P,J6,7*%
%TO.N,/GDO2*%
X114126000Y-115494000D03*
%TO.P,J6,6*%
%TO.N,/IO38_MISO*%
X114126000Y-114224000D03*
%TO.P,J6,5*%
%TO.N,/IO18_MOSI*%
X114126000Y-112954000D03*
%TO.P,J6,4*%
%TO.N,/IO32_SCK*%
X114126000Y-111684000D03*
%TO.P,J6,3*%
%TO.N,/IO25*%
X114126000Y-110414000D03*
%TO.P,J6,2*%
%TO.N,/IO26*%
X114126000Y-109144000D03*
D11*
%TO.P,J6,1*%
%TO.N,VDD*%
X114126000Y-107874000D03*
%TD*%
D12*
%TO.P,RFM95,16*%
%TO.N,Net-(D3-Pad2)*%
X103078000Y-118800000D03*
%TO.P,RFM95,15*%
%TO.N,Net-(D2-Pad2)*%
X103078000Y-116800000D03*
%TO.P,RFM95,14*%
%TO.N,Net-(D1-Pad2)*%
X103078000Y-114800000D03*
%TO.P,RFM95,13*%
%TO.N,+3V3*%
X103078000Y-112800000D03*
%TO.P,RFM95,12*%
%TO.N,Net-(RFM95-Pad12)*%
X103078000Y-110800000D03*
%TO.P,RFM95,11*%
%TO.N,Net-(RFM95-Pad11)*%
X103078000Y-108800000D03*
%TO.P,RFM95,10*%
%TO.N,GND*%
X103078000Y-106800000D03*
%TO.P,RFM95,9*%
%TO.N,Net-(AE1-Pad1)*%
X103078000Y-104800000D03*
%TO.P,RFM95,8*%
%TO.N,GND*%
X119078000Y-104800000D03*
%TO.P,RFM95,7*%
%TO.N,Net-(RFM95-Pad7)*%
X119078000Y-106800000D03*
%TO.P,RFM95,6*%
%TO.N,/IO23_RST*%
X119078000Y-108800000D03*
%TO.P,RFM95,5*%
%TO.N,/IO12_NSS*%
X119078000Y-110800000D03*
%TO.P,RFM95,4*%
%TO.N,/IO32_SCK*%
X119078000Y-112800000D03*
%TO.P,RFM95,3*%
%TO.N,/IO18_MOSI*%
X119078000Y-114800000D03*
%TO.P,RFM95,2*%
%TO.N,/IO38_MISO*%
X119078000Y-116800000D03*
%TO.P,RFM95,1*%
%TO.N,GND*%
X119078000Y-118800000D03*
%TD*%
D13*
%TO.P,D1,2*%
%TO.N,Net-(D1-Pad2)*%
X108966000Y-121464000D03*
%TO.P,D1,1*%
%TO.N,/IO33_D0*%
X108966000Y-124764000D03*
%TD*%
%TO.P,D3,2*%
%TO.N,Net-(D3-Pad2)*%
X101854000Y-121464000D03*
%TO.P,D3,1*%
%TO.N,/IO33_D0*%
X101854000Y-124764000D03*
%TD*%
%TO.P,D2,2*%
%TO.N,Net-(D2-Pad2)*%
X105156000Y-121464000D03*
%TO.P,D2,1*%
%TO.N,/IO33_D0*%
X105156000Y-124764000D03*
%TD*%
D14*
%TO.P,AE1,1*%
%TO.N,Net-(AE1-Pad1)*%
X103900000Y-100816000D03*
D15*
%TO.P,AE1,2*%
%TO.N,GND*%
X101075000Y-101016000D03*
X106725000Y-101016000D03*
%TD*%
D16*
%TO.P,J2,1*%
%TO.N,Net-(D5-Pad2)*%
X106760000Y-134798000D03*
%TD*%
D17*
%TO.P,J5,4*%
%TO.N,Net-(J5-Pad4)*%
X102442000Y-135120000D03*
%TO.P,J5,3*%
%TO.N,Net-(J5-Pad3)*%
X102442000Y-132580000D03*
%TO.P,J5,2*%
%TO.N,Net-(J5-Pad2)*%
X102442000Y-130040000D03*
D18*
%TO.P,J5,1*%
%TO.N,Net-(J5-Pad1)*%
X102442000Y-127500000D03*
%TD*%
D19*
%TO.P,D5,1*%
%TO.N,Net-(D4-Pad1)*%
X109898000Y-131928000D03*
%TO.P,D5,2*%
%TO.N,Net-(D5-Pad2)*%
X109898000Y-135128000D03*
%TO.P,D5,4*%
%TO.N,/IO37_LED*%
X114798000Y-131928000D03*
%TO.P,D5,3*%
%TO.N,GND*%
X114798000Y-135128000D03*
%TD*%
D13*
%TO.P,D4,2*%
%TO.N,+5V*%
X114888000Y-126290000D03*
%TO.P,D4,1*%
%TO.N,Net-(D4-Pad1)*%
X114888000Y-129590000D03*
%TD*%
D17*
%TO.P,J1,4*%
%TO.N,/IO25*%
X119968000Y-135120000D03*
%TO.P,J1,3*%
%TO.N,/IO26*%
X119968000Y-132580000D03*
%TO.P,J1,2*%
%TO.N,GND*%
X119968000Y-130040000D03*
D18*
%TO.P,J1,1*%
%TO.N,+5V*%
X119968000Y-127500000D03*
%TD*%
%TO.P,R2,2*%
%TO.N,/IO33_D0*%
%TA.AperFunction,SMDPad,CuDef*%
G36*
G01*
X110881999Y-124326000D02*
X111782001Y-124326000D01*
G75*
G02*
X112032000Y-124575999I0J-249999D01*
G01*
X112032000Y-125226001D01*
G75*
G02*
X111782001Y-125476000I-249999J0D01*
G01*
X110881999Y-125476000D01*
G75*
G02*
X110632000Y-125226001I0J249999D01*
G01*
X110632000Y-124575999D01*
G75*
G02*
X110881999Y-124326000I249999J0D01*
G01*
G37*
%TD.AperFunction*%
%TO.P,R2,1*%
%TO.N,GND*%
%TA.AperFunction,SMDPad,CuDef*%
G36*
G01*
X110881999Y-122276000D02*
X111782001Y-122276000D01*
G75*
G02*
X112032000Y-122525999I0J-249999D01*
G01*
X112032000Y-123176001D01*
G75*
G02*
X111782001Y-123426000I-249999J0D01*
G01*
X110881999Y-123426000D01*
G75*
G02*
X110632000Y-123176001I0J249999D01*
G01*
X110632000Y-122525999D01*
G75*
G02*
X110881999Y-122276000I249999J0D01*
G01*
G37*
%TD.AperFunction*%
%TD*%
D20*
%TO.N,+3V3*%
X108275000Y-114233000D03*
%TO.N,GND*%
X100918000Y-104572000D03*
X108284000Y-129718000D03*
X105998000Y-107366000D03*
X112602000Y-111684000D03*
X114634000Y-105080000D03*
X103712000Y-123622000D03*
X112856000Y-130480000D03*
X117428000Y-131750000D03*
X117682000Y-135814000D03*
X106700000Y-126700000D03*
X112602000Y-128448000D03*
X112602000Y-115240000D03*
X106760000Y-104064000D03*
X118952000Y-125146000D03*
%TO.N,/IO25*%
X104216459Y-126158459D03*
%TO.N,/IO12_NSS*%
X119968000Y-111684000D03*
%TO.N,/IO33_D0*%
X100664000Y-108890000D03*
%TO.N,/IO38_MISO*%
X104982000Y-112954000D03*
%TO.N,/IO23_RST*%
X110570000Y-108881000D03*
X120476000Y-108890000D03*
%TO.N,/IO32_SCK*%
X104982000Y-110115564D03*
%TO.N,/IO18_MOSI*%
X120476000Y-114986000D03*
%TO.N,+5V*%
X112348000Y-121844000D03*
%TO.N,/IO37_LED*%
X121238000Y-104318000D03*
%TO.N,+BATT*%
X119460000Y-121590000D03*
%TD*%
D21*
%TO.N,+3V3*%
X106145999Y-112103999D02*
X108275000Y-114233000D01*
X103912001Y-112103999D02*
X106145999Y-112103999D01*
X103078000Y-112938000D02*
X103912001Y-112103999D01*
%TO.N,GND*%
X108284000Y-128448000D02*
X112602000Y-128448000D01*
X106760000Y-126924000D02*
X108284000Y-128448000D01*
X118220001Y-130957999D02*
X117428000Y-131750000D01*
X117682000Y-135814000D02*
X118081999Y-136213999D01*
X121268001Y-131340001D02*
X119968000Y-130040000D01*
X121268001Y-135744001D02*
X121268001Y-131340001D01*
X120592001Y-136420001D02*
X121268001Y-135744001D01*
X118288001Y-136420001D02*
X120592001Y-136420001D01*
X117682000Y-135814000D02*
X118288001Y-136420001D01*
X121268001Y-130256001D02*
X121492000Y-130032002D01*
X121268001Y-131340001D02*
X121268001Y-130256001D01*
X121492000Y-130032002D02*
X121492000Y-126285010D01*
X121492000Y-126285010D02*
X121492000Y-123341962D01*
X121492000Y-123341962D02*
X120978047Y-122828009D01*
X120978047Y-122828009D02*
X120362019Y-122211981D01*
%TO.N,/IO25*%
X110087997Y-134177999D02*
X119347999Y-134177999D01*
X104216459Y-128306461D02*
X110087997Y-134177999D01*
X104216459Y-126158459D02*
X104216459Y-128306461D01*
X119968000Y-134798000D02*
X119347999Y-134177999D01*
%TO.N,/IO12_NSS*%
X119824000Y-111684000D02*
X119078000Y-110938000D01*
X119968000Y-111684000D02*
X119824000Y-111684000D01*
%TO.N,/IO33_D0*%
X100804000Y-124130000D02*
X101854000Y-125180000D01*
X100664000Y-124130000D02*
X100804000Y-124130000D01*
X100664000Y-124130000D02*
X100664000Y-108890000D01*
X101854000Y-125180000D02*
X105156000Y-125180000D01*
X105156000Y-125180000D02*
X108966000Y-125180000D01*
X111053000Y-125180000D02*
X111332000Y-124901000D01*
X108966000Y-125180000D02*
X111053000Y-125180000D01*
%TO.N,/IO38_MISO*%
X118767998Y-116938000D02*
X119078000Y-116938000D01*
X106887000Y-114859000D02*
X107111001Y-115083001D01*
X106887000Y-114859000D02*
X104982000Y-112954000D01*
D22*
X110002002Y-114224000D02*
X114126000Y-114224000D01*
X109143001Y-115083001D02*
X110002002Y-114224000D01*
D21*
X107111001Y-115083001D02*
X109143001Y-115083001D01*
D22*
X114126000Y-114224000D02*
X114126000Y-114478000D01*
X116764002Y-116800000D02*
X119078000Y-116800000D01*
X114188002Y-114224000D02*
X116764002Y-116800000D01*
X114126000Y-114224000D02*
X114188002Y-114224000D01*
D21*
%TO.N,/IO23_RST*%
X119078000Y-108938000D02*
X119747000Y-108938000D01*
X120428000Y-108938000D02*
X120476000Y-108890000D01*
X119078000Y-108938000D02*
X120428000Y-108938000D01*
D22*
X110570000Y-108881000D02*
X110579000Y-108881000D01*
X110579000Y-108881000D02*
X112602000Y-106858000D01*
X117678000Y-108938000D02*
X119078000Y-108938000D01*
X115598000Y-106858000D02*
X117678000Y-108938000D01*
X112602000Y-106858000D02*
X115598000Y-106858000D01*
D21*
%TO.N,/IO32_SCK*%
X106207564Y-110115564D02*
X104584001Y-110115564D01*
X109030000Y-112938000D02*
X106207564Y-110115564D01*
D22*
X116424000Y-111684000D02*
X114126000Y-111684000D01*
X117678000Y-112938000D02*
X116424000Y-111684000D01*
X119078000Y-112938000D02*
X117678000Y-112938000D01*
X114063998Y-111684000D02*
X114126000Y-111684000D01*
X112809998Y-112938000D02*
X114063998Y-111684000D01*
X109030000Y-112938000D02*
X112809998Y-112938000D01*
D21*
%TO.N,/IO18_MOSI*%
X119126000Y-114986000D02*
X119078000Y-114938000D01*
X120428000Y-114938000D02*
X120476000Y-114986000D01*
X119078000Y-114938000D02*
X120428000Y-114938000D01*
D22*
X114188002Y-112954000D02*
X114126000Y-112954000D01*
X116172002Y-114938000D02*
X114188002Y-112954000D01*
X119078000Y-114938000D02*
X116172002Y-114938000D01*
D21*
%TO.N,+5V*%
X114888000Y-126290000D02*
X114508000Y-126290000D01*
X114508000Y-126290000D02*
X112602000Y-124384000D01*
X112602000Y-122098000D02*
X112348000Y-121844000D01*
X112602000Y-124384000D02*
X112602000Y-122098000D01*
%TO.N,/IO37_LED*%
X121238000Y-104318000D02*
X121524990Y-104604990D01*
X121524990Y-104604990D02*
X121524990Y-110668000D01*
X121524990Y-110668000D02*
X121524990Y-112224990D01*
X121524990Y-112224990D02*
X121524990Y-112147012D01*
X121524990Y-116801012D02*
X121524990Y-112224990D01*
X120576001Y-117750001D02*
X121524990Y-116801012D01*
X116949999Y-117750001D02*
X120576001Y-117750001D01*
X114126000Y-120574000D02*
X116949999Y-117750001D01*
X114126000Y-123876000D02*
X114126000Y-120574000D01*
X115684001Y-125434001D02*
X114126000Y-123876000D01*
X115938001Y-125434001D02*
X115684001Y-125434001D01*
X115938001Y-130787999D02*
X115938001Y-125434001D01*
X114798000Y-131928000D02*
X115938001Y-130787999D01*
%TO.N,Net-(D1-Pad2)*%
X103388002Y-114938000D02*
X108966000Y-120515998D01*
X103078000Y-114938000D02*
X103388002Y-114938000D01*
X108966000Y-120515998D02*
X108966000Y-121464000D01*
%TO.N,Net-(D2-Pad2)*%
X103388002Y-116938000D02*
X105156000Y-118705998D01*
X103078000Y-116938000D02*
X103388002Y-116938000D01*
X105156000Y-119170002D02*
X105156000Y-121464000D01*
X105156000Y-118705998D02*
X105156000Y-119170002D01*
%TO.N,Net-(D3-Pad2)*%
X101854000Y-120162000D02*
X103078000Y-118938000D01*
X101854000Y-120162000D02*
X101854000Y-121162000D01*
%TO.N,Net-(D4-Pad1)*%
X112236000Y-129590000D02*
X109898000Y-131928000D01*
X114888000Y-129590000D02*
X112236000Y-129590000D01*
%TO.N,Net-(D5-Pad2)*%
X106836000Y-135128000D02*
X106506000Y-134798000D01*
X109898000Y-135128000D02*
X106836000Y-135128000D01*
%TO.N,Net-(AE1-Pad1)*%
X103078000Y-102920000D02*
X104220000Y-101778000D01*
X103078000Y-104938000D02*
X103078000Y-102920000D01*
D22*
%TO.N,+BATT*%
X118968000Y-123485000D02*
X118118000Y-123485000D01*
X119460000Y-122993000D02*
X118968000Y-123485000D01*
X119460000Y-121590000D02*
X119460000Y-122993000D01*
D21*
%TO.N,/GDO2*%
X113989998Y-115240000D02*
X114126000Y-115240000D01*
%TD*%
D23*
%TO.N,GND*%
X118483000Y-135266260D02*
X118540068Y-135553158D01*
X118652010Y-135823411D01*
X118814525Y-136066632D01*
X119021368Y-136273475D01*
X119120930Y-136340000D01*
X108573941Y-136340000D01*
X108599502Y-136292180D01*
X108635812Y-136172482D01*
X108648072Y-136048000D01*
X108648072Y-136019791D01*
X108696815Y-136079185D01*
X108793506Y-136158537D01*
X108903820Y-136217502D01*
X109023518Y-136253812D01*
X109148000Y-136266072D01*
X110648000Y-136266072D01*
X110772482Y-136253812D01*
X110892180Y-136217502D01*
X111002494Y-136158537D01*
X111099185Y-136079185D01*
X111178537Y-135982494D01*
X111237502Y-135872180D01*
X111273812Y-135752482D01*
X111286072Y-135628000D01*
X113409928Y-135628000D01*
X113422188Y-135752482D01*
X113458498Y-135872180D01*
X113517463Y-135982494D01*
X113596815Y-136079185D01*
X113693506Y-136158537D01*
X113803820Y-136217502D01*
X113923518Y-136253812D01*
X114048000Y-136266072D01*
X114512250Y-136263000D01*
X114671000Y-136104250D01*
X114671000Y-135255000D01*
X114925000Y-135255000D01*
X114925000Y-136104250D01*
X115083750Y-136263000D01*
X115548000Y-136266072D01*
X115672482Y-136253812D01*
X115792180Y-136217502D01*
X115902494Y-136158537D01*
X115999185Y-136079185D01*
X116078537Y-135982494D01*
X116137502Y-135872180D01*
X116173812Y-135752482D01*
X116186072Y-135628000D01*
X116183000Y-135413750D01*
X116024250Y-135255000D01*
X114925000Y-135255000D01*
X114671000Y-135255000D01*
X113571750Y-135255000D01*
X113413000Y-135413750D01*
X113409928Y-135628000D01*
X111286072Y-135628000D01*
X111286072Y-135062999D01*
X118483000Y-135062999D01*
X118483000Y-135266260D01*
%TA.AperFunction,Conductor*%
D24*
G36*
X118483000Y-135266260D02*
G01*
X118540068Y-135553158D01*
X118652010Y-135823411D01*
X118814525Y-136066632D01*
X119021368Y-136273475D01*
X119120930Y-136340000D01*
X108573941Y-136340000D01*
X108599502Y-136292180D01*
X108635812Y-136172482D01*
X108648072Y-136048000D01*
X108648072Y-136019791D01*
X108696815Y-136079185D01*
X108793506Y-136158537D01*
X108903820Y-136217502D01*
X109023518Y-136253812D01*
X109148000Y-136266072D01*
X110648000Y-136266072D01*
X110772482Y-136253812D01*
X110892180Y-136217502D01*
X111002494Y-136158537D01*
X111099185Y-136079185D01*
X111178537Y-135982494D01*
X111237502Y-135872180D01*
X111273812Y-135752482D01*
X111286072Y-135628000D01*
X113409928Y-135628000D01*
X113422188Y-135752482D01*
X113458498Y-135872180D01*
X113517463Y-135982494D01*
X113596815Y-136079185D01*
X113693506Y-136158537D01*
X113803820Y-136217502D01*
X113923518Y-136253812D01*
X114048000Y-136266072D01*
X114512250Y-136263000D01*
X114671000Y-136104250D01*
X114671000Y-135255000D01*
X114925000Y-135255000D01*
X114925000Y-136104250D01*
X115083750Y-136263000D01*
X115548000Y-136266072D01*
X115672482Y-136253812D01*
X115792180Y-136217502D01*
X115902494Y-136158537D01*
X115999185Y-136079185D01*
X116078537Y-135982494D01*
X116137502Y-135872180D01*
X116173812Y-135752482D01*
X116186072Y-135628000D01*
X116183000Y-135413750D01*
X116024250Y-135255000D01*
X114925000Y-135255000D01*
X114671000Y-135255000D01*
X113571750Y-135255000D01*
X113413000Y-135413750D01*
X113409928Y-135628000D01*
X111286072Y-135628000D01*
X111286072Y-135062999D01*
X118483000Y-135062999D01*
X118483000Y-135266260D01*
G37*
%TD.AperFunction*%
D23*
X121340001Y-136340000D02*
X120815070Y-136340000D01*
X120914632Y-136273475D01*
X121121475Y-136066632D01*
X121283990Y-135823411D01*
X121340001Y-135688188D01*
X121340001Y-136340000D01*
%TA.AperFunction,Conductor*%
D24*
G36*
X121340001Y-136340000D02*
G01*
X120815070Y-136340000D01*
X120914632Y-136273475D01*
X121121475Y-136066632D01*
X121283990Y-135823411D01*
X121340001Y-135688188D01*
X121340001Y-136340000D01*
G37*
%TD.AperFunction*%
D23*
X121340001Y-119246928D02*
X120715311Y-119246928D01*
X120713000Y-119085750D01*
X120554250Y-118927000D01*
X119205000Y-118927000D01*
X119205000Y-119776250D01*
X119357117Y-119928367D01*
X119346992Y-119961746D01*
X119329928Y-120135000D01*
X119329928Y-120560596D01*
X119158102Y-120594774D01*
X118969744Y-120672795D01*
X118800226Y-120786063D01*
X118656063Y-120930226D01*
X118542795Y-121099744D01*
X118464774Y-121288102D01*
X118462471Y-121299680D01*
X118403750Y-121300000D01*
X118245000Y-121458750D01*
X118245000Y-122108000D01*
X118265000Y-122108000D01*
X118265000Y-122362000D01*
X118245000Y-122362000D01*
X118245000Y-122382000D01*
X117991000Y-122382000D01*
X117991000Y-122362000D01*
X116791750Y-122362000D01*
X116633000Y-122520750D01*
X116629928Y-122535000D01*
X116642188Y-122659482D01*
X116678498Y-122779180D01*
X116737463Y-122889494D01*
X116755256Y-122911175D01*
X116689916Y-123033418D01*
X116645071Y-123181255D01*
X116629928Y-123335000D01*
X116629928Y-123635000D01*
X116645071Y-123788745D01*
X116689916Y-123936582D01*
X116762742Y-124072829D01*
X116860749Y-124192251D01*
X116980171Y-124290258D01*
X117116418Y-124363084D01*
X117264255Y-124407929D01*
X117418000Y-124423072D01*
X118818000Y-124423072D01*
X118971745Y-124407929D01*
X119119582Y-124363084D01*
X119255829Y-124290258D01*
X119298843Y-124254957D01*
X119434146Y-124182636D01*
X119561291Y-124078291D01*
X119587446Y-124046421D01*
X120021421Y-123612446D01*
X120053291Y-123586291D01*
X120157636Y-123459146D01*
X120235172Y-123314087D01*
X120282918Y-123156689D01*
X120295000Y-123034019D01*
X120299040Y-122993001D01*
X120295000Y-122951982D01*
X120295000Y-122203285D01*
X120377205Y-122080256D01*
X120455226Y-121891898D01*
X120495000Y-121691939D01*
X120495000Y-121523072D01*
X121340001Y-121523072D01*
X121340001Y-124196928D01*
X120218000Y-124196928D01*
X120044746Y-124213992D01*
X119878150Y-124264528D01*
X119724614Y-124346595D01*
X119590038Y-124457038D01*
X119479595Y-124591614D01*
X119397528Y-124745150D01*
X119346992Y-124911746D01*
X119329928Y-125085000D01*
X119329928Y-125585000D01*
X119346992Y-125758254D01*
X119397528Y-125924850D01*
X119444072Y-126011928D01*
X119118000Y-126011928D01*
X118993518Y-126024188D01*
X118873820Y-126060498D01*
X118763506Y-126119463D01*
X118666815Y-126198815D01*
X118587463Y-126295506D01*
X118528498Y-126405820D01*
X118492188Y-126525518D01*
X118479928Y-126650000D01*
X118479928Y-128350000D01*
X118492188Y-128474482D01*
X118528498Y-128594180D01*
X118587463Y-128704494D01*
X118666815Y-128801185D01*
X118763506Y-128880537D01*
X118873820Y-128939502D01*
X118954466Y-128963966D01*
X118870412Y-129039731D01*
X118696359Y-129273080D01*
X118571175Y-129535901D01*
X118526524Y-129683110D01*
X118647845Y-129913000D01*
X119841000Y-129913000D01*
X119841000Y-129893000D01*
X120095000Y-129893000D01*
X120095000Y-129913000D01*
X120115000Y-129913000D01*
X120115000Y-130167000D01*
X120095000Y-130167000D01*
X120095000Y-130187000D01*
X119841000Y-130187000D01*
X119841000Y-130167000D01*
X118647845Y-130167000D01*
X118526524Y-130396890D01*
X118571175Y-130544099D01*
X118696359Y-130806920D01*
X118870412Y-131040269D01*
X119086645Y-131235178D01*
X119203534Y-131304805D01*
X119021368Y-131426525D01*
X118814525Y-131633368D01*
X118652010Y-131876589D01*
X118540068Y-132146842D01*
X118483000Y-132433740D01*
X118483000Y-132726260D01*
X118540068Y-133013158D01*
X118652010Y-133283411D01*
X118658416Y-133292999D01*
X110454576Y-133292999D01*
X110227649Y-133066072D01*
X110648000Y-133066072D01*
X110772482Y-133053812D01*
X110892180Y-133017502D01*
X111002494Y-132958537D01*
X111099185Y-132879185D01*
X111178537Y-132782494D01*
X111237502Y-132672180D01*
X111273812Y-132552482D01*
X111286072Y-132428000D01*
X111286072Y-131791506D01*
X112602579Y-130475000D01*
X113823532Y-130475000D01*
X113836815Y-130491185D01*
X113933506Y-130570537D01*
X114043820Y-130629502D01*
X114163518Y-130665812D01*
X114288000Y-130678072D01*
X114796349Y-130678072D01*
X114684494Y-130789928D01*
X114048000Y-130789928D01*
X113923518Y-130802188D01*
X113803820Y-130838498D01*
X113693506Y-130897463D01*
X113596815Y-130976815D01*
X113517463Y-131073506D01*
X113458498Y-131183820D01*
X113422188Y-131303518D01*
X113409928Y-131428000D01*
X113409928Y-132428000D01*
X113422188Y-132552482D01*
X113458498Y-132672180D01*
X113517463Y-132782494D01*
X113596815Y-132879185D01*
X113693506Y-132958537D01*
X113803820Y-133017502D01*
X113923518Y-133053812D01*
X114048000Y-133066072D01*
X115548000Y-133066072D01*
X115672482Y-133053812D01*
X115792180Y-133017502D01*
X115902494Y-132958537D01*
X115999185Y-132879185D01*
X116078537Y-132782494D01*
X116137502Y-132672180D01*
X116173812Y-132552482D01*
X116186072Y-132428000D01*
X116186072Y-131791507D01*
X116533051Y-131444528D01*
X116566818Y-131416816D01*
X116635643Y-131332954D01*
X116677412Y-131282058D01*
X116687059Y-131264010D01*
X116759590Y-131128312D01*
X116810196Y-130961489D01*
X116823001Y-130831476D01*
X116823001Y-130831468D01*
X116827282Y-130787999D01*
X116823001Y-130744530D01*
X116823001Y-125477478D01*
X116827283Y-125434001D01*
X116819354Y-125353490D01*
X116810196Y-125260511D01*
X116759590Y-125093688D01*
X116677412Y-124939942D01*
X116566818Y-124805184D01*
X116432060Y-124694590D01*
X116278314Y-124612412D01*
X116111491Y-124561806D01*
X116058129Y-124556550D01*
X115011000Y-123509422D01*
X115011000Y-121935000D01*
X116629928Y-121935000D01*
X116633000Y-121949250D01*
X116791750Y-122108000D01*
X117991000Y-122108000D01*
X117991000Y-121458750D01*
X117832250Y-121300000D01*
X117268000Y-121296928D01*
X117143518Y-121309188D01*
X117023820Y-121345498D01*
X116913506Y-121404463D01*
X116816815Y-121483815D01*
X116737463Y-121580506D01*
X116678498Y-121690820D01*
X116642188Y-121810518D01*
X116629928Y-121935000D01*
X115011000Y-121935000D01*
X115011000Y-120940578D01*
X116651578Y-119300000D01*
X117439928Y-119300000D01*
X117452188Y-119424482D01*
X117488498Y-119544180D01*
X117547463Y-119654494D01*
X117626815Y-119751185D01*
X117723506Y-119830537D01*
X117833820Y-119889502D01*
X117953518Y-119925812D01*
X118078000Y-119938072D01*
X118792250Y-119935000D01*
X118951000Y-119776250D01*
X118951000Y-118927000D01*
X117601750Y-118927000D01*
X117443000Y-119085750D01*
X117439928Y-119300000D01*
X116651578Y-119300000D01*
X117316578Y-118635001D01*
X117563751Y-118635001D01*
X117601750Y-118673000D01*
X118951000Y-118673000D01*
X118951000Y-118653000D01*
X119205000Y-118653000D01*
X119205000Y-118673000D01*
X120554250Y-118673000D01*
X120589275Y-118637975D01*
X120619470Y-118635001D01*
X120619478Y-118635001D01*
X120749491Y-118622196D01*
X120916314Y-118571590D01*
X121070060Y-118489412D01*
X121204818Y-118378818D01*
X121232535Y-118345045D01*
X121340000Y-118237580D01*
X121340001Y-119246928D01*
%TA.AperFunction,Conductor*%
D24*
G36*
X121340001Y-119246928D02*
G01*
X120715311Y-119246928D01*
X120713000Y-119085750D01*
X120554250Y-118927000D01*
X119205000Y-118927000D01*
X119205000Y-119776250D01*
X119357117Y-119928367D01*
X119346992Y-119961746D01*
X119329928Y-120135000D01*
X119329928Y-120560596D01*
X119158102Y-120594774D01*
X118969744Y-120672795D01*
X118800226Y-120786063D01*
X118656063Y-120930226D01*
X118542795Y-121099744D01*
X118464774Y-121288102D01*
X118462471Y-121299680D01*
X118403750Y-121300000D01*
X118245000Y-121458750D01*
X118245000Y-122108000D01*
X118265000Y-122108000D01*
X118265000Y-122362000D01*
X118245000Y-122362000D01*
X118245000Y-122382000D01*
X117991000Y-122382000D01*
X117991000Y-122362000D01*
X116791750Y-122362000D01*
X116633000Y-122520750D01*
X116629928Y-122535000D01*
X116642188Y-122659482D01*
X116678498Y-122779180D01*
X116737463Y-122889494D01*
X116755256Y-122911175D01*
X116689916Y-123033418D01*
X116645071Y-123181255D01*
X116629928Y-123335000D01*
X116629928Y-123635000D01*
X116645071Y-123788745D01*
X116689916Y-123936582D01*
X116762742Y-124072829D01*
X116860749Y-124192251D01*
X116980171Y-124290258D01*
X117116418Y-124363084D01*
X117264255Y-124407929D01*
X117418000Y-124423072D01*
X118818000Y-124423072D01*
X118971745Y-124407929D01*
X119119582Y-124363084D01*
X119255829Y-124290258D01*
X119298843Y-124254957D01*
X119434146Y-124182636D01*
X119561291Y-124078291D01*
X119587446Y-124046421D01*
X120021421Y-123612446D01*
X120053291Y-123586291D01*
X120157636Y-123459146D01*
X120235172Y-123314087D01*
X120282918Y-123156689D01*
X120295000Y-123034019D01*
X120299040Y-122993001D01*
X120295000Y-122951982D01*
X120295000Y-122203285D01*
X120377205Y-122080256D01*
X120455226Y-121891898D01*
X120495000Y-121691939D01*
X120495000Y-121523072D01*
X121340001Y-121523072D01*
X121340001Y-124196928D01*
X120218000Y-124196928D01*
X120044746Y-124213992D01*
X119878150Y-124264528D01*
X119724614Y-124346595D01*
X119590038Y-124457038D01*
X119479595Y-124591614D01*
X119397528Y-124745150D01*
X119346992Y-124911746D01*
X119329928Y-125085000D01*
X119329928Y-125585000D01*
X119346992Y-125758254D01*
X119397528Y-125924850D01*
X119444072Y-126011928D01*
X119118000Y-126011928D01*
X118993518Y-126024188D01*
X118873820Y-126060498D01*
X118763506Y-126119463D01*
X118666815Y-126198815D01*
X118587463Y-126295506D01*
X118528498Y-126405820D01*
X118492188Y-126525518D01*
X118479928Y-126650000D01*
X118479928Y-128350000D01*
X118492188Y-128474482D01*
X118528498Y-128594180D01*
X118587463Y-128704494D01*
X118666815Y-128801185D01*
X118763506Y-128880537D01*
X118873820Y-128939502D01*
X118954466Y-128963966D01*
X118870412Y-129039731D01*
X118696359Y-129273080D01*
X118571175Y-129535901D01*
X118526524Y-129683110D01*
X118647845Y-129913000D01*
X119841000Y-129913000D01*
X119841000Y-129893000D01*
X120095000Y-129893000D01*
X120095000Y-129913000D01*
X120115000Y-129913000D01*
X120115000Y-130167000D01*
X120095000Y-130167000D01*
X120095000Y-130187000D01*
X119841000Y-130187000D01*
X119841000Y-130167000D01*
X118647845Y-130167000D01*
X118526524Y-130396890D01*
X118571175Y-130544099D01*
X118696359Y-130806920D01*
X118870412Y-131040269D01*
X119086645Y-131235178D01*
X119203534Y-131304805D01*
X119021368Y-131426525D01*
X118814525Y-131633368D01*
X118652010Y-131876589D01*
X118540068Y-132146842D01*
X118483000Y-132433740D01*
X118483000Y-132726260D01*
X118540068Y-133013158D01*
X118652010Y-133283411D01*
X118658416Y-133292999D01*
X110454576Y-133292999D01*
X110227649Y-133066072D01*
X110648000Y-133066072D01*
X110772482Y-133053812D01*
X110892180Y-133017502D01*
X111002494Y-132958537D01*
X111099185Y-132879185D01*
X111178537Y-132782494D01*
X111237502Y-132672180D01*
X111273812Y-132552482D01*
X111286072Y-132428000D01*
X111286072Y-131791506D01*
X112602579Y-130475000D01*
X113823532Y-130475000D01*
X113836815Y-130491185D01*
X113933506Y-130570537D01*
X114043820Y-130629502D01*
X114163518Y-130665812D01*
X114288000Y-130678072D01*
X114796349Y-130678072D01*
X114684494Y-130789928D01*
X114048000Y-130789928D01*
X113923518Y-130802188D01*
X113803820Y-130838498D01*
X113693506Y-130897463D01*
X113596815Y-130976815D01*
X113517463Y-131073506D01*
X113458498Y-131183820D01*
X113422188Y-131303518D01*
X113409928Y-131428000D01*
X113409928Y-132428000D01*
X113422188Y-132552482D01*
X113458498Y-132672180D01*
X113517463Y-132782494D01*
X113596815Y-132879185D01*
X113693506Y-132958537D01*
X113803820Y-133017502D01*
X113923518Y-133053812D01*
X114048000Y-133066072D01*
X115548000Y-133066072D01*
X115672482Y-133053812D01*
X115792180Y-133017502D01*
X115902494Y-132958537D01*
X115999185Y-132879185D01*
X116078537Y-132782494D01*
X116137502Y-132672180D01*
X116173812Y-132552482D01*
X116186072Y-132428000D01*
X116186072Y-131791507D01*
X116533051Y-131444528D01*
X116566818Y-131416816D01*
X116635643Y-131332954D01*
X116677412Y-131282058D01*
X116687059Y-131264010D01*
X116759590Y-131128312D01*
X116810196Y-130961489D01*
X116823001Y-130831476D01*
X116823001Y-130831468D01*
X116827282Y-130787999D01*
X116823001Y-130744530D01*
X116823001Y-125477478D01*
X116827283Y-125434001D01*
X116819354Y-125353490D01*
X116810196Y-125260511D01*
X116759590Y-125093688D01*
X116677412Y-124939942D01*
X116566818Y-124805184D01*
X116432060Y-124694590D01*
X116278314Y-124612412D01*
X116111491Y-124561806D01*
X116058129Y-124556550D01*
X115011000Y-123509422D01*
X115011000Y-121935000D01*
X116629928Y-121935000D01*
X116633000Y-121949250D01*
X116791750Y-122108000D01*
X117991000Y-122108000D01*
X117991000Y-121458750D01*
X117832250Y-121300000D01*
X117268000Y-121296928D01*
X117143518Y-121309188D01*
X117023820Y-121345498D01*
X116913506Y-121404463D01*
X116816815Y-121483815D01*
X116737463Y-121580506D01*
X116678498Y-121690820D01*
X116642188Y-121810518D01*
X116629928Y-121935000D01*
X115011000Y-121935000D01*
X115011000Y-120940578D01*
X116651578Y-119300000D01*
X117439928Y-119300000D01*
X117452188Y-119424482D01*
X117488498Y-119544180D01*
X117547463Y-119654494D01*
X117626815Y-119751185D01*
X117723506Y-119830537D01*
X117833820Y-119889502D01*
X117953518Y-119925812D01*
X118078000Y-119938072D01*
X118792250Y-119935000D01*
X118951000Y-119776250D01*
X118951000Y-118927000D01*
X117601750Y-118927000D01*
X117443000Y-119085750D01*
X117439928Y-119300000D01*
X116651578Y-119300000D01*
X117316578Y-118635001D01*
X117563751Y-118635001D01*
X117601750Y-118673000D01*
X118951000Y-118673000D01*
X118951000Y-118653000D01*
X119205000Y-118653000D01*
X119205000Y-118673000D01*
X120554250Y-118673000D01*
X120589275Y-118637975D01*
X120619470Y-118635001D01*
X120619478Y-118635001D01*
X120749491Y-118622196D01*
X120916314Y-118571590D01*
X121070060Y-118489412D01*
X121204818Y-118378818D01*
X121232535Y-118345045D01*
X121340000Y-118237580D01*
X121340001Y-119246928D01*
G37*
%TD.AperFunction*%
D23*
X121340001Y-132011812D02*
X121283990Y-131876589D01*
X121121475Y-131633368D01*
X120914632Y-131426525D01*
X120732466Y-131304805D01*
X120849355Y-131235178D01*
X121065588Y-131040269D01*
X121239641Y-130806920D01*
X121340001Y-130596217D01*
X121340001Y-132011812D01*
%TA.AperFunction,Conductor*%
D24*
G36*
X121340001Y-132011812D02*
G01*
X121283990Y-131876589D01*
X121121475Y-131633368D01*
X120914632Y-131426525D01*
X120732466Y-131304805D01*
X120849355Y-131235178D01*
X121065588Y-131040269D01*
X121239641Y-130806920D01*
X121340001Y-130596217D01*
X121340001Y-132011812D01*
G37*
%TD.AperFunction*%
D23*
X113649928Y-126683507D02*
X113649928Y-126740000D01*
X113662188Y-126864482D01*
X113698498Y-126984180D01*
X113757463Y-127094494D01*
X113836815Y-127191185D01*
X113933506Y-127270537D01*
X114043820Y-127329502D01*
X114163518Y-127365812D01*
X114288000Y-127378072D01*
X115053002Y-127378072D01*
X115053001Y-128501928D01*
X114288000Y-128501928D01*
X114163518Y-128514188D01*
X114043820Y-128550498D01*
X113933506Y-128609463D01*
X113836815Y-128688815D01*
X113823532Y-128705000D01*
X112279465Y-128705000D01*
X112235999Y-128700719D01*
X112192533Y-128705000D01*
X112192523Y-128705000D01*
X112062510Y-128717805D01*
X111895687Y-128768411D01*
X111741941Y-128850589D01*
X111741939Y-128850590D01*
X111741940Y-128850590D01*
X111640953Y-128933468D01*
X111640951Y-128933470D01*
X111607183Y-128961183D01*
X111579470Y-128994951D01*
X109784494Y-130789928D01*
X109148000Y-130789928D01*
X109023518Y-130802188D01*
X108903820Y-130838498D01*
X108793506Y-130897463D01*
X108696815Y-130976815D01*
X108617463Y-131073506D01*
X108558498Y-131183820D01*
X108522188Y-131303518D01*
X108517069Y-131355493D01*
X105101459Y-127939883D01*
X105101459Y-126696913D01*
X105133664Y-126648715D01*
X105211685Y-126460357D01*
X105251459Y-126260398D01*
X105251459Y-126065000D01*
X110603228Y-126065000D01*
X110708745Y-126097008D01*
X110881999Y-126114072D01*
X111782001Y-126114072D01*
X111955255Y-126097008D01*
X112121851Y-126046472D01*
X112275387Y-125964405D01*
X112409962Y-125853962D01*
X112520405Y-125719387D01*
X112578020Y-125611598D01*
X113649928Y-126683507D01*
%TA.AperFunction,Conductor*%
D24*
G36*
X113649928Y-126683507D02*
G01*
X113649928Y-126740000D01*
X113662188Y-126864482D01*
X113698498Y-126984180D01*
X113757463Y-127094494D01*
X113836815Y-127191185D01*
X113933506Y-127270537D01*
X114043820Y-127329502D01*
X114163518Y-127365812D01*
X114288000Y-127378072D01*
X115053002Y-127378072D01*
X115053001Y-128501928D01*
X114288000Y-128501928D01*
X114163518Y-128514188D01*
X114043820Y-128550498D01*
X113933506Y-128609463D01*
X113836815Y-128688815D01*
X113823532Y-128705000D01*
X112279465Y-128705000D01*
X112235999Y-128700719D01*
X112192533Y-128705000D01*
X112192523Y-128705000D01*
X112062510Y-128717805D01*
X111895687Y-128768411D01*
X111741941Y-128850589D01*
X111741939Y-128850590D01*
X111741940Y-128850590D01*
X111640953Y-128933468D01*
X111640951Y-128933470D01*
X111607183Y-128961183D01*
X111579470Y-128994951D01*
X109784494Y-130789928D01*
X109148000Y-130789928D01*
X109023518Y-130802188D01*
X108903820Y-130838498D01*
X108793506Y-130897463D01*
X108696815Y-130976815D01*
X108617463Y-131073506D01*
X108558498Y-131183820D01*
X108522188Y-131303518D01*
X108517069Y-131355493D01*
X105101459Y-127939883D01*
X105101459Y-126696913D01*
X105133664Y-126648715D01*
X105211685Y-126460357D01*
X105251459Y-126260398D01*
X105251459Y-126065000D01*
X110603228Y-126065000D01*
X110708745Y-126097008D01*
X110881999Y-126114072D01*
X111782001Y-126114072D01*
X111955255Y-126097008D01*
X112121851Y-126046472D01*
X112275387Y-125964405D01*
X112409962Y-125853962D01*
X112520405Y-125719387D01*
X112578020Y-125611598D01*
X113649928Y-126683507D01*
G37*
%TD.AperFunction*%
D23*
X121340001Y-130265242D02*
X121288156Y-130167002D01*
X121340001Y-130167002D01*
X121340001Y-130265242D01*
%TA.AperFunction,Conductor*%
D24*
G36*
X121340001Y-130265242D02*
G01*
X121288156Y-130167002D01*
X121340001Y-130167002D01*
X121340001Y-130265242D01*
G37*
%TD.AperFunction*%
D23*
X104680102Y-113949226D02*
X104736957Y-113960535D01*
X106291953Y-115515532D01*
X106291959Y-115515537D01*
X106454467Y-115678045D01*
X106482184Y-115711818D01*
X106616942Y-115822412D01*
X106770688Y-115904590D01*
X106937511Y-115955196D01*
X107067524Y-115968001D01*
X107067534Y-115968001D01*
X107111000Y-115972282D01*
X107154466Y-115968001D01*
X109186478Y-115968001D01*
X109316491Y-115955196D01*
X109483314Y-115904590D01*
X109637060Y-115822412D01*
X109771818Y-115711818D01*
X109882412Y-115577060D01*
X109942813Y-115464057D01*
X110347870Y-115059000D01*
X113077668Y-115059000D01*
X113034617Y-115162933D01*
X112991000Y-115382212D01*
X112991000Y-115605788D01*
X113034617Y-115825067D01*
X113120176Y-116031624D01*
X113188353Y-116133658D01*
X113138877Y-116203794D01*
X113048554Y-116407136D01*
X113031881Y-116462126D01*
X113158046Y-116637000D01*
X113999000Y-116637000D01*
X113999000Y-116625974D01*
X114014212Y-116629000D01*
X114237788Y-116629000D01*
X114253000Y-116625974D01*
X114253000Y-116637000D01*
X115093954Y-116637000D01*
X115220119Y-116462126D01*
X115209179Y-116426045D01*
X116115778Y-117332644D01*
X113530951Y-119917471D01*
X113497184Y-119945183D01*
X113469471Y-119978951D01*
X113469468Y-119978954D01*
X113386590Y-120079941D01*
X113304412Y-120233687D01*
X113253805Y-120400510D01*
X113236719Y-120574000D01*
X113241001Y-120617479D01*
X113241001Y-121317520D01*
X113151937Y-121184226D01*
X113007774Y-121040063D01*
X112838256Y-120926795D01*
X112649898Y-120848774D01*
X112449939Y-120809000D01*
X112246061Y-120809000D01*
X112046102Y-120848774D01*
X111857744Y-120926795D01*
X111688226Y-121040063D01*
X111544063Y-121184226D01*
X111430795Y-121353744D01*
X111352774Y-121542102D01*
X111313000Y-121742061D01*
X111313000Y-121945939D01*
X111352774Y-122145898D01*
X111430795Y-122334256D01*
X111459000Y-122376468D01*
X111459000Y-122724000D01*
X111479000Y-122724000D01*
X111479000Y-122978000D01*
X111459000Y-122978000D01*
X111459000Y-122998000D01*
X111205000Y-122998000D01*
X111205000Y-122978000D01*
X110155750Y-122978000D01*
X109997000Y-123136750D01*
X109993928Y-123426000D01*
X110006188Y-123550482D01*
X110042498Y-123670180D01*
X110101463Y-123780494D01*
X110180815Y-123877185D01*
X110260594Y-123942658D01*
X110254038Y-123948038D01*
X110154947Y-124068781D01*
X110096537Y-123959506D01*
X110017185Y-123862815D01*
X109920494Y-123783463D01*
X109810180Y-123724498D01*
X109690482Y-123688188D01*
X109566000Y-123675928D01*
X108366000Y-123675928D01*
X108241518Y-123688188D01*
X108121820Y-123724498D01*
X108011506Y-123783463D01*
X107914815Y-123862815D01*
X107835463Y-123959506D01*
X107776498Y-124069820D01*
X107740188Y-124189518D01*
X107729799Y-124295000D01*
X106392201Y-124295000D01*
X106381812Y-124189518D01*
X106345502Y-124069820D01*
X106286537Y-123959506D01*
X106207185Y-123862815D01*
X106110494Y-123783463D01*
X106000180Y-123724498D01*
X105880482Y-123688188D01*
X105756000Y-123675928D01*
X104556000Y-123675928D01*
X104431518Y-123688188D01*
X104311820Y-123724498D01*
X104201506Y-123783463D01*
X104104815Y-123862815D01*
X104025463Y-123959506D01*
X103966498Y-124069820D01*
X103930188Y-124189518D01*
X103919799Y-124295000D01*
X103090201Y-124295000D01*
X103079812Y-124189518D01*
X103043502Y-124069820D01*
X102984537Y-123959506D01*
X102905185Y-123862815D01*
X102808494Y-123783463D01*
X102698180Y-123724498D01*
X102578482Y-123688188D01*
X102454000Y-123675928D01*
X101601506Y-123675928D01*
X101549000Y-123623422D01*
X101549000Y-122552072D01*
X102454000Y-122552072D01*
X102578482Y-122539812D01*
X102698180Y-122503502D01*
X102808494Y-122444537D01*
X102905185Y-122365185D01*
X102984537Y-122268494D01*
X103043502Y-122158180D01*
X103079812Y-122038482D01*
X103092072Y-121914000D01*
X103092072Y-121014000D01*
X103079812Y-120889518D01*
X103043502Y-120769820D01*
X102984537Y-120659506D01*
X102905185Y-120562815D01*
X102808494Y-120483463D01*
X102792607Y-120474971D01*
X103329507Y-119938072D01*
X104078000Y-119938072D01*
X104202482Y-119925812D01*
X104271000Y-119905027D01*
X104271001Y-120446317D01*
X104201506Y-120483463D01*
X104104815Y-120562815D01*
X104025463Y-120659506D01*
X103966498Y-120769820D01*
X103930188Y-120889518D01*
X103917928Y-121014000D01*
X103917928Y-121914000D01*
X103930188Y-122038482D01*
X103966498Y-122158180D01*
X104025463Y-122268494D01*
X104104815Y-122365185D01*
X104201506Y-122444537D01*
X104311820Y-122503502D01*
X104431518Y-122539812D01*
X104556000Y-122552072D01*
X105756000Y-122552072D01*
X105880482Y-122539812D01*
X106000180Y-122503502D01*
X106110494Y-122444537D01*
X106207185Y-122365185D01*
X106286537Y-122268494D01*
X106345502Y-122158180D01*
X106381812Y-122038482D01*
X106394072Y-121914000D01*
X106394072Y-121014000D01*
X106381812Y-120889518D01*
X106345502Y-120769820D01*
X106286537Y-120659506D01*
X106207185Y-120562815D01*
X106110494Y-120483463D01*
X106041000Y-120446317D01*
X106041000Y-118842577D01*
X107845590Y-120647167D01*
X107835463Y-120659506D01*
X107776498Y-120769820D01*
X107740188Y-120889518D01*
X107727928Y-121014000D01*
X107727928Y-121914000D01*
X107740188Y-122038482D01*
X107776498Y-122158180D01*
X107835463Y-122268494D01*
X107914815Y-122365185D01*
X108011506Y-122444537D01*
X108121820Y-122503502D01*
X108241518Y-122539812D01*
X108366000Y-122552072D01*
X109566000Y-122552072D01*
X109690482Y-122539812D01*
X109810180Y-122503502D01*
X109920494Y-122444537D01*
X109995068Y-122383336D01*
X109997000Y-122565250D01*
X110155750Y-122724000D01*
X111205000Y-122724000D01*
X111205000Y-121799750D01*
X111046250Y-121641000D01*
X110632000Y-121637928D01*
X110507518Y-121650188D01*
X110387820Y-121686498D01*
X110277506Y-121745463D01*
X110204072Y-121805729D01*
X110204072Y-121014000D01*
X110191812Y-120889518D01*
X110155502Y-120769820D01*
X110096537Y-120659506D01*
X110017185Y-120562815D01*
X109920494Y-120483463D01*
X109848276Y-120444861D01*
X109838195Y-120342508D01*
X109787589Y-120175685D01*
X109705411Y-120021939D01*
X109670134Y-119978954D01*
X109622532Y-119920951D01*
X109622530Y-119920949D01*
X109594817Y-119887181D01*
X109561051Y-119859470D01*
X106767455Y-117065874D01*
X113031881Y-117065874D01*
X113048554Y-117120864D01*
X113138877Y-117324206D01*
X113267135Y-117506020D01*
X113428399Y-117659318D01*
X113616471Y-117778210D01*
X113824124Y-117858126D01*
X113999000Y-117733129D01*
X113999000Y-116891000D01*
X114253000Y-116891000D01*
X114253000Y-117733129D01*
X114427876Y-117858126D01*
X114635529Y-117778210D01*
X114823601Y-117659318D01*
X114984865Y-117506020D01*
X115113123Y-117324206D01*
X115203446Y-117120864D01*
X115220119Y-117065874D01*
X115093954Y-116891000D01*
X114253000Y-116891000D01*
X113999000Y-116891000D01*
X113158046Y-116891000D01*
X113031881Y-117065874D01*
X106767455Y-117065874D01*
X104716072Y-115014492D01*
X104716072Y-114300000D01*
X104703812Y-114175518D01*
X104667502Y-114055820D01*
X104608537Y-113945506D01*
X104576306Y-113906232D01*
X104680102Y-113949226D01*
%TA.AperFunction,Conductor*%
D24*
G36*
X104680102Y-113949226D02*
G01*
X104736957Y-113960535D01*
X106291953Y-115515532D01*
X106291959Y-115515537D01*
X106454467Y-115678045D01*
X106482184Y-115711818D01*
X106616942Y-115822412D01*
X106770688Y-115904590D01*
X106937511Y-115955196D01*
X107067524Y-115968001D01*
X107067534Y-115968001D01*
X107111000Y-115972282D01*
X107154466Y-115968001D01*
X109186478Y-115968001D01*
X109316491Y-115955196D01*
X109483314Y-115904590D01*
X109637060Y-115822412D01*
X109771818Y-115711818D01*
X109882412Y-115577060D01*
X109942813Y-115464057D01*
X110347870Y-115059000D01*
X113077668Y-115059000D01*
X113034617Y-115162933D01*
X112991000Y-115382212D01*
X112991000Y-115605788D01*
X113034617Y-115825067D01*
X113120176Y-116031624D01*
X113188353Y-116133658D01*
X113138877Y-116203794D01*
X113048554Y-116407136D01*
X113031881Y-116462126D01*
X113158046Y-116637000D01*
X113999000Y-116637000D01*
X113999000Y-116625974D01*
X114014212Y-116629000D01*
X114237788Y-116629000D01*
X114253000Y-116625974D01*
X114253000Y-116637000D01*
X115093954Y-116637000D01*
X115220119Y-116462126D01*
X115209179Y-116426045D01*
X116115778Y-117332644D01*
X113530951Y-119917471D01*
X113497184Y-119945183D01*
X113469471Y-119978951D01*
X113469468Y-119978954D01*
X113386590Y-120079941D01*
X113304412Y-120233687D01*
X113253805Y-120400510D01*
X113236719Y-120574000D01*
X113241001Y-120617479D01*
X113241001Y-121317520D01*
X113151937Y-121184226D01*
X113007774Y-121040063D01*
X112838256Y-120926795D01*
X112649898Y-120848774D01*
X112449939Y-120809000D01*
X112246061Y-120809000D01*
X112046102Y-120848774D01*
X111857744Y-120926795D01*
X111688226Y-121040063D01*
X111544063Y-121184226D01*
X111430795Y-121353744D01*
X111352774Y-121542102D01*
X111313000Y-121742061D01*
X111313000Y-121945939D01*
X111352774Y-122145898D01*
X111430795Y-122334256D01*
X111459000Y-122376468D01*
X111459000Y-122724000D01*
X111479000Y-122724000D01*
X111479000Y-122978000D01*
X111459000Y-122978000D01*
X111459000Y-122998000D01*
X111205000Y-122998000D01*
X111205000Y-122978000D01*
X110155750Y-122978000D01*
X109997000Y-123136750D01*
X109993928Y-123426000D01*
X110006188Y-123550482D01*
X110042498Y-123670180D01*
X110101463Y-123780494D01*
X110180815Y-123877185D01*
X110260594Y-123942658D01*
X110254038Y-123948038D01*
X110154947Y-124068781D01*
X110096537Y-123959506D01*
X110017185Y-123862815D01*
X109920494Y-123783463D01*
X109810180Y-123724498D01*
X109690482Y-123688188D01*
X109566000Y-123675928D01*
X108366000Y-123675928D01*
X108241518Y-123688188D01*
X108121820Y-123724498D01*
X108011506Y-123783463D01*
X107914815Y-123862815D01*
X107835463Y-123959506D01*
X107776498Y-124069820D01*
X107740188Y-124189518D01*
X107729799Y-124295000D01*
X106392201Y-124295000D01*
X106381812Y-124189518D01*
X106345502Y-124069820D01*
X106286537Y-123959506D01*
X106207185Y-123862815D01*
X106110494Y-123783463D01*
X106000180Y-123724498D01*
X105880482Y-123688188D01*
X105756000Y-123675928D01*
X104556000Y-123675928D01*
X104431518Y-123688188D01*
X104311820Y-123724498D01*
X104201506Y-123783463D01*
X104104815Y-123862815D01*
X104025463Y-123959506D01*
X103966498Y-124069820D01*
X103930188Y-124189518D01*
X103919799Y-124295000D01*
X103090201Y-124295000D01*
X103079812Y-124189518D01*
X103043502Y-124069820D01*
X102984537Y-123959506D01*
X102905185Y-123862815D01*
X102808494Y-123783463D01*
X102698180Y-123724498D01*
X102578482Y-123688188D01*
X102454000Y-123675928D01*
X101601506Y-123675928D01*
X101549000Y-123623422D01*
X101549000Y-122552072D01*
X102454000Y-122552072D01*
X102578482Y-122539812D01*
X102698180Y-122503502D01*
X102808494Y-122444537D01*
X102905185Y-122365185D01*
X102984537Y-122268494D01*
X103043502Y-122158180D01*
X103079812Y-122038482D01*
X103092072Y-121914000D01*
X103092072Y-121014000D01*
X103079812Y-120889518D01*
X103043502Y-120769820D01*
X102984537Y-120659506D01*
X102905185Y-120562815D01*
X102808494Y-120483463D01*
X102792607Y-120474971D01*
X103329507Y-119938072D01*
X104078000Y-119938072D01*
X104202482Y-119925812D01*
X104271000Y-119905027D01*
X104271001Y-120446317D01*
X104201506Y-120483463D01*
X104104815Y-120562815D01*
X104025463Y-120659506D01*
X103966498Y-120769820D01*
X103930188Y-120889518D01*
X103917928Y-121014000D01*
X103917928Y-121914000D01*
X103930188Y-122038482D01*
X103966498Y-122158180D01*
X104025463Y-122268494D01*
X104104815Y-122365185D01*
X104201506Y-122444537D01*
X104311820Y-122503502D01*
X104431518Y-122539812D01*
X104556000Y-122552072D01*
X105756000Y-122552072D01*
X105880482Y-122539812D01*
X106000180Y-122503502D01*
X106110494Y-122444537D01*
X106207185Y-122365185D01*
X106286537Y-122268494D01*
X106345502Y-122158180D01*
X106381812Y-122038482D01*
X106394072Y-121914000D01*
X106394072Y-121014000D01*
X106381812Y-120889518D01*
X106345502Y-120769820D01*
X106286537Y-120659506D01*
X106207185Y-120562815D01*
X106110494Y-120483463D01*
X106041000Y-120446317D01*
X106041000Y-118842577D01*
X107845590Y-120647167D01*
X107835463Y-120659506D01*
X107776498Y-120769820D01*
X107740188Y-120889518D01*
X107727928Y-121014000D01*
X107727928Y-121914000D01*
X107740188Y-122038482D01*
X107776498Y-122158180D01*
X107835463Y-122268494D01*
X107914815Y-122365185D01*
X108011506Y-122444537D01*
X108121820Y-122503502D01*
X108241518Y-122539812D01*
X108366000Y-122552072D01*
X109566000Y-122552072D01*
X109690482Y-122539812D01*
X109810180Y-122503502D01*
X109920494Y-122444537D01*
X109995068Y-122383336D01*
X109997000Y-122565250D01*
X110155750Y-122724000D01*
X111205000Y-122724000D01*
X111205000Y-121799750D01*
X111046250Y-121641000D01*
X110632000Y-121637928D01*
X110507518Y-121650188D01*
X110387820Y-121686498D01*
X110277506Y-121745463D01*
X110204072Y-121805729D01*
X110204072Y-121014000D01*
X110191812Y-120889518D01*
X110155502Y-120769820D01*
X110096537Y-120659506D01*
X110017185Y-120562815D01*
X109920494Y-120483463D01*
X109848276Y-120444861D01*
X109838195Y-120342508D01*
X109787589Y-120175685D01*
X109705411Y-120021939D01*
X109670134Y-119978954D01*
X109622532Y-119920951D01*
X109622530Y-119920949D01*
X109594817Y-119887181D01*
X109561051Y-119859470D01*
X106767455Y-117065874D01*
X113031881Y-117065874D01*
X113048554Y-117120864D01*
X113138877Y-117324206D01*
X113267135Y-117506020D01*
X113428399Y-117659318D01*
X113616471Y-117778210D01*
X113824124Y-117858126D01*
X113999000Y-117733129D01*
X113999000Y-116891000D01*
X114253000Y-116891000D01*
X114253000Y-117733129D01*
X114427876Y-117858126D01*
X114635529Y-117778210D01*
X114823601Y-117659318D01*
X114984865Y-117506020D01*
X115113123Y-117324206D01*
X115203446Y-117120864D01*
X115220119Y-117065874D01*
X115093954Y-116891000D01*
X114253000Y-116891000D01*
X113999000Y-116891000D01*
X113158046Y-116891000D01*
X113031881Y-117065874D01*
X106767455Y-117065874D01*
X104716072Y-115014492D01*
X104716072Y-114300000D01*
X104703812Y-114175518D01*
X104667502Y-114055820D01*
X104608537Y-113945506D01*
X104576306Y-113906232D01*
X104680102Y-113949226D01*
G37*
%TD.AperFunction*%
D23*
X105415000Y-100730250D02*
X105573750Y-100889000D01*
X106598000Y-100889000D01*
X106598000Y-100660000D01*
X106852000Y-100660000D01*
X106852000Y-100889000D01*
X107876250Y-100889000D01*
X108035000Y-100730250D01*
X108035119Y-100660000D01*
X121340000Y-100660000D01*
X121340000Y-103283012D01*
X121339939Y-103283000D01*
X121136061Y-103283000D01*
X120936102Y-103322774D01*
X120747744Y-103400795D01*
X120578226Y-103514063D01*
X120434063Y-103658226D01*
X120378884Y-103740807D01*
X120322180Y-103710498D01*
X120202482Y-103674188D01*
X120078000Y-103661928D01*
X119363750Y-103665000D01*
X119205000Y-103823750D01*
X119205000Y-104673000D01*
X119225000Y-104673000D01*
X119225000Y-104927000D01*
X119205000Y-104927000D01*
X119205000Y-104947000D01*
X118951000Y-104947000D01*
X118951000Y-104927000D01*
X117601750Y-104927000D01*
X117443000Y-105085750D01*
X117439928Y-105300000D01*
X117452188Y-105424482D01*
X117488498Y-105544180D01*
X117547463Y-105654494D01*
X117626815Y-105751185D01*
X117686296Y-105800000D01*
X117626815Y-105848815D01*
X117547463Y-105945506D01*
X117488498Y-106055820D01*
X117452188Y-106175518D01*
X117439928Y-106300000D01*
X117439928Y-107300000D01*
X117452188Y-107424482D01*
X117488498Y-107544180D01*
X117515426Y-107594559D01*
X116217446Y-106296579D01*
X116191291Y-106264709D01*
X116064146Y-106160364D01*
X115919087Y-106082828D01*
X115761689Y-106035082D01*
X115639019Y-106023000D01*
X115639018Y-106023000D01*
X115598000Y-106018960D01*
X115556982Y-106023000D01*
X112643018Y-106023000D01*
X112601999Y-106018960D01*
X112560981Y-106023000D01*
X112438311Y-106035082D01*
X112280913Y-106082828D01*
X112135854Y-106160364D01*
X112008709Y-106264709D01*
X111982559Y-106296573D01*
X110424460Y-107854673D01*
X110268102Y-107885774D01*
X110079744Y-107963795D01*
X109910226Y-108077063D01*
X109766063Y-108221226D01*
X109652795Y-108390744D01*
X109574774Y-108579102D01*
X109535000Y-108779061D01*
X109535000Y-108982939D01*
X109574774Y-109182898D01*
X109652795Y-109371256D01*
X109766063Y-109540774D01*
X109910226Y-109684937D01*
X110079744Y-109798205D01*
X110268102Y-109876226D01*
X110468061Y-109916000D01*
X110671939Y-109916000D01*
X110871898Y-109876226D01*
X111060256Y-109798205D01*
X111229774Y-109684937D01*
X111373937Y-109540774D01*
X111487205Y-109371256D01*
X111565226Y-109182898D01*
X111591858Y-109049009D01*
X112947868Y-107693000D01*
X112987928Y-107693000D01*
X112987928Y-108374000D01*
X113000188Y-108498482D01*
X113036498Y-108618180D01*
X113080888Y-108701226D01*
X113034617Y-108812933D01*
X112991000Y-109032212D01*
X112991000Y-109255788D01*
X113034617Y-109475067D01*
X113120176Y-109681624D01*
X113185241Y-109779000D01*
X113120176Y-109876376D01*
X113034617Y-110082933D01*
X112991000Y-110302212D01*
X112991000Y-110525788D01*
X113034617Y-110745067D01*
X113120176Y-110951624D01*
X113185241Y-111049000D01*
X113120176Y-111146376D01*
X113034617Y-111352933D01*
X112991000Y-111572212D01*
X112991000Y-111576130D01*
X112464131Y-112103000D01*
X109446579Y-112103000D01*
X106864098Y-109520520D01*
X106836381Y-109486747D01*
X106701623Y-109376153D01*
X106547877Y-109293975D01*
X106381054Y-109243369D01*
X106251041Y-109230564D01*
X106251033Y-109230564D01*
X106207564Y-109226283D01*
X106164095Y-109230564D01*
X105520454Y-109230564D01*
X105472256Y-109198359D01*
X105283898Y-109120338D01*
X105083939Y-109080564D01*
X104880061Y-109080564D01*
X104716072Y-109113183D01*
X104716072Y-108300000D01*
X104703812Y-108175518D01*
X104667502Y-108055820D01*
X104608537Y-107945506D01*
X104529185Y-107848815D01*
X104469704Y-107800000D01*
X104529185Y-107751185D01*
X104608537Y-107654494D01*
X104667502Y-107544180D01*
X104703812Y-107424482D01*
X104716072Y-107300000D01*
X104713000Y-107085750D01*
X104554250Y-106927000D01*
X103205000Y-106927000D01*
X103205000Y-106947000D01*
X102951000Y-106947000D01*
X102951000Y-106927000D01*
X101601750Y-106927000D01*
X101443000Y-107085750D01*
X101439928Y-107300000D01*
X101452188Y-107424482D01*
X101488498Y-107544180D01*
X101547463Y-107654494D01*
X101626815Y-107751185D01*
X101686296Y-107800000D01*
X101626815Y-107848815D01*
X101547463Y-107945506D01*
X101488498Y-108055820D01*
X101452188Y-108175518D01*
X101448695Y-108210984D01*
X101323774Y-108086063D01*
X101154256Y-107972795D01*
X100965898Y-107894774D01*
X100765939Y-107855000D01*
X100660000Y-107855000D01*
X100660000Y-103752020D01*
X100789250Y-103751000D01*
X100948000Y-103592250D01*
X100948000Y-102596091D01*
X101202000Y-102342091D01*
X101202000Y-103592250D01*
X101360750Y-103751000D01*
X101750000Y-103754072D01*
X101752820Y-103753794D01*
X101723506Y-103769463D01*
X101626815Y-103848815D01*
X101547463Y-103945506D01*
X101488498Y-104055820D01*
X101452188Y-104175518D01*
X101439928Y-104300000D01*
X101439928Y-105300000D01*
X101452188Y-105424482D01*
X101488498Y-105544180D01*
X101547463Y-105654494D01*
X101626815Y-105751185D01*
X101686296Y-105800000D01*
X101626815Y-105848815D01*
X101547463Y-105945506D01*
X101488498Y-106055820D01*
X101452188Y-106175518D01*
X101439928Y-106300000D01*
X101443000Y-106514250D01*
X101601750Y-106673000D01*
X102951000Y-106673000D01*
X102951000Y-106653000D01*
X103205000Y-106653000D01*
X103205000Y-106673000D01*
X104554250Y-106673000D01*
X104713000Y-106514250D01*
X104716072Y-106300000D01*
X104703812Y-106175518D01*
X104667502Y-106055820D01*
X104608537Y-105945506D01*
X104529185Y-105848815D01*
X104469704Y-105800000D01*
X104529185Y-105751185D01*
X104608537Y-105654494D01*
X104667502Y-105544180D01*
X104703812Y-105424482D01*
X104716072Y-105300000D01*
X104716072Y-104300000D01*
X117439928Y-104300000D01*
X117443000Y-104514250D01*
X117601750Y-104673000D01*
X118951000Y-104673000D01*
X118951000Y-103823750D01*
X118792250Y-103665000D01*
X118078000Y-103661928D01*
X117953518Y-103674188D01*
X117833820Y-103710498D01*
X117723506Y-103769463D01*
X117626815Y-103848815D01*
X117547463Y-103945506D01*
X117488498Y-104055820D01*
X117452188Y-104175518D01*
X117439928Y-104300000D01*
X104716072Y-104300000D01*
X104703812Y-104175518D01*
X104667502Y-104055820D01*
X104608537Y-103945506D01*
X104529185Y-103848815D01*
X104432494Y-103769463D01*
X104322180Y-103710498D01*
X104202482Y-103674188D01*
X104078000Y-103661928D01*
X103963000Y-103661928D01*
X103963000Y-103286578D01*
X103995506Y-103254072D01*
X104535000Y-103254072D01*
X104659482Y-103241812D01*
X104779180Y-103205502D01*
X104889494Y-103146537D01*
X104926703Y-103116000D01*
X105411928Y-103116000D01*
X105424188Y-103240482D01*
X105460498Y-103360180D01*
X105519463Y-103470494D01*
X105598815Y-103567185D01*
X105695506Y-103646537D01*
X105805820Y-103705502D01*
X105925518Y-103741812D01*
X106050000Y-103754072D01*
X106439250Y-103751000D01*
X106598000Y-103592250D01*
X106598000Y-101143000D01*
X106852000Y-101143000D01*
X106852000Y-103592250D01*
X107010750Y-103751000D01*
X107400000Y-103754072D01*
X107524482Y-103741812D01*
X107644180Y-103705502D01*
X107754494Y-103646537D01*
X107851185Y-103567185D01*
X107930537Y-103470494D01*
X107989502Y-103360180D01*
X108025812Y-103240482D01*
X108038072Y-103116000D01*
X108035000Y-101301750D01*
X107876250Y-101143000D01*
X106852000Y-101143000D01*
X106598000Y-101143000D01*
X105573750Y-101143000D01*
X105415000Y-101301750D01*
X105411928Y-103116000D01*
X104926703Y-103116000D01*
X104986185Y-103067185D01*
X105065537Y-102970494D01*
X105124502Y-102860180D01*
X105160812Y-102740482D01*
X105173072Y-102616000D01*
X105173072Y-100660000D01*
X105414881Y-100660000D01*
X105415000Y-100730250D01*
%TA.AperFunction,Conductor*%
D24*
G36*
X105415000Y-100730250D02*
G01*
X105573750Y-100889000D01*
X106598000Y-100889000D01*
X106598000Y-100660000D01*
X106852000Y-100660000D01*
X106852000Y-100889000D01*
X107876250Y-100889000D01*
X108035000Y-100730250D01*
X108035119Y-100660000D01*
X121340000Y-100660000D01*
X121340000Y-103283012D01*
X121339939Y-103283000D01*
X121136061Y-103283000D01*
X120936102Y-103322774D01*
X120747744Y-103400795D01*
X120578226Y-103514063D01*
X120434063Y-103658226D01*
X120378884Y-103740807D01*
X120322180Y-103710498D01*
X120202482Y-103674188D01*
X120078000Y-103661928D01*
X119363750Y-103665000D01*
X119205000Y-103823750D01*
X119205000Y-104673000D01*
X119225000Y-104673000D01*
X119225000Y-104927000D01*
X119205000Y-104927000D01*
X119205000Y-104947000D01*
X118951000Y-104947000D01*
X118951000Y-104927000D01*
X117601750Y-104927000D01*
X117443000Y-105085750D01*
X117439928Y-105300000D01*
X117452188Y-105424482D01*
X117488498Y-105544180D01*
X117547463Y-105654494D01*
X117626815Y-105751185D01*
X117686296Y-105800000D01*
X117626815Y-105848815D01*
X117547463Y-105945506D01*
X117488498Y-106055820D01*
X117452188Y-106175518D01*
X117439928Y-106300000D01*
X117439928Y-107300000D01*
X117452188Y-107424482D01*
X117488498Y-107544180D01*
X117515426Y-107594559D01*
X116217446Y-106296579D01*
X116191291Y-106264709D01*
X116064146Y-106160364D01*
X115919087Y-106082828D01*
X115761689Y-106035082D01*
X115639019Y-106023000D01*
X115639018Y-106023000D01*
X115598000Y-106018960D01*
X115556982Y-106023000D01*
X112643018Y-106023000D01*
X112601999Y-106018960D01*
X112560981Y-106023000D01*
X112438311Y-106035082D01*
X112280913Y-106082828D01*
X112135854Y-106160364D01*
X112008709Y-106264709D01*
X111982559Y-106296573D01*
X110424460Y-107854673D01*
X110268102Y-107885774D01*
X110079744Y-107963795D01*
X109910226Y-108077063D01*
X109766063Y-108221226D01*
X109652795Y-108390744D01*
X109574774Y-108579102D01*
X109535000Y-108779061D01*
X109535000Y-108982939D01*
X109574774Y-109182898D01*
X109652795Y-109371256D01*
X109766063Y-109540774D01*
X109910226Y-109684937D01*
X110079744Y-109798205D01*
X110268102Y-109876226D01*
X110468061Y-109916000D01*
X110671939Y-109916000D01*
X110871898Y-109876226D01*
X111060256Y-109798205D01*
X111229774Y-109684937D01*
X111373937Y-109540774D01*
X111487205Y-109371256D01*
X111565226Y-109182898D01*
X111591858Y-109049009D01*
X112947868Y-107693000D01*
X112987928Y-107693000D01*
X112987928Y-108374000D01*
X113000188Y-108498482D01*
X113036498Y-108618180D01*
X113080888Y-108701226D01*
X113034617Y-108812933D01*
X112991000Y-109032212D01*
X112991000Y-109255788D01*
X113034617Y-109475067D01*
X113120176Y-109681624D01*
X113185241Y-109779000D01*
X113120176Y-109876376D01*
X113034617Y-110082933D01*
X112991000Y-110302212D01*
X112991000Y-110525788D01*
X113034617Y-110745067D01*
X113120176Y-110951624D01*
X113185241Y-111049000D01*
X113120176Y-111146376D01*
X113034617Y-111352933D01*
X112991000Y-111572212D01*
X112991000Y-111576130D01*
X112464131Y-112103000D01*
X109446579Y-112103000D01*
X106864098Y-109520520D01*
X106836381Y-109486747D01*
X106701623Y-109376153D01*
X106547877Y-109293975D01*
X106381054Y-109243369D01*
X106251041Y-109230564D01*
X106251033Y-109230564D01*
X106207564Y-109226283D01*
X106164095Y-109230564D01*
X105520454Y-109230564D01*
X105472256Y-109198359D01*
X105283898Y-109120338D01*
X105083939Y-109080564D01*
X104880061Y-109080564D01*
X104716072Y-109113183D01*
X104716072Y-108300000D01*
X104703812Y-108175518D01*
X104667502Y-108055820D01*
X104608537Y-107945506D01*
X104529185Y-107848815D01*
X104469704Y-107800000D01*
X104529185Y-107751185D01*
X104608537Y-107654494D01*
X104667502Y-107544180D01*
X104703812Y-107424482D01*
X104716072Y-107300000D01*
X104713000Y-107085750D01*
X104554250Y-106927000D01*
X103205000Y-106927000D01*
X103205000Y-106947000D01*
X102951000Y-106947000D01*
X102951000Y-106927000D01*
X101601750Y-106927000D01*
X101443000Y-107085750D01*
X101439928Y-107300000D01*
X101452188Y-107424482D01*
X101488498Y-107544180D01*
X101547463Y-107654494D01*
X101626815Y-107751185D01*
X101686296Y-107800000D01*
X101626815Y-107848815D01*
X101547463Y-107945506D01*
X101488498Y-108055820D01*
X101452188Y-108175518D01*
X101448695Y-108210984D01*
X101323774Y-108086063D01*
X101154256Y-107972795D01*
X100965898Y-107894774D01*
X100765939Y-107855000D01*
X100660000Y-107855000D01*
X100660000Y-103752020D01*
X100789250Y-103751000D01*
X100948000Y-103592250D01*
X100948000Y-102596091D01*
X101202000Y-102342091D01*
X101202000Y-103592250D01*
X101360750Y-103751000D01*
X101750000Y-103754072D01*
X101752820Y-103753794D01*
X101723506Y-103769463D01*
X101626815Y-103848815D01*
X101547463Y-103945506D01*
X101488498Y-104055820D01*
X101452188Y-104175518D01*
X101439928Y-104300000D01*
X101439928Y-105300000D01*
X101452188Y-105424482D01*
X101488498Y-105544180D01*
X101547463Y-105654494D01*
X101626815Y-105751185D01*
X101686296Y-105800000D01*
X101626815Y-105848815D01*
X101547463Y-105945506D01*
X101488498Y-106055820D01*
X101452188Y-106175518D01*
X101439928Y-106300000D01*
X101443000Y-106514250D01*
X101601750Y-106673000D01*
X102951000Y-106673000D01*
X102951000Y-106653000D01*
X103205000Y-106653000D01*
X103205000Y-106673000D01*
X104554250Y-106673000D01*
X104713000Y-106514250D01*
X104716072Y-106300000D01*
X104703812Y-106175518D01*
X104667502Y-106055820D01*
X104608537Y-105945506D01*
X104529185Y-105848815D01*
X104469704Y-105800000D01*
X104529185Y-105751185D01*
X104608537Y-105654494D01*
X104667502Y-105544180D01*
X104703812Y-105424482D01*
X104716072Y-105300000D01*
X104716072Y-104300000D01*
X117439928Y-104300000D01*
X117443000Y-104514250D01*
X117601750Y-104673000D01*
X118951000Y-104673000D01*
X118951000Y-103823750D01*
X118792250Y-103665000D01*
X118078000Y-103661928D01*
X117953518Y-103674188D01*
X117833820Y-103710498D01*
X117723506Y-103769463D01*
X117626815Y-103848815D01*
X117547463Y-103945506D01*
X117488498Y-104055820D01*
X117452188Y-104175518D01*
X117439928Y-104300000D01*
X104716072Y-104300000D01*
X104703812Y-104175518D01*
X104667502Y-104055820D01*
X104608537Y-103945506D01*
X104529185Y-103848815D01*
X104432494Y-103769463D01*
X104322180Y-103710498D01*
X104202482Y-103674188D01*
X104078000Y-103661928D01*
X103963000Y-103661928D01*
X103963000Y-103286578D01*
X103995506Y-103254072D01*
X104535000Y-103254072D01*
X104659482Y-103241812D01*
X104779180Y-103205502D01*
X104889494Y-103146537D01*
X104926703Y-103116000D01*
X105411928Y-103116000D01*
X105424188Y-103240482D01*
X105460498Y-103360180D01*
X105519463Y-103470494D01*
X105598815Y-103567185D01*
X105695506Y-103646537D01*
X105805820Y-103705502D01*
X105925518Y-103741812D01*
X106050000Y-103754072D01*
X106439250Y-103751000D01*
X106598000Y-103592250D01*
X106598000Y-101143000D01*
X106852000Y-101143000D01*
X106852000Y-103592250D01*
X107010750Y-103751000D01*
X107400000Y-103754072D01*
X107524482Y-103741812D01*
X107644180Y-103705502D01*
X107754494Y-103646537D01*
X107851185Y-103567185D01*
X107930537Y-103470494D01*
X107989502Y-103360180D01*
X108025812Y-103240482D01*
X108038072Y-103116000D01*
X108035000Y-101301750D01*
X107876250Y-101143000D01*
X106852000Y-101143000D01*
X106598000Y-101143000D01*
X105573750Y-101143000D01*
X105415000Y-101301750D01*
X105411928Y-103116000D01*
X104926703Y-103116000D01*
X104986185Y-103067185D01*
X105065537Y-102970494D01*
X105124502Y-102860180D01*
X105160812Y-102740482D01*
X105173072Y-102616000D01*
X105173072Y-100660000D01*
X105414881Y-100660000D01*
X105415000Y-100730250D01*
G37*
%TD.AperFunction*%
%TD*%
M02*
