%TF.GenerationSoftware,KiCad,Pcbnew,(5.1.10)-1*%
%TF.CreationDate,2022-02-17T21:59:24+01:00*%
%TF.ProjectId,TinyLora102,54696e79-4c6f-4726-9131-30322e6b6963,rev?*%
%TF.SameCoordinates,Original*%
%TF.FileFunction,Legend,Top*%
%TF.FilePolarity,Positive*%
%FSLAX46Y46*%
G04 Gerber Fmt 4.6, Leading zero omitted, Abs format (unit mm)*
G04 Created by KiCad (PCBNEW (5.1.10)-1) date 2022-02-17 21:59:24*
%MOMM*%
%LPD*%
G01*
G04 APERTURE LIST*
%ADD10C,0.300000*%
%ADD11C,0.150000*%
%ADD12C,0.120000*%
%ADD13C,0.010000*%
G04 APERTURE END LIST*
D10*
X120285428Y-122205142D02*
X119142571Y-122205142D01*
X120285428Y-123983142D02*
X119142571Y-123983142D01*
X119714000Y-124554571D02*
X119714000Y-123411714D01*
D11*
X116372380Y-117827047D02*
X117086666Y-117827047D01*
X117229523Y-117874666D01*
X117324761Y-117969904D01*
X117372380Y-118112761D01*
X117372380Y-118208000D01*
X117372380Y-116874666D02*
X117372380Y-117350857D01*
X116372380Y-117350857D01*
X117277142Y-115969904D02*
X117324761Y-116017523D01*
X117372380Y-116160380D01*
X117372380Y-116255619D01*
X117324761Y-116398476D01*
X117229523Y-116493714D01*
X117134285Y-116541333D01*
X116943809Y-116588952D01*
X116800952Y-116588952D01*
X116610476Y-116541333D01*
X116515238Y-116493714D01*
X116420000Y-116398476D01*
X116372380Y-116255619D01*
X116372380Y-116160380D01*
X116420000Y-116017523D01*
X116467619Y-115969904D01*
X116372380Y-115255619D02*
X117086666Y-115255619D01*
X117229523Y-115303238D01*
X117324761Y-115398476D01*
X117372380Y-115541333D01*
X117372380Y-115636571D01*
X117372380Y-114303238D02*
X117372380Y-114779428D01*
X116372380Y-114779428D01*
X117277142Y-113398476D02*
X117324761Y-113446095D01*
X117372380Y-113588952D01*
X117372380Y-113684190D01*
X117324761Y-113827047D01*
X117229523Y-113922285D01*
X117134285Y-113969904D01*
X116943809Y-114017523D01*
X116800952Y-114017523D01*
X116610476Y-113969904D01*
X116515238Y-113922285D01*
X116420000Y-113827047D01*
X116372380Y-113684190D01*
X116372380Y-113588952D01*
X116420000Y-113446095D01*
X116467619Y-113398476D01*
X116372380Y-112684190D02*
X117086666Y-112684190D01*
X117229523Y-112731809D01*
X117324761Y-112827047D01*
X117372380Y-112969904D01*
X117372380Y-113065142D01*
X117372380Y-111731809D02*
X117372380Y-112208000D01*
X116372380Y-112208000D01*
X117277142Y-110827047D02*
X117324761Y-110874666D01*
X117372380Y-111017523D01*
X117372380Y-111112761D01*
X117324761Y-111255619D01*
X117229523Y-111350857D01*
X117134285Y-111398476D01*
X116943809Y-111446095D01*
X116800952Y-111446095D01*
X116610476Y-111398476D01*
X116515238Y-111350857D01*
X116420000Y-111255619D01*
X116372380Y-111112761D01*
X116372380Y-111017523D01*
X116420000Y-110874666D01*
X116467619Y-110827047D01*
X116372380Y-110112761D02*
X117086666Y-110112761D01*
X117229523Y-110160380D01*
X117324761Y-110255619D01*
X117372380Y-110398476D01*
X117372380Y-110493714D01*
X117372380Y-109160380D02*
X117372380Y-109636571D01*
X116372380Y-109636571D01*
X117277142Y-108255619D02*
X117324761Y-108303238D01*
X117372380Y-108446095D01*
X117372380Y-108541333D01*
X117324761Y-108684190D01*
X117229523Y-108779428D01*
X117134285Y-108827047D01*
X116943809Y-108874666D01*
X116800952Y-108874666D01*
X116610476Y-108827047D01*
X116515238Y-108779428D01*
X116420000Y-108684190D01*
X116372380Y-108541333D01*
X116372380Y-108446095D01*
X116420000Y-108303238D01*
X116467619Y-108255619D01*
X105317595Y-106298380D02*
X105317595Y-105298380D01*
X105984261Y-105298380D02*
X106174738Y-105298380D01*
X106269976Y-105346000D01*
X106365214Y-105441238D01*
X106412833Y-105631714D01*
X106412833Y-105965047D01*
X106365214Y-106155523D01*
X106269976Y-106250761D01*
X106174738Y-106298380D01*
X105984261Y-106298380D01*
X105889023Y-106250761D01*
X105793785Y-106155523D01*
X105746166Y-105965047D01*
X105746166Y-105631714D01*
X105793785Y-105441238D01*
X105889023Y-105346000D01*
X105984261Y-105298380D01*
X107365214Y-106298380D02*
X106793785Y-106298380D01*
X107079500Y-106298380D02*
X107079500Y-105298380D01*
X106984261Y-105441238D01*
X106889023Y-105536476D01*
X106793785Y-105584095D01*
X107746166Y-105393619D02*
X107793785Y-105346000D01*
X107889023Y-105298380D01*
X108127119Y-105298380D01*
X108222357Y-105346000D01*
X108269976Y-105393619D01*
X108317595Y-105488857D01*
X108317595Y-105584095D01*
X108269976Y-105726952D01*
X107698547Y-106298380D01*
X108317595Y-106298380D01*
X109508071Y-106298380D02*
X109508071Y-105298380D01*
X110079500Y-106298380D01*
X110079500Y-105298380D01*
X110508071Y-106250761D02*
X110650928Y-106298380D01*
X110889023Y-106298380D01*
X110984261Y-106250761D01*
X111031880Y-106203142D01*
X111079500Y-106107904D01*
X111079500Y-106012666D01*
X111031880Y-105917428D01*
X110984261Y-105869809D01*
X110889023Y-105822190D01*
X110698547Y-105774571D01*
X110603309Y-105726952D01*
X110555690Y-105679333D01*
X110508071Y-105584095D01*
X110508071Y-105488857D01*
X110555690Y-105393619D01*
X110603309Y-105346000D01*
X110698547Y-105298380D01*
X110936642Y-105298380D01*
X111079500Y-105346000D01*
X111460452Y-106250761D02*
X111603309Y-106298380D01*
X111841404Y-106298380D01*
X111936642Y-106250761D01*
X111984261Y-106203142D01*
X112031880Y-106107904D01*
X112031880Y-106012666D01*
X111984261Y-105917428D01*
X111936642Y-105869809D01*
X111841404Y-105822190D01*
X111650928Y-105774571D01*
X111555690Y-105726952D01*
X111508071Y-105679333D01*
X111460452Y-105584095D01*
X111460452Y-105488857D01*
X111508071Y-105393619D01*
X111555690Y-105346000D01*
X111650928Y-105298380D01*
X111889023Y-105298380D01*
X112031880Y-105346000D01*
X105317595Y-107948380D02*
X105317595Y-106948380D01*
X105984261Y-106948380D02*
X106174738Y-106948380D01*
X106269976Y-106996000D01*
X106365214Y-107091238D01*
X106412833Y-107281714D01*
X106412833Y-107615047D01*
X106365214Y-107805523D01*
X106269976Y-107900761D01*
X106174738Y-107948380D01*
X105984261Y-107948380D01*
X105889023Y-107900761D01*
X105793785Y-107805523D01*
X105746166Y-107615047D01*
X105746166Y-107281714D01*
X105793785Y-107091238D01*
X105889023Y-106996000D01*
X105984261Y-106948380D01*
X107365214Y-107948380D02*
X106793785Y-107948380D01*
X107079500Y-107948380D02*
X107079500Y-106948380D01*
X106984261Y-107091238D01*
X106889023Y-107186476D01*
X106793785Y-107234095D01*
X107936642Y-107376952D02*
X107841404Y-107329333D01*
X107793785Y-107281714D01*
X107746166Y-107186476D01*
X107746166Y-107138857D01*
X107793785Y-107043619D01*
X107841404Y-106996000D01*
X107936642Y-106948380D01*
X108127119Y-106948380D01*
X108222357Y-106996000D01*
X108269976Y-107043619D01*
X108317595Y-107138857D01*
X108317595Y-107186476D01*
X108269976Y-107281714D01*
X108222357Y-107329333D01*
X108127119Y-107376952D01*
X107936642Y-107376952D01*
X107841404Y-107424571D01*
X107793785Y-107472190D01*
X107746166Y-107567428D01*
X107746166Y-107757904D01*
X107793785Y-107853142D01*
X107841404Y-107900761D01*
X107936642Y-107948380D01*
X108127119Y-107948380D01*
X108222357Y-107900761D01*
X108269976Y-107853142D01*
X108317595Y-107757904D01*
X108317595Y-107567428D01*
X108269976Y-107472190D01*
X108222357Y-107424571D01*
X108127119Y-107376952D01*
X109508071Y-107948380D02*
X109508071Y-106948380D01*
X109841404Y-107662666D01*
X110174738Y-106948380D01*
X110174738Y-107948380D01*
X110841404Y-106948380D02*
X111031880Y-106948380D01*
X111127119Y-106996000D01*
X111222357Y-107091238D01*
X111269976Y-107281714D01*
X111269976Y-107615047D01*
X111222357Y-107805523D01*
X111127119Y-107900761D01*
X111031880Y-107948380D01*
X110841404Y-107948380D01*
X110746166Y-107900761D01*
X110650928Y-107805523D01*
X110603309Y-107615047D01*
X110603309Y-107281714D01*
X110650928Y-107091238D01*
X110746166Y-106996000D01*
X110841404Y-106948380D01*
X111650928Y-107900761D02*
X111793785Y-107948380D01*
X112031880Y-107948380D01*
X112127119Y-107900761D01*
X112174738Y-107853142D01*
X112222357Y-107757904D01*
X112222357Y-107662666D01*
X112174738Y-107567428D01*
X112127119Y-107519809D01*
X112031880Y-107472190D01*
X111841404Y-107424571D01*
X111746166Y-107376952D01*
X111698547Y-107329333D01*
X111650928Y-107234095D01*
X111650928Y-107138857D01*
X111698547Y-107043619D01*
X111746166Y-106996000D01*
X111841404Y-106948380D01*
X112079500Y-106948380D01*
X112222357Y-106996000D01*
X112650928Y-107948380D02*
X112650928Y-106948380D01*
X105317595Y-109598380D02*
X105317595Y-108598380D01*
X105984261Y-108598380D02*
X106174738Y-108598380D01*
X106269976Y-108646000D01*
X106365214Y-108741238D01*
X106412833Y-108931714D01*
X106412833Y-109265047D01*
X106365214Y-109455523D01*
X106269976Y-109550761D01*
X106174738Y-109598380D01*
X105984261Y-109598380D01*
X105889023Y-109550761D01*
X105793785Y-109455523D01*
X105746166Y-109265047D01*
X105746166Y-108931714D01*
X105793785Y-108741238D01*
X105889023Y-108646000D01*
X105984261Y-108598380D01*
X106793785Y-108693619D02*
X106841404Y-108646000D01*
X106936642Y-108598380D01*
X107174738Y-108598380D01*
X107269976Y-108646000D01*
X107317595Y-108693619D01*
X107365214Y-108788857D01*
X107365214Y-108884095D01*
X107317595Y-109026952D01*
X106746166Y-109598380D01*
X107365214Y-109598380D01*
X107698547Y-108598380D02*
X108317595Y-108598380D01*
X107984261Y-108979333D01*
X108127119Y-108979333D01*
X108222357Y-109026952D01*
X108269976Y-109074571D01*
X108317595Y-109169809D01*
X108317595Y-109407904D01*
X108269976Y-109503142D01*
X108222357Y-109550761D01*
X108127119Y-109598380D01*
X107841404Y-109598380D01*
X107746166Y-109550761D01*
X107698547Y-109503142D01*
X110079500Y-109598380D02*
X109746166Y-109122190D01*
X109508071Y-109598380D02*
X109508071Y-108598380D01*
X109889023Y-108598380D01*
X109984261Y-108646000D01*
X110031880Y-108693619D01*
X110079500Y-108788857D01*
X110079500Y-108931714D01*
X110031880Y-109026952D01*
X109984261Y-109074571D01*
X109889023Y-109122190D01*
X109508071Y-109122190D01*
X110460452Y-109550761D02*
X110603309Y-109598380D01*
X110841404Y-109598380D01*
X110936642Y-109550761D01*
X110984261Y-109503142D01*
X111031880Y-109407904D01*
X111031880Y-109312666D01*
X110984261Y-109217428D01*
X110936642Y-109169809D01*
X110841404Y-109122190D01*
X110650928Y-109074571D01*
X110555690Y-109026952D01*
X110508071Y-108979333D01*
X110460452Y-108884095D01*
X110460452Y-108788857D01*
X110508071Y-108693619D01*
X110555690Y-108646000D01*
X110650928Y-108598380D01*
X110889023Y-108598380D01*
X111031880Y-108646000D01*
X111317595Y-108598380D02*
X111889023Y-108598380D01*
X111603309Y-109598380D02*
X111603309Y-108598380D01*
X105317595Y-111248380D02*
X105317595Y-110248380D01*
X105984261Y-110248380D02*
X106174738Y-110248380D01*
X106269976Y-110296000D01*
X106365214Y-110391238D01*
X106412833Y-110581714D01*
X106412833Y-110915047D01*
X106365214Y-111105523D01*
X106269976Y-111200761D01*
X106174738Y-111248380D01*
X105984261Y-111248380D01*
X105889023Y-111200761D01*
X105793785Y-111105523D01*
X105746166Y-110915047D01*
X105746166Y-110581714D01*
X105793785Y-110391238D01*
X105889023Y-110296000D01*
X105984261Y-110248380D01*
X106746166Y-110248380D02*
X107365214Y-110248380D01*
X107031880Y-110629333D01*
X107174738Y-110629333D01*
X107269976Y-110676952D01*
X107317595Y-110724571D01*
X107365214Y-110819809D01*
X107365214Y-111057904D01*
X107317595Y-111153142D01*
X107269976Y-111200761D01*
X107174738Y-111248380D01*
X106889023Y-111248380D01*
X106793785Y-111200761D01*
X106746166Y-111153142D01*
X107746166Y-110343619D02*
X107793785Y-110296000D01*
X107889023Y-110248380D01*
X108127119Y-110248380D01*
X108222357Y-110296000D01*
X108269976Y-110343619D01*
X108317595Y-110438857D01*
X108317595Y-110534095D01*
X108269976Y-110676952D01*
X107698547Y-111248380D01*
X108317595Y-111248380D01*
X109460452Y-111200761D02*
X109603309Y-111248380D01*
X109841404Y-111248380D01*
X109936642Y-111200761D01*
X109984261Y-111153142D01*
X110031880Y-111057904D01*
X110031880Y-110962666D01*
X109984261Y-110867428D01*
X109936642Y-110819809D01*
X109841404Y-110772190D01*
X109650928Y-110724571D01*
X109555690Y-110676952D01*
X109508071Y-110629333D01*
X109460452Y-110534095D01*
X109460452Y-110438857D01*
X109508071Y-110343619D01*
X109555690Y-110296000D01*
X109650928Y-110248380D01*
X109889023Y-110248380D01*
X110031880Y-110296000D01*
X111031880Y-111153142D02*
X110984261Y-111200761D01*
X110841404Y-111248380D01*
X110746166Y-111248380D01*
X110603309Y-111200761D01*
X110508071Y-111105523D01*
X110460452Y-111010285D01*
X110412833Y-110819809D01*
X110412833Y-110676952D01*
X110460452Y-110486476D01*
X110508071Y-110391238D01*
X110603309Y-110296000D01*
X110746166Y-110248380D01*
X110841404Y-110248380D01*
X110984261Y-110296000D01*
X111031880Y-110343619D01*
X111460452Y-111248380D02*
X111460452Y-110248380D01*
X112031880Y-111248380D02*
X111603309Y-110676952D01*
X112031880Y-110248380D02*
X111460452Y-110819809D01*
X105317595Y-112898380D02*
X105317595Y-111898380D01*
X105984261Y-111898380D02*
X106174738Y-111898380D01*
X106269976Y-111946000D01*
X106365214Y-112041238D01*
X106412833Y-112231714D01*
X106412833Y-112565047D01*
X106365214Y-112755523D01*
X106269976Y-112850761D01*
X106174738Y-112898380D01*
X105984261Y-112898380D01*
X105889023Y-112850761D01*
X105793785Y-112755523D01*
X105746166Y-112565047D01*
X105746166Y-112231714D01*
X105793785Y-112041238D01*
X105889023Y-111946000D01*
X105984261Y-111898380D01*
X106746166Y-111898380D02*
X107365214Y-111898380D01*
X107031880Y-112279333D01*
X107174738Y-112279333D01*
X107269976Y-112326952D01*
X107317595Y-112374571D01*
X107365214Y-112469809D01*
X107365214Y-112707904D01*
X107317595Y-112803142D01*
X107269976Y-112850761D01*
X107174738Y-112898380D01*
X106889023Y-112898380D01*
X106793785Y-112850761D01*
X106746166Y-112803142D01*
X107698547Y-111898380D02*
X108317595Y-111898380D01*
X107984261Y-112279333D01*
X108127119Y-112279333D01*
X108222357Y-112326952D01*
X108269976Y-112374571D01*
X108317595Y-112469809D01*
X108317595Y-112707904D01*
X108269976Y-112803142D01*
X108222357Y-112850761D01*
X108127119Y-112898380D01*
X107841404Y-112898380D01*
X107746166Y-112850761D01*
X107698547Y-112803142D01*
X109508071Y-112898380D02*
X109508071Y-111898380D01*
X109746166Y-111898380D01*
X109889023Y-111946000D01*
X109984261Y-112041238D01*
X110031880Y-112136476D01*
X110079500Y-112326952D01*
X110079500Y-112469809D01*
X110031880Y-112660285D01*
X109984261Y-112755523D01*
X109889023Y-112850761D01*
X109746166Y-112898380D01*
X109508071Y-112898380D01*
X110698547Y-111898380D02*
X110793785Y-111898380D01*
X110889023Y-111946000D01*
X110936642Y-111993619D01*
X110984261Y-112088857D01*
X111031880Y-112279333D01*
X111031880Y-112517428D01*
X110984261Y-112707904D01*
X110936642Y-112803142D01*
X110889023Y-112850761D01*
X110793785Y-112898380D01*
X110698547Y-112898380D01*
X110603309Y-112850761D01*
X110555690Y-112803142D01*
X110508071Y-112707904D01*
X110460452Y-112517428D01*
X110460452Y-112279333D01*
X110508071Y-112088857D01*
X110555690Y-111993619D01*
X110603309Y-111946000D01*
X110698547Y-111898380D01*
X105317595Y-114548380D02*
X105317595Y-113548380D01*
X105984261Y-113548380D02*
X106174738Y-113548380D01*
X106269976Y-113596000D01*
X106365214Y-113691238D01*
X106412833Y-113881714D01*
X106412833Y-114215047D01*
X106365214Y-114405523D01*
X106269976Y-114500761D01*
X106174738Y-114548380D01*
X105984261Y-114548380D01*
X105889023Y-114500761D01*
X105793785Y-114405523D01*
X105746166Y-114215047D01*
X105746166Y-113881714D01*
X105793785Y-113691238D01*
X105889023Y-113596000D01*
X105984261Y-113548380D01*
X106746166Y-113548380D02*
X107365214Y-113548380D01*
X107031880Y-113929333D01*
X107174738Y-113929333D01*
X107269976Y-113976952D01*
X107317595Y-114024571D01*
X107365214Y-114119809D01*
X107365214Y-114357904D01*
X107317595Y-114453142D01*
X107269976Y-114500761D01*
X107174738Y-114548380D01*
X106889023Y-114548380D01*
X106793785Y-114500761D01*
X106746166Y-114453142D01*
X107698547Y-113548380D02*
X108365214Y-113548380D01*
X107936642Y-114548380D01*
X109984261Y-114548380D02*
X109508071Y-114548380D01*
X109508071Y-113548380D01*
X110317595Y-114024571D02*
X110650928Y-114024571D01*
X110793785Y-114548380D02*
X110317595Y-114548380D01*
X110317595Y-113548380D01*
X110793785Y-113548380D01*
X111222357Y-114548380D02*
X111222357Y-113548380D01*
X111460452Y-113548380D01*
X111603309Y-113596000D01*
X111698547Y-113691238D01*
X111746166Y-113786476D01*
X111793785Y-113976952D01*
X111793785Y-114119809D01*
X111746166Y-114310285D01*
X111698547Y-114405523D01*
X111603309Y-114500761D01*
X111460452Y-114548380D01*
X111222357Y-114548380D01*
X105317595Y-116198380D02*
X105317595Y-115198380D01*
X105984261Y-115198380D02*
X106174738Y-115198380D01*
X106269976Y-115246000D01*
X106365214Y-115341238D01*
X106412833Y-115531714D01*
X106412833Y-115865047D01*
X106365214Y-116055523D01*
X106269976Y-116150761D01*
X106174738Y-116198380D01*
X105984261Y-116198380D01*
X105889023Y-116150761D01*
X105793785Y-116055523D01*
X105746166Y-115865047D01*
X105746166Y-115531714D01*
X105793785Y-115341238D01*
X105889023Y-115246000D01*
X105984261Y-115198380D01*
X106746166Y-115198380D02*
X107365214Y-115198380D01*
X107031880Y-115579333D01*
X107174738Y-115579333D01*
X107269976Y-115626952D01*
X107317595Y-115674571D01*
X107365214Y-115769809D01*
X107365214Y-116007904D01*
X107317595Y-116103142D01*
X107269976Y-116150761D01*
X107174738Y-116198380D01*
X106889023Y-116198380D01*
X106793785Y-116150761D01*
X106746166Y-116103142D01*
X107936642Y-115626952D02*
X107841404Y-115579333D01*
X107793785Y-115531714D01*
X107746166Y-115436476D01*
X107746166Y-115388857D01*
X107793785Y-115293619D01*
X107841404Y-115246000D01*
X107936642Y-115198380D01*
X108127119Y-115198380D01*
X108222357Y-115246000D01*
X108269976Y-115293619D01*
X108317595Y-115388857D01*
X108317595Y-115436476D01*
X108269976Y-115531714D01*
X108222357Y-115579333D01*
X108127119Y-115626952D01*
X107936642Y-115626952D01*
X107841404Y-115674571D01*
X107793785Y-115722190D01*
X107746166Y-115817428D01*
X107746166Y-116007904D01*
X107793785Y-116103142D01*
X107841404Y-116150761D01*
X107936642Y-116198380D01*
X108127119Y-116198380D01*
X108222357Y-116150761D01*
X108269976Y-116103142D01*
X108317595Y-116007904D01*
X108317595Y-115817428D01*
X108269976Y-115722190D01*
X108222357Y-115674571D01*
X108127119Y-115626952D01*
X109508071Y-116198380D02*
X109508071Y-115198380D01*
X109841404Y-115912666D01*
X110174738Y-115198380D01*
X110174738Y-116198380D01*
X110650928Y-116198380D02*
X110650928Y-115198380D01*
X111079500Y-116150761D02*
X111222357Y-116198380D01*
X111460452Y-116198380D01*
X111555690Y-116150761D01*
X111603309Y-116103142D01*
X111650928Y-116007904D01*
X111650928Y-115912666D01*
X111603309Y-115817428D01*
X111555690Y-115769809D01*
X111460452Y-115722190D01*
X111269976Y-115674571D01*
X111174738Y-115626952D01*
X111127119Y-115579333D01*
X111079500Y-115484095D01*
X111079500Y-115388857D01*
X111127119Y-115293619D01*
X111174738Y-115246000D01*
X111269976Y-115198380D01*
X111508071Y-115198380D01*
X111650928Y-115246000D01*
X112269976Y-115198380D02*
X112460452Y-115198380D01*
X112555690Y-115246000D01*
X112650928Y-115341238D01*
X112698547Y-115531714D01*
X112698547Y-115865047D01*
X112650928Y-116055523D01*
X112555690Y-116150761D01*
X112460452Y-116198380D01*
X112269976Y-116198380D01*
X112174738Y-116150761D01*
X112079500Y-116055523D01*
X112031880Y-115865047D01*
X112031880Y-115531714D01*
X112079500Y-115341238D01*
X112174738Y-115246000D01*
X112269976Y-115198380D01*
X105317595Y-117848380D02*
X105317595Y-116848380D01*
X105984261Y-116848380D02*
X106174738Y-116848380D01*
X106269976Y-116896000D01*
X106365214Y-116991238D01*
X106412833Y-117181714D01*
X106412833Y-117515047D01*
X106365214Y-117705523D01*
X106269976Y-117800761D01*
X106174738Y-117848380D01*
X105984261Y-117848380D01*
X105889023Y-117800761D01*
X105793785Y-117705523D01*
X105746166Y-117515047D01*
X105746166Y-117181714D01*
X105793785Y-116991238D01*
X105889023Y-116896000D01*
X105984261Y-116848380D01*
X106793785Y-116943619D02*
X106841404Y-116896000D01*
X106936642Y-116848380D01*
X107174738Y-116848380D01*
X107269976Y-116896000D01*
X107317595Y-116943619D01*
X107365214Y-117038857D01*
X107365214Y-117134095D01*
X107317595Y-117276952D01*
X106746166Y-117848380D01*
X107365214Y-117848380D01*
X108269976Y-116848380D02*
X107793785Y-116848380D01*
X107746166Y-117324571D01*
X107793785Y-117276952D01*
X107889023Y-117229333D01*
X108127119Y-117229333D01*
X108222357Y-117276952D01*
X108269976Y-117324571D01*
X108317595Y-117419809D01*
X108317595Y-117657904D01*
X108269976Y-117753142D01*
X108222357Y-117800761D01*
X108127119Y-117848380D01*
X107889023Y-117848380D01*
X107793785Y-117800761D01*
X107746166Y-117753142D01*
X109508071Y-117848380D02*
X109508071Y-116848380D01*
X109746166Y-116848380D01*
X109889023Y-116896000D01*
X109984261Y-116991238D01*
X110031880Y-117086476D01*
X110079500Y-117276952D01*
X110079500Y-117419809D01*
X110031880Y-117610285D01*
X109984261Y-117705523D01*
X109889023Y-117800761D01*
X109746166Y-117848380D01*
X109508071Y-117848380D01*
X110460452Y-117562666D02*
X110936642Y-117562666D01*
X110365214Y-117848380D02*
X110698547Y-116848380D01*
X111031880Y-117848380D01*
X111936642Y-117753142D02*
X111889023Y-117800761D01*
X111746166Y-117848380D01*
X111650928Y-117848380D01*
X111508071Y-117800761D01*
X111412833Y-117705523D01*
X111365214Y-117610285D01*
X111317595Y-117419809D01*
X111317595Y-117276952D01*
X111365214Y-117086476D01*
X111412833Y-116991238D01*
X111508071Y-116896000D01*
X111650928Y-116848380D01*
X111746166Y-116848380D01*
X111889023Y-116896000D01*
X111936642Y-116943619D01*
X112889023Y-117848380D02*
X112317595Y-117848380D01*
X112603309Y-117848380D02*
X112603309Y-116848380D01*
X112508071Y-116991238D01*
X112412833Y-117086476D01*
X112317595Y-117134095D01*
X105317595Y-119498380D02*
X105317595Y-118498380D01*
X105984261Y-118498380D02*
X106174738Y-118498380D01*
X106269976Y-118546000D01*
X106365214Y-118641238D01*
X106412833Y-118831714D01*
X106412833Y-119165047D01*
X106365214Y-119355523D01*
X106269976Y-119450761D01*
X106174738Y-119498380D01*
X105984261Y-119498380D01*
X105889023Y-119450761D01*
X105793785Y-119355523D01*
X105746166Y-119165047D01*
X105746166Y-118831714D01*
X105793785Y-118641238D01*
X105889023Y-118546000D01*
X105984261Y-118498380D01*
X106793785Y-118593619D02*
X106841404Y-118546000D01*
X106936642Y-118498380D01*
X107174738Y-118498380D01*
X107269976Y-118546000D01*
X107317595Y-118593619D01*
X107365214Y-118688857D01*
X107365214Y-118784095D01*
X107317595Y-118926952D01*
X106746166Y-119498380D01*
X107365214Y-119498380D01*
X108222357Y-118498380D02*
X108031880Y-118498380D01*
X107936642Y-118546000D01*
X107889023Y-118593619D01*
X107793785Y-118736476D01*
X107746166Y-118926952D01*
X107746166Y-119307904D01*
X107793785Y-119403142D01*
X107841404Y-119450761D01*
X107936642Y-119498380D01*
X108127119Y-119498380D01*
X108222357Y-119450761D01*
X108269976Y-119403142D01*
X108317595Y-119307904D01*
X108317595Y-119069809D01*
X108269976Y-118974571D01*
X108222357Y-118926952D01*
X108127119Y-118879333D01*
X107936642Y-118879333D01*
X107841404Y-118926952D01*
X107793785Y-118974571D01*
X107746166Y-119069809D01*
X109508071Y-119498380D02*
X109508071Y-118498380D01*
X109746166Y-118498380D01*
X109889023Y-118546000D01*
X109984261Y-118641238D01*
X110031880Y-118736476D01*
X110079500Y-118926952D01*
X110079500Y-119069809D01*
X110031880Y-119260285D01*
X109984261Y-119355523D01*
X109889023Y-119450761D01*
X109746166Y-119498380D01*
X109508071Y-119498380D01*
X110460452Y-119212666D02*
X110936642Y-119212666D01*
X110365214Y-119498380D02*
X110698547Y-118498380D01*
X111031880Y-119498380D01*
X111936642Y-119403142D02*
X111889023Y-119450761D01*
X111746166Y-119498380D01*
X111650928Y-119498380D01*
X111508071Y-119450761D01*
X111412833Y-119355523D01*
X111365214Y-119260285D01*
X111317595Y-119069809D01*
X111317595Y-118926952D01*
X111365214Y-118736476D01*
X111412833Y-118641238D01*
X111508071Y-118546000D01*
X111650928Y-118498380D01*
X111746166Y-118498380D01*
X111889023Y-118546000D01*
X111936642Y-118593619D01*
X112317595Y-118593619D02*
X112365214Y-118546000D01*
X112460452Y-118498380D01*
X112698547Y-118498380D01*
X112793785Y-118546000D01*
X112841404Y-118593619D01*
X112889023Y-118688857D01*
X112889023Y-118784095D01*
X112841404Y-118926952D01*
X112269976Y-119498380D01*
X112889023Y-119498380D01*
X110538857Y-102008190D02*
X110491238Y-101960571D01*
X110396000Y-101912952D01*
X110300761Y-101912952D01*
X110205523Y-101960571D01*
X110157904Y-102008190D01*
X110110285Y-102103428D01*
X110110285Y-102198666D01*
X110157904Y-102293904D01*
X110205523Y-102341523D01*
X110300761Y-102389142D01*
X110396000Y-102389142D01*
X110491238Y-102341523D01*
X110538857Y-102293904D01*
X110538857Y-101912952D02*
X110538857Y-102293904D01*
X110586476Y-102341523D01*
X110634095Y-102341523D01*
X110729333Y-102293904D01*
X110776952Y-102198666D01*
X110776952Y-101960571D01*
X110681714Y-101817714D01*
X110538857Y-101722476D01*
X110348380Y-101674857D01*
X110157904Y-101722476D01*
X110015047Y-101817714D01*
X109919809Y-101960571D01*
X109872190Y-102151047D01*
X109919809Y-102341523D01*
X110015047Y-102484380D01*
X110157904Y-102579619D01*
X110348380Y-102627238D01*
X110538857Y-102579619D01*
X110681714Y-102484380D01*
X111157904Y-102436761D02*
X111300761Y-102484380D01*
X111538857Y-102484380D01*
X111634095Y-102436761D01*
X111681714Y-102389142D01*
X111729333Y-102293904D01*
X111729333Y-102198666D01*
X111681714Y-102103428D01*
X111634095Y-102055809D01*
X111538857Y-102008190D01*
X111348380Y-101960571D01*
X111253142Y-101912952D01*
X111205523Y-101865333D01*
X111157904Y-101770095D01*
X111157904Y-101674857D01*
X111205523Y-101579619D01*
X111253142Y-101532000D01*
X111348380Y-101484380D01*
X111586476Y-101484380D01*
X111729333Y-101532000D01*
X112157904Y-101817714D02*
X112157904Y-102817714D01*
X112157904Y-101865333D02*
X112253142Y-101817714D01*
X112443619Y-101817714D01*
X112538857Y-101865333D01*
X112586476Y-101912952D01*
X112634095Y-102008190D01*
X112634095Y-102293904D01*
X112586476Y-102389142D01*
X112538857Y-102436761D01*
X112443619Y-102484380D01*
X112253142Y-102484380D01*
X112157904Y-102436761D01*
X113062666Y-102484380D02*
X113062666Y-101817714D01*
X113062666Y-101484380D02*
X113015047Y-101532000D01*
X113062666Y-101579619D01*
X113110285Y-101532000D01*
X113062666Y-101484380D01*
X113062666Y-101579619D01*
X113443619Y-101817714D02*
X113967428Y-101817714D01*
X113443619Y-102484380D01*
X113967428Y-102484380D01*
X114348380Y-102484380D02*
X114348380Y-101817714D01*
X114348380Y-101484380D02*
X114300761Y-101532000D01*
X114348380Y-101579619D01*
X114396000Y-101532000D01*
X114348380Y-101484380D01*
X114348380Y-101579619D01*
X115253142Y-101817714D02*
X115253142Y-102627238D01*
X115205523Y-102722476D01*
X115157904Y-102770095D01*
X115062666Y-102817714D01*
X114919809Y-102817714D01*
X114824571Y-102770095D01*
X115253142Y-102436761D02*
X115157904Y-102484380D01*
X114967428Y-102484380D01*
X114872190Y-102436761D01*
X114824571Y-102389142D01*
X114776952Y-102293904D01*
X114776952Y-102008190D01*
X114824571Y-101912952D01*
X114872190Y-101865333D01*
X114967428Y-101817714D01*
X115157904Y-101817714D01*
X115253142Y-101865333D01*
X116681714Y-101484380D02*
X116776952Y-101484380D01*
X116872190Y-101532000D01*
X116919809Y-101579619D01*
X116967428Y-101674857D01*
X117015047Y-101865333D01*
X117015047Y-102103428D01*
X116967428Y-102293904D01*
X116919809Y-102389142D01*
X116872190Y-102436761D01*
X116776952Y-102484380D01*
X116681714Y-102484380D01*
X116586476Y-102436761D01*
X116538857Y-102389142D01*
X116491238Y-102293904D01*
X116443619Y-102103428D01*
X116443619Y-101865333D01*
X116491238Y-101674857D01*
X116538857Y-101579619D01*
X116586476Y-101532000D01*
X116681714Y-101484380D01*
X117396000Y-101579619D02*
X117443619Y-101532000D01*
X117538857Y-101484380D01*
X117776952Y-101484380D01*
X117872190Y-101532000D01*
X117919809Y-101579619D01*
X117967428Y-101674857D01*
X117967428Y-101770095D01*
X117919809Y-101912952D01*
X117348380Y-102484380D01*
X117967428Y-102484380D01*
X119110285Y-101436761D02*
X118253142Y-102722476D01*
X119396000Y-101579619D02*
X119443619Y-101532000D01*
X119538857Y-101484380D01*
X119776952Y-101484380D01*
X119872190Y-101532000D01*
X119919809Y-101579619D01*
X119967428Y-101674857D01*
X119967428Y-101770095D01*
X119919809Y-101912952D01*
X119348380Y-102484380D01*
X119967428Y-102484380D01*
X120348380Y-101579619D02*
X120396000Y-101532000D01*
X120491238Y-101484380D01*
X120729333Y-101484380D01*
X120824571Y-101532000D01*
X120872190Y-101579619D01*
X120919809Y-101674857D01*
X120919809Y-101770095D01*
X120872190Y-101912952D01*
X120300761Y-102484380D01*
X120919809Y-102484380D01*
X101068761Y-135543904D02*
X101116380Y-135401047D01*
X101116380Y-135162952D01*
X101068761Y-135067714D01*
X101021142Y-135020095D01*
X100925904Y-134972476D01*
X100830666Y-134972476D01*
X100735428Y-135020095D01*
X100687809Y-135067714D01*
X100640190Y-135162952D01*
X100592571Y-135353428D01*
X100544952Y-135448666D01*
X100497333Y-135496285D01*
X100402095Y-135543904D01*
X100306857Y-135543904D01*
X100211619Y-135496285D01*
X100164000Y-135448666D01*
X100116380Y-135353428D01*
X100116380Y-135115333D01*
X100164000Y-134972476D01*
X101116380Y-134543904D02*
X100116380Y-134543904D01*
X100116380Y-134162952D01*
X100164000Y-134067714D01*
X100211619Y-134020095D01*
X100306857Y-133972476D01*
X100449714Y-133972476D01*
X100544952Y-134020095D01*
X100592571Y-134067714D01*
X100640190Y-134162952D01*
X100640190Y-134543904D01*
X101116380Y-133543904D02*
X100116380Y-133543904D01*
X101116380Y-132972476D02*
X100544952Y-133401047D01*
X100116380Y-132972476D02*
X100687809Y-133543904D01*
X100211619Y-132591523D02*
X100164000Y-132543904D01*
X100116380Y-132448666D01*
X100116380Y-132210571D01*
X100164000Y-132115333D01*
X100211619Y-132067714D01*
X100306857Y-132020095D01*
X100402095Y-132020095D01*
X100544952Y-132067714D01*
X101116380Y-132639142D01*
X101116380Y-132020095D01*
X101068761Y-130463904D02*
X101116380Y-130321047D01*
X101116380Y-130082952D01*
X101068761Y-129987714D01*
X101021142Y-129940095D01*
X100925904Y-129892476D01*
X100830666Y-129892476D01*
X100735428Y-129940095D01*
X100687809Y-129987714D01*
X100640190Y-130082952D01*
X100592571Y-130273428D01*
X100544952Y-130368666D01*
X100497333Y-130416285D01*
X100402095Y-130463904D01*
X100306857Y-130463904D01*
X100211619Y-130416285D01*
X100164000Y-130368666D01*
X100116380Y-130273428D01*
X100116380Y-130035333D01*
X100164000Y-129892476D01*
X101116380Y-129463904D02*
X100116380Y-129463904D01*
X100116380Y-129082952D01*
X100164000Y-128987714D01*
X100211619Y-128940095D01*
X100306857Y-128892476D01*
X100449714Y-128892476D01*
X100544952Y-128940095D01*
X100592571Y-128987714D01*
X100640190Y-129082952D01*
X100640190Y-129463904D01*
X101116380Y-128463904D02*
X100116380Y-128463904D01*
X101116380Y-127892476D02*
X100544952Y-128321047D01*
X100116380Y-127892476D02*
X100687809Y-128463904D01*
X101116380Y-126940095D02*
X101116380Y-127511523D01*
X101116380Y-127225809D02*
X100116380Y-127225809D01*
X100259238Y-127321047D01*
X100354476Y-127416285D01*
X100402095Y-127511523D01*
X116475619Y-135250380D02*
X116475619Y-134250380D01*
X116904190Y-134345619D02*
X116951809Y-134298000D01*
X117047047Y-134250380D01*
X117285142Y-134250380D01*
X117380380Y-134298000D01*
X117428000Y-134345619D01*
X117475619Y-134440857D01*
X117475619Y-134536095D01*
X117428000Y-134678952D01*
X116856571Y-135250380D01*
X117475619Y-135250380D01*
X118380380Y-134250380D02*
X117904190Y-134250380D01*
X117856571Y-134726571D01*
X117904190Y-134678952D01*
X117999428Y-134631333D01*
X118237523Y-134631333D01*
X118332761Y-134678952D01*
X118380380Y-134726571D01*
X118428000Y-134821809D01*
X118428000Y-135059904D01*
X118380380Y-135155142D01*
X118332761Y-135202761D01*
X118237523Y-135250380D01*
X117999428Y-135250380D01*
X117904190Y-135202761D01*
X117856571Y-135155142D01*
X116475619Y-132710380D02*
X116475619Y-131710380D01*
X116904190Y-131805619D02*
X116951809Y-131758000D01*
X117047047Y-131710380D01*
X117285142Y-131710380D01*
X117380380Y-131758000D01*
X117428000Y-131805619D01*
X117475619Y-131900857D01*
X117475619Y-131996095D01*
X117428000Y-132138952D01*
X116856571Y-132710380D01*
X117475619Y-132710380D01*
X118332761Y-131710380D02*
X118142285Y-131710380D01*
X118047047Y-131758000D01*
X117999428Y-131805619D01*
X117904190Y-131948476D01*
X117856571Y-132138952D01*
X117856571Y-132519904D01*
X117904190Y-132615142D01*
X117951809Y-132662761D01*
X118047047Y-132710380D01*
X118237523Y-132710380D01*
X118332761Y-132662761D01*
X118380380Y-132615142D01*
X118428000Y-132519904D01*
X118428000Y-132281809D01*
X118380380Y-132186571D01*
X118332761Y-132138952D01*
X118237523Y-132091333D01*
X118047047Y-132091333D01*
X117951809Y-132138952D01*
X117904190Y-132186571D01*
X117856571Y-132281809D01*
X116475619Y-132710380D02*
X116475619Y-131710380D01*
X116904190Y-131805619D02*
X116951809Y-131758000D01*
X117047047Y-131710380D01*
X117285142Y-131710380D01*
X117380380Y-131758000D01*
X117428000Y-131805619D01*
X117475619Y-131900857D01*
X117475619Y-131996095D01*
X117428000Y-132138952D01*
X116856571Y-132710380D01*
X117475619Y-132710380D01*
X118332761Y-131710380D02*
X118142285Y-131710380D01*
X118047047Y-131758000D01*
X117999428Y-131805619D01*
X117904190Y-131948476D01*
X117856571Y-132138952D01*
X117856571Y-132519904D01*
X117904190Y-132615142D01*
X117951809Y-132662761D01*
X118047047Y-132710380D01*
X118237523Y-132710380D01*
X118332761Y-132662761D01*
X118380380Y-132615142D01*
X118428000Y-132519904D01*
X118428000Y-132281809D01*
X118380380Y-132186571D01*
X118332761Y-132138952D01*
X118237523Y-132091333D01*
X118047047Y-132091333D01*
X117951809Y-132138952D01*
X117904190Y-132186571D01*
X117856571Y-132281809D01*
X116935904Y-129218000D02*
X116840666Y-129170380D01*
X116697809Y-129170380D01*
X116554952Y-129218000D01*
X116459714Y-129313238D01*
X116412095Y-129408476D01*
X116364476Y-129598952D01*
X116364476Y-129741809D01*
X116412095Y-129932285D01*
X116459714Y-130027523D01*
X116554952Y-130122761D01*
X116697809Y-130170380D01*
X116793047Y-130170380D01*
X116935904Y-130122761D01*
X116983523Y-130075142D01*
X116983523Y-129741809D01*
X116793047Y-129741809D01*
X117412095Y-130170380D02*
X117412095Y-129170380D01*
X117650190Y-129170380D01*
X117793047Y-129218000D01*
X117888285Y-129313238D01*
X117935904Y-129408476D01*
X117983523Y-129598952D01*
X117983523Y-129741809D01*
X117935904Y-129932285D01*
X117888285Y-130027523D01*
X117793047Y-130122761D01*
X117650190Y-130170380D01*
X117412095Y-130170380D01*
X116729619Y-126630380D02*
X117062952Y-127630380D01*
X117396285Y-126630380D01*
X117729619Y-127249428D02*
X118491523Y-127249428D01*
X118110571Y-127630380D02*
X118110571Y-126868476D01*
D12*
%TO.C,Je*%
X119708000Y-125845000D02*
X118258000Y-125845000D01*
X118258000Y-125845000D02*
X118258000Y-124045000D01*
X118258000Y-124045000D02*
X117268000Y-124045000D01*
X119708000Y-119875000D02*
X118258000Y-119875000D01*
X118258000Y-119875000D02*
X118258000Y-121675000D01*
X122528000Y-124575000D02*
X122528000Y-121145000D01*
%TO.C,J6*%
X113016000Y-107114000D02*
X114126000Y-107114000D01*
X113016000Y-107874000D02*
X113016000Y-107114000D01*
X114689471Y-108634000D02*
X115236000Y-108634000D01*
X113016000Y-108634000D02*
X113562529Y-108634000D01*
X115236000Y-108634000D02*
X115236000Y-117459000D01*
X113016000Y-108634000D02*
X113016000Y-117459000D01*
X114433530Y-117459000D02*
X115236000Y-117459000D01*
X113016000Y-117459000D02*
X113818470Y-117459000D01*
%TO.C,RFM95*%
X119178000Y-119550000D02*
X120078000Y-119550000D01*
X119178000Y-119900000D02*
X119178000Y-119550000D01*
X102978000Y-103700000D02*
X102978000Y-104100000D01*
X119178000Y-103700000D02*
X102978000Y-103700000D01*
X119178000Y-104100000D02*
X119178000Y-103700000D01*
X102978000Y-119900000D02*
X102978000Y-119500000D01*
X119178000Y-119900000D02*
X102978000Y-119900000D01*
%TO.C,D1*%
X107966000Y-125364000D02*
X109966000Y-125364000D01*
X109966000Y-125364000D02*
X109966000Y-121464000D01*
X107966000Y-125364000D02*
X107966000Y-121464000D01*
%TO.C,D3*%
X100854000Y-125364000D02*
X102854000Y-125364000D01*
X102854000Y-125364000D02*
X102854000Y-121464000D01*
X100854000Y-125364000D02*
X100854000Y-121464000D01*
%TO.C,D2*%
X104156000Y-125364000D02*
X106156000Y-125364000D01*
X106156000Y-125364000D02*
X106156000Y-121464000D01*
X104156000Y-125364000D02*
X104156000Y-121464000D01*
D13*
%TO.C,TP1*%
G36*
X105985300Y-125603696D02*
G01*
X105851388Y-125666039D01*
X105723669Y-125744311D01*
X105603750Y-125851824D01*
X105499812Y-125977643D01*
X105420039Y-126110834D01*
X105372610Y-126240463D01*
X105363000Y-126318755D01*
X105387978Y-126459811D01*
X105461573Y-126600969D01*
X105555708Y-126712825D01*
X105686638Y-126844551D01*
X105674204Y-127131925D01*
X105669745Y-127264817D01*
X105670947Y-127362953D01*
X105679481Y-127442220D01*
X105697021Y-127518506D01*
X105723870Y-127603637D01*
X105785970Y-127787975D01*
X105555435Y-127911223D01*
X105452712Y-127965921D01*
X105318623Y-128037000D01*
X105166793Y-128117254D01*
X105010849Y-128199477D01*
X104919403Y-128247586D01*
X104780937Y-128322576D01*
X104651641Y-128396675D01*
X104541087Y-128464089D01*
X104458848Y-128519023D01*
X104420392Y-128549600D01*
X104332961Y-128663201D01*
X104288475Y-128789197D01*
X104283523Y-128919207D01*
X104314691Y-129044850D01*
X104378569Y-129157747D01*
X104471742Y-129249517D01*
X104590800Y-129311780D01*
X104732329Y-129336156D01*
X104740700Y-129336231D01*
X104808365Y-129330710D01*
X104891015Y-129312355D01*
X104997210Y-129278580D01*
X105135507Y-129226801D01*
X105236000Y-129186608D01*
X105362140Y-129135858D01*
X105470481Y-129093254D01*
X105552903Y-129061913D01*
X105601281Y-129044947D01*
X105610573Y-129042948D01*
X105610545Y-129069095D01*
X105604890Y-129133153D01*
X105594760Y-129222685D01*
X105591465Y-129249162D01*
X105573656Y-129362340D01*
X105553330Y-129432874D01*
X105527942Y-129468921D01*
X105521692Y-129472893D01*
X105482361Y-129502163D01*
X105421043Y-129556783D01*
X105350668Y-129625205D01*
X105347252Y-129628671D01*
X105222260Y-129790747D01*
X105137921Y-129977298D01*
X105095162Y-130181138D01*
X105094905Y-130395084D01*
X105138077Y-130611951D01*
X105199912Y-130773046D01*
X105314892Y-130961387D01*
X105464929Y-131114850D01*
X105645681Y-131229610D01*
X105776665Y-131281350D01*
X105800537Y-131290396D01*
X105805576Y-131297710D01*
X105787671Y-131303485D01*
X105742713Y-131307914D01*
X105666592Y-131311190D01*
X105555196Y-131313504D01*
X105404417Y-131315051D01*
X105210143Y-131316021D01*
X105026450Y-131316500D01*
X104169200Y-131318200D01*
X104169200Y-125603200D01*
X105985300Y-125603696D01*
G37*
X105985300Y-125603696D02*
X105851388Y-125666039D01*
X105723669Y-125744311D01*
X105603750Y-125851824D01*
X105499812Y-125977643D01*
X105420039Y-126110834D01*
X105372610Y-126240463D01*
X105363000Y-126318755D01*
X105387978Y-126459811D01*
X105461573Y-126600969D01*
X105555708Y-126712825D01*
X105686638Y-126844551D01*
X105674204Y-127131925D01*
X105669745Y-127264817D01*
X105670947Y-127362953D01*
X105679481Y-127442220D01*
X105697021Y-127518506D01*
X105723870Y-127603637D01*
X105785970Y-127787975D01*
X105555435Y-127911223D01*
X105452712Y-127965921D01*
X105318623Y-128037000D01*
X105166793Y-128117254D01*
X105010849Y-128199477D01*
X104919403Y-128247586D01*
X104780937Y-128322576D01*
X104651641Y-128396675D01*
X104541087Y-128464089D01*
X104458848Y-128519023D01*
X104420392Y-128549600D01*
X104332961Y-128663201D01*
X104288475Y-128789197D01*
X104283523Y-128919207D01*
X104314691Y-129044850D01*
X104378569Y-129157747D01*
X104471742Y-129249517D01*
X104590800Y-129311780D01*
X104732329Y-129336156D01*
X104740700Y-129336231D01*
X104808365Y-129330710D01*
X104891015Y-129312355D01*
X104997210Y-129278580D01*
X105135507Y-129226801D01*
X105236000Y-129186608D01*
X105362140Y-129135858D01*
X105470481Y-129093254D01*
X105552903Y-129061913D01*
X105601281Y-129044947D01*
X105610573Y-129042948D01*
X105610545Y-129069095D01*
X105604890Y-129133153D01*
X105594760Y-129222685D01*
X105591465Y-129249162D01*
X105573656Y-129362340D01*
X105553330Y-129432874D01*
X105527942Y-129468921D01*
X105521692Y-129472893D01*
X105482361Y-129502163D01*
X105421043Y-129556783D01*
X105350668Y-129625205D01*
X105347252Y-129628671D01*
X105222260Y-129790747D01*
X105137921Y-129977298D01*
X105095162Y-130181138D01*
X105094905Y-130395084D01*
X105138077Y-130611951D01*
X105199912Y-130773046D01*
X105314892Y-130961387D01*
X105464929Y-131114850D01*
X105645681Y-131229610D01*
X105776665Y-131281350D01*
X105800537Y-131290396D01*
X105805576Y-131297710D01*
X105787671Y-131303485D01*
X105742713Y-131307914D01*
X105666592Y-131311190D01*
X105555196Y-131313504D01*
X105404417Y-131315051D01*
X105210143Y-131316021D01*
X105026450Y-131316500D01*
X104169200Y-131318200D01*
X104169200Y-125603200D01*
X105985300Y-125603696D01*
G36*
X107499219Y-131051399D02*
G01*
X107641991Y-131176985D01*
X107800225Y-131264818D01*
X107890300Y-131294366D01*
X107883365Y-131298550D01*
X107830632Y-131302406D01*
X107737103Y-131305826D01*
X107607778Y-131308702D01*
X107447659Y-131310927D01*
X107261747Y-131312393D01*
X107055044Y-131312991D01*
X107026700Y-131313000D01*
X106817644Y-131312523D01*
X106628725Y-131311165D01*
X106464944Y-131309033D01*
X106331302Y-131306236D01*
X106232801Y-131302881D01*
X106174441Y-131299076D01*
X106161224Y-131294929D01*
X106163100Y-131294366D01*
X106324215Y-131231155D01*
X106477241Y-131125612D01*
X106554180Y-131051399D01*
X106663577Y-130932717D01*
X107389822Y-130932717D01*
X107499219Y-131051399D01*
G37*
X107499219Y-131051399D02*
X107641991Y-131176985D01*
X107800225Y-131264818D01*
X107890300Y-131294366D01*
X107883365Y-131298550D01*
X107830632Y-131302406D01*
X107737103Y-131305826D01*
X107607778Y-131308702D01*
X107447659Y-131310927D01*
X107261747Y-131312393D01*
X107055044Y-131312991D01*
X107026700Y-131313000D01*
X106817644Y-131312523D01*
X106628725Y-131311165D01*
X106464944Y-131309033D01*
X106331302Y-131306236D01*
X106232801Y-131302881D01*
X106174441Y-131299076D01*
X106161224Y-131294929D01*
X106163100Y-131294366D01*
X106324215Y-131231155D01*
X106477241Y-131125612D01*
X106554180Y-131051399D01*
X106663577Y-130932717D01*
X107389822Y-130932717D01*
X107499219Y-131051399D01*
G36*
X109884200Y-131318200D02*
G01*
X109026950Y-131316500D01*
X108796026Y-131315845D01*
X108611792Y-131314763D01*
X108470137Y-131313062D01*
X108366951Y-131310551D01*
X108298124Y-131307035D01*
X108259545Y-131302323D01*
X108247105Y-131296221D01*
X108256692Y-131288538D01*
X108276734Y-131281350D01*
X108465548Y-131197816D01*
X108626920Y-131078017D01*
X108759063Y-130928824D01*
X108860194Y-130757106D01*
X108928526Y-130569736D01*
X108962275Y-130373584D01*
X108959655Y-130175520D01*
X108918882Y-129982416D01*
X108838169Y-129801142D01*
X108715732Y-129638569D01*
X108706147Y-129628671D01*
X108635302Y-129559636D01*
X108572497Y-129503655D01*
X108530864Y-129472407D01*
X108529717Y-129471780D01*
X108502504Y-129443745D01*
X108481717Y-129386811D01*
X108464367Y-129291607D01*
X108458767Y-129249226D01*
X108448103Y-129155399D01*
X108441804Y-129083617D01*
X108440921Y-129046493D01*
X108441649Y-129044125D01*
X108466447Y-129050708D01*
X108530052Y-129073577D01*
X108624312Y-129109640D01*
X108741073Y-129155807D01*
X108817400Y-129186608D01*
X108978738Y-129250265D01*
X109102905Y-129294387D01*
X109198460Y-129321558D01*
X109273963Y-129334365D01*
X109312700Y-129336231D01*
X109455433Y-129314174D01*
X109575849Y-129253750D01*
X109670534Y-129163342D01*
X109736079Y-129051330D01*
X109769070Y-128926096D01*
X109766096Y-128796019D01*
X109723745Y-128669482D01*
X109638605Y-128554865D01*
X109632992Y-128549434D01*
X109585631Y-128513831D01*
X109499811Y-128458944D01*
X109382258Y-128388703D01*
X109239700Y-128307035D01*
X109078865Y-128217866D01*
X108906480Y-128125126D01*
X108903632Y-128123618D01*
X108267801Y-127786867D01*
X108329715Y-127603083D01*
X108357393Y-127514913D01*
X108374481Y-127438864D01*
X108382647Y-127359064D01*
X108383558Y-127259638D01*
X108379195Y-127131925D01*
X108366761Y-126844551D01*
X108497691Y-126712825D01*
X108609285Y-126574605D01*
X108673891Y-126433154D01*
X108690400Y-126318755D01*
X108668800Y-126197467D01*
X108609456Y-126065400D01*
X108520549Y-125933489D01*
X108410260Y-125812667D01*
X108286771Y-125713870D01*
X108202011Y-125666039D01*
X108068100Y-125603696D01*
X109884200Y-125603200D01*
X109884200Y-131318200D01*
G37*
X109884200Y-131318200D02*
X109026950Y-131316500D01*
X108796026Y-131315845D01*
X108611792Y-131314763D01*
X108470137Y-131313062D01*
X108366951Y-131310551D01*
X108298124Y-131307035D01*
X108259545Y-131302323D01*
X108247105Y-131296221D01*
X108256692Y-131288538D01*
X108276734Y-131281350D01*
X108465548Y-131197816D01*
X108626920Y-131078017D01*
X108759063Y-130928824D01*
X108860194Y-130757106D01*
X108928526Y-130569736D01*
X108962275Y-130373584D01*
X108959655Y-130175520D01*
X108918882Y-129982416D01*
X108838169Y-129801142D01*
X108715732Y-129638569D01*
X108706147Y-129628671D01*
X108635302Y-129559636D01*
X108572497Y-129503655D01*
X108530864Y-129472407D01*
X108529717Y-129471780D01*
X108502504Y-129443745D01*
X108481717Y-129386811D01*
X108464367Y-129291607D01*
X108458767Y-129249226D01*
X108448103Y-129155399D01*
X108441804Y-129083617D01*
X108440921Y-129046493D01*
X108441649Y-129044125D01*
X108466447Y-129050708D01*
X108530052Y-129073577D01*
X108624312Y-129109640D01*
X108741073Y-129155807D01*
X108817400Y-129186608D01*
X108978738Y-129250265D01*
X109102905Y-129294387D01*
X109198460Y-129321558D01*
X109273963Y-129334365D01*
X109312700Y-129336231D01*
X109455433Y-129314174D01*
X109575849Y-129253750D01*
X109670534Y-129163342D01*
X109736079Y-129051330D01*
X109769070Y-128926096D01*
X109766096Y-128796019D01*
X109723745Y-128669482D01*
X109638605Y-128554865D01*
X109632992Y-128549434D01*
X109585631Y-128513831D01*
X109499811Y-128458944D01*
X109382258Y-128388703D01*
X109239700Y-128307035D01*
X109078865Y-128217866D01*
X108906480Y-128125126D01*
X108903632Y-128123618D01*
X108267801Y-127786867D01*
X108329715Y-127603083D01*
X108357393Y-127514913D01*
X108374481Y-127438864D01*
X108382647Y-127359064D01*
X108383558Y-127259638D01*
X108379195Y-127131925D01*
X108366761Y-126844551D01*
X108497691Y-126712825D01*
X108609285Y-126574605D01*
X108673891Y-126433154D01*
X108690400Y-126318755D01*
X108668800Y-126197467D01*
X108609456Y-126065400D01*
X108520549Y-125933489D01*
X108410260Y-125812667D01*
X108286771Y-125713870D01*
X108202011Y-125666039D01*
X108068100Y-125603696D01*
X109884200Y-125603200D01*
X109884200Y-131318200D01*
G36*
X106080498Y-129640165D02*
G01*
X106222799Y-129715973D01*
X106331856Y-129811097D01*
X106441768Y-129955291D01*
X106515941Y-130113329D01*
X106556118Y-130278646D01*
X106564043Y-130444675D01*
X106541460Y-130604849D01*
X106490111Y-130752601D01*
X106411741Y-130881365D01*
X106308093Y-130984575D01*
X106180911Y-131055663D01*
X106031938Y-131088063D01*
X105992465Y-131089351D01*
X105902960Y-131077634D01*
X105800992Y-131048087D01*
X105756700Y-131029837D01*
X105601840Y-130930461D01*
X105475548Y-130793754D01*
X105382782Y-130627370D01*
X105328504Y-130438959D01*
X105318255Y-130353409D01*
X105324379Y-130164083D01*
X105367244Y-129997349D01*
X105441217Y-129856220D01*
X105540663Y-129743711D01*
X105659948Y-129662837D01*
X105793439Y-129616612D01*
X105935500Y-129608050D01*
X106080498Y-129640165D01*
G37*
X106080498Y-129640165D02*
X106222799Y-129715973D01*
X106331856Y-129811097D01*
X106441768Y-129955291D01*
X106515941Y-130113329D01*
X106556118Y-130278646D01*
X106564043Y-130444675D01*
X106541460Y-130604849D01*
X106490111Y-130752601D01*
X106411741Y-130881365D01*
X106308093Y-130984575D01*
X106180911Y-131055663D01*
X106031938Y-131088063D01*
X105992465Y-131089351D01*
X105902960Y-131077634D01*
X105800992Y-131048087D01*
X105756700Y-131029837D01*
X105601840Y-130930461D01*
X105475548Y-130793754D01*
X105382782Y-130627370D01*
X105328504Y-130438959D01*
X105318255Y-130353409D01*
X105324379Y-130164083D01*
X105367244Y-129997349D01*
X105441217Y-129856220D01*
X105540663Y-129743711D01*
X105659948Y-129662837D01*
X105793439Y-129616612D01*
X105935500Y-129608050D01*
X106080498Y-129640165D01*
G36*
X108303613Y-129626793D02*
G01*
X108441425Y-129688031D01*
X108561233Y-129791281D01*
X108616796Y-129865885D01*
X108693447Y-130013935D01*
X108731749Y-130163767D01*
X108736352Y-130334533D01*
X108735144Y-130353409D01*
X108702769Y-130534535D01*
X108636297Y-130697619D01*
X108541661Y-130838168D01*
X108424794Y-130951693D01*
X108291629Y-131033702D01*
X108148097Y-131079705D01*
X108000132Y-131085211D01*
X107853666Y-131045730D01*
X107833191Y-131036146D01*
X107699177Y-130943316D01*
X107597206Y-130818382D01*
X107527997Y-130669232D01*
X107492269Y-130503754D01*
X107490740Y-130329836D01*
X107524131Y-130155368D01*
X107593159Y-129988237D01*
X107698544Y-129836333D01*
X107721543Y-129811097D01*
X107856761Y-129699720D01*
X108003819Y-129632181D01*
X108155257Y-129608024D01*
X108303613Y-129626793D01*
G37*
X108303613Y-129626793D02*
X108441425Y-129688031D01*
X108561233Y-129791281D01*
X108616796Y-129865885D01*
X108693447Y-130013935D01*
X108731749Y-130163767D01*
X108736352Y-130334533D01*
X108735144Y-130353409D01*
X108702769Y-130534535D01*
X108636297Y-130697619D01*
X108541661Y-130838168D01*
X108424794Y-130951693D01*
X108291629Y-131033702D01*
X108148097Y-131079705D01*
X108000132Y-131085211D01*
X107853666Y-131045730D01*
X107833191Y-131036146D01*
X107699177Y-130943316D01*
X107597206Y-130818382D01*
X107527997Y-130669232D01*
X107492269Y-130503754D01*
X107490740Y-130329836D01*
X107524131Y-130155368D01*
X107593159Y-129988237D01*
X107698544Y-129836333D01*
X107721543Y-129811097D01*
X107856761Y-129699720D01*
X108003819Y-129632181D01*
X108155257Y-129608024D01*
X108303613Y-129626793D01*
G36*
X107108043Y-129043731D02*
G01*
X107249514Y-129081797D01*
X107378418Y-129155859D01*
X107486685Y-129265916D01*
X107558812Y-129393334D01*
X107590790Y-129490314D01*
X107590292Y-129567518D01*
X107554312Y-129643945D01*
X107509850Y-129702968D01*
X107393643Y-129874318D01*
X107318157Y-130059259D01*
X107279168Y-130269286D01*
X107273629Y-130345261D01*
X107271165Y-130474426D01*
X107276609Y-130582903D01*
X107289198Y-130656428D01*
X107290545Y-130660529D01*
X107307973Y-130716837D01*
X107313081Y-130746940D01*
X107312564Y-130747971D01*
X107281910Y-130754635D01*
X107214542Y-130760760D01*
X107124542Y-130765776D01*
X107025996Y-130769111D01*
X106932988Y-130770193D01*
X106859603Y-130768452D01*
X106841320Y-130767086D01*
X106774156Y-130757958D01*
X106746719Y-130742917D01*
X106747991Y-130713737D01*
X106752420Y-130700729D01*
X106760830Y-130652642D01*
X106767317Y-130567381D01*
X106771069Y-130458562D01*
X106771647Y-130378400D01*
X106769620Y-130250782D01*
X106762964Y-130158256D01*
X106749036Y-130085153D01*
X106725189Y-130015802D01*
X106701246Y-129961243D01*
X106647885Y-129859632D01*
X106584319Y-129758155D01*
X106543549Y-129702968D01*
X106482593Y-129616695D01*
X106459095Y-129542141D01*
X106470049Y-129460307D01*
X106494587Y-129393334D01*
X106577861Y-129251422D01*
X106688913Y-129145506D01*
X106819674Y-129075585D01*
X106962073Y-129041660D01*
X107108043Y-129043731D01*
G37*
X107108043Y-129043731D02*
X107249514Y-129081797D01*
X107378418Y-129155859D01*
X107486685Y-129265916D01*
X107558812Y-129393334D01*
X107590790Y-129490314D01*
X107590292Y-129567518D01*
X107554312Y-129643945D01*
X107509850Y-129702968D01*
X107393643Y-129874318D01*
X107318157Y-130059259D01*
X107279168Y-130269286D01*
X107273629Y-130345261D01*
X107271165Y-130474426D01*
X107276609Y-130582903D01*
X107289198Y-130656428D01*
X107290545Y-130660529D01*
X107307973Y-130716837D01*
X107313081Y-130746940D01*
X107312564Y-130747971D01*
X107281910Y-130754635D01*
X107214542Y-130760760D01*
X107124542Y-130765776D01*
X107025996Y-130769111D01*
X106932988Y-130770193D01*
X106859603Y-130768452D01*
X106841320Y-130767086D01*
X106774156Y-130757958D01*
X106746719Y-130742917D01*
X106747991Y-130713737D01*
X106752420Y-130700729D01*
X106760830Y-130652642D01*
X106767317Y-130567381D01*
X106771069Y-130458562D01*
X106771647Y-130378400D01*
X106769620Y-130250782D01*
X106762964Y-130158256D01*
X106749036Y-130085153D01*
X106725189Y-130015802D01*
X106701246Y-129961243D01*
X106647885Y-129859632D01*
X106584319Y-129758155D01*
X106543549Y-129702968D01*
X106482593Y-129616695D01*
X106459095Y-129542141D01*
X106470049Y-129460307D01*
X106494587Y-129393334D01*
X106577861Y-129251422D01*
X106688913Y-129145506D01*
X106819674Y-129075585D01*
X106962073Y-129041660D01*
X107108043Y-129043731D01*
G36*
X106064568Y-128161935D02*
G01*
X106221052Y-128301246D01*
X106375551Y-128403542D01*
X106545449Y-128478769D01*
X106698670Y-128524755D01*
X106889906Y-128563075D01*
X107062992Y-128571648D01*
X107240956Y-128550473D01*
X107354729Y-128524755D01*
X107549085Y-128463425D01*
X107714448Y-128382589D01*
X107868271Y-128272271D01*
X107988177Y-128162589D01*
X108063384Y-128089061D01*
X108123844Y-128031252D01*
X108161376Y-127996913D01*
X108169478Y-127990800D01*
X108192930Y-128002161D01*
X108255412Y-128034204D01*
X108351046Y-128083865D01*
X108473954Y-128148080D01*
X108618255Y-128223786D01*
X108778073Y-128307919D01*
X108782800Y-128310412D01*
X108995634Y-128423816D01*
X109166820Y-128518267D01*
X109300447Y-128596921D01*
X109400601Y-128662933D01*
X109471373Y-128719460D01*
X109516850Y-128769656D01*
X109541120Y-128816679D01*
X109548272Y-128863684D01*
X109545180Y-128898906D01*
X109518686Y-128979230D01*
X109475136Y-129047728D01*
X109474378Y-129048542D01*
X109432328Y-129083561D01*
X109381744Y-129103066D01*
X109316409Y-129105996D01*
X109230105Y-129091291D01*
X109116616Y-129057891D01*
X108969726Y-129004735D01*
X108783216Y-128930763D01*
X108782814Y-128930600D01*
X108640741Y-128874002D01*
X108511824Y-128824844D01*
X108404600Y-128786208D01*
X108327607Y-128761174D01*
X108290277Y-128752800D01*
X108244702Y-128761746D01*
X108215828Y-128793016D01*
X108202276Y-128853260D01*
X108202669Y-128949125D01*
X108215628Y-129087259D01*
X108217564Y-129103670D01*
X108229402Y-129212876D01*
X108236763Y-129301972D01*
X108238864Y-129359814D01*
X108236703Y-129375829D01*
X108206110Y-129383251D01*
X108143869Y-129387449D01*
X108117860Y-129387800D01*
X108019961Y-129397121D01*
X107920480Y-129419958D01*
X107908646Y-129423907D01*
X107806306Y-129460015D01*
X107790843Y-129377592D01*
X107746553Y-129255245D01*
X107664649Y-129129619D01*
X107555922Y-129012855D01*
X107431162Y-128917089D01*
X107338003Y-128868180D01*
X107156489Y-128817775D01*
X106971578Y-128812222D01*
X106791340Y-128847988D01*
X106623848Y-128921543D01*
X106477171Y-129029354D01*
X106359380Y-129167890D01*
X106279278Y-129331450D01*
X106237389Y-129455188D01*
X106149444Y-129423426D01*
X106070361Y-129404085D01*
X105971640Y-129391753D01*
X105927849Y-129389732D01*
X105794199Y-129387800D01*
X105807913Y-129292550D01*
X105832640Y-129113803D01*
X105848104Y-128979037D01*
X105853801Y-128882192D01*
X105849229Y-128817211D01*
X105833885Y-128778033D01*
X105807267Y-128758602D01*
X105768871Y-128752857D01*
X105763122Y-128752800D01*
X105722676Y-128762090D01*
X105643904Y-128787905D01*
X105535344Y-128827164D01*
X105405534Y-128876783D01*
X105270585Y-128930600D01*
X105083993Y-129004612D01*
X104937032Y-129057807D01*
X104823485Y-129091245D01*
X104737135Y-129105985D01*
X104671765Y-129103088D01*
X104621158Y-129083614D01*
X104579098Y-129048624D01*
X104579021Y-129048542D01*
X104535342Y-128980559D01*
X104508420Y-128900120D01*
X104508219Y-128898906D01*
X104505579Y-128849972D01*
X104516988Y-128803396D01*
X104546535Y-128756044D01*
X104598309Y-128704785D01*
X104676398Y-128646484D01*
X104784891Y-128578010D01*
X104927876Y-128496228D01*
X105109444Y-128398007D01*
X105277168Y-128309696D01*
X105889836Y-127989491D01*
X106064568Y-128161935D01*
G37*
X106064568Y-128161935D02*
X106221052Y-128301246D01*
X106375551Y-128403542D01*
X106545449Y-128478769D01*
X106698670Y-128524755D01*
X106889906Y-128563075D01*
X107062992Y-128571648D01*
X107240956Y-128550473D01*
X107354729Y-128524755D01*
X107549085Y-128463425D01*
X107714448Y-128382589D01*
X107868271Y-128272271D01*
X107988177Y-128162589D01*
X108063384Y-128089061D01*
X108123844Y-128031252D01*
X108161376Y-127996913D01*
X108169478Y-127990800D01*
X108192930Y-128002161D01*
X108255412Y-128034204D01*
X108351046Y-128083865D01*
X108473954Y-128148080D01*
X108618255Y-128223786D01*
X108778073Y-128307919D01*
X108782800Y-128310412D01*
X108995634Y-128423816D01*
X109166820Y-128518267D01*
X109300447Y-128596921D01*
X109400601Y-128662933D01*
X109471373Y-128719460D01*
X109516850Y-128769656D01*
X109541120Y-128816679D01*
X109548272Y-128863684D01*
X109545180Y-128898906D01*
X109518686Y-128979230D01*
X109475136Y-129047728D01*
X109474378Y-129048542D01*
X109432328Y-129083561D01*
X109381744Y-129103066D01*
X109316409Y-129105996D01*
X109230105Y-129091291D01*
X109116616Y-129057891D01*
X108969726Y-129004735D01*
X108783216Y-128930763D01*
X108782814Y-128930600D01*
X108640741Y-128874002D01*
X108511824Y-128824844D01*
X108404600Y-128786208D01*
X108327607Y-128761174D01*
X108290277Y-128752800D01*
X108244702Y-128761746D01*
X108215828Y-128793016D01*
X108202276Y-128853260D01*
X108202669Y-128949125D01*
X108215628Y-129087259D01*
X108217564Y-129103670D01*
X108229402Y-129212876D01*
X108236763Y-129301972D01*
X108238864Y-129359814D01*
X108236703Y-129375829D01*
X108206110Y-129383251D01*
X108143869Y-129387449D01*
X108117860Y-129387800D01*
X108019961Y-129397121D01*
X107920480Y-129419958D01*
X107908646Y-129423907D01*
X107806306Y-129460015D01*
X107790843Y-129377592D01*
X107746553Y-129255245D01*
X107664649Y-129129619D01*
X107555922Y-129012855D01*
X107431162Y-128917089D01*
X107338003Y-128868180D01*
X107156489Y-128817775D01*
X106971578Y-128812222D01*
X106791340Y-128847988D01*
X106623848Y-128921543D01*
X106477171Y-129029354D01*
X106359380Y-129167890D01*
X106279278Y-129331450D01*
X106237389Y-129455188D01*
X106149444Y-129423426D01*
X106070361Y-129404085D01*
X105971640Y-129391753D01*
X105927849Y-129389732D01*
X105794199Y-129387800D01*
X105807913Y-129292550D01*
X105832640Y-129113803D01*
X105848104Y-128979037D01*
X105853801Y-128882192D01*
X105849229Y-128817211D01*
X105833885Y-128778033D01*
X105807267Y-128758602D01*
X105768871Y-128752857D01*
X105763122Y-128752800D01*
X105722676Y-128762090D01*
X105643904Y-128787905D01*
X105535344Y-128827164D01*
X105405534Y-128876783D01*
X105270585Y-128930600D01*
X105083993Y-129004612D01*
X104937032Y-129057807D01*
X104823485Y-129091245D01*
X104737135Y-129105985D01*
X104671765Y-129103088D01*
X104621158Y-129083614D01*
X104579098Y-129048624D01*
X104579021Y-129048542D01*
X104535342Y-128980559D01*
X104508420Y-128900120D01*
X104508219Y-128898906D01*
X104505579Y-128849972D01*
X104516988Y-128803396D01*
X104546535Y-128756044D01*
X104598309Y-128704785D01*
X104676398Y-128646484D01*
X104784891Y-128578010D01*
X104927876Y-128496228D01*
X105109444Y-128398007D01*
X105277168Y-128309696D01*
X105889836Y-127989491D01*
X106064568Y-128161935D01*
G36*
X107187893Y-126999177D02*
G01*
X107316828Y-127035445D01*
X107428088Y-127102995D01*
X107512911Y-127182124D01*
X107616522Y-127324739D01*
X107683020Y-127487014D01*
X107710046Y-127657381D01*
X107695239Y-127824274D01*
X107663764Y-127921515D01*
X107593592Y-128040251D01*
X107493347Y-128155327D01*
X107380574Y-128247936D01*
X107333232Y-128275845D01*
X107240059Y-128308593D01*
X107120734Y-128330691D01*
X106995786Y-128340144D01*
X106885744Y-128334955D01*
X106836035Y-128324188D01*
X106675775Y-128247363D01*
X106534998Y-128133139D01*
X106426005Y-127992612D01*
X106389635Y-127921515D01*
X106347533Y-127762649D01*
X106348736Y-127593092D01*
X106390884Y-127424411D01*
X106402726Y-127401493D01*
X106688078Y-127401493D01*
X106688147Y-127462905D01*
X106709983Y-127539121D01*
X106773404Y-127649878D01*
X106870101Y-127725656D01*
X106991694Y-127760551D01*
X107026700Y-127762200D01*
X107154109Y-127738376D01*
X107219793Y-127704221D01*
X107304152Y-127618322D01*
X107343416Y-127539121D01*
X107365321Y-127462506D01*
X107365252Y-127401094D01*
X107343416Y-127324878D01*
X107283237Y-127217937D01*
X107196134Y-127145502D01*
X107092464Y-127107571D01*
X106982587Y-127104146D01*
X106876860Y-127135225D01*
X106785643Y-127200810D01*
X106719294Y-127300899D01*
X106709983Y-127324878D01*
X106688078Y-127401493D01*
X106402726Y-127401493D01*
X106471617Y-127268173D01*
X106540488Y-127182124D01*
X106648093Y-127085811D01*
X106761875Y-127025362D01*
X106896417Y-126994965D01*
X107026700Y-126988379D01*
X107187893Y-126999177D01*
G37*
X107187893Y-126999177D02*
X107316828Y-127035445D01*
X107428088Y-127102995D01*
X107512911Y-127182124D01*
X107616522Y-127324739D01*
X107683020Y-127487014D01*
X107710046Y-127657381D01*
X107695239Y-127824274D01*
X107663764Y-127921515D01*
X107593592Y-128040251D01*
X107493347Y-128155327D01*
X107380574Y-128247936D01*
X107333232Y-128275845D01*
X107240059Y-128308593D01*
X107120734Y-128330691D01*
X106995786Y-128340144D01*
X106885744Y-128334955D01*
X106836035Y-128324188D01*
X106675775Y-128247363D01*
X106534998Y-128133139D01*
X106426005Y-127992612D01*
X106389635Y-127921515D01*
X106347533Y-127762649D01*
X106348736Y-127593092D01*
X106390884Y-127424411D01*
X106402726Y-127401493D01*
X106688078Y-127401493D01*
X106688147Y-127462905D01*
X106709983Y-127539121D01*
X106773404Y-127649878D01*
X106870101Y-127725656D01*
X106991694Y-127760551D01*
X107026700Y-127762200D01*
X107154109Y-127738376D01*
X107219793Y-127704221D01*
X107304152Y-127618322D01*
X107343416Y-127539121D01*
X107365321Y-127462506D01*
X107365252Y-127401094D01*
X107343416Y-127324878D01*
X107283237Y-127217937D01*
X107196134Y-127145502D01*
X107092464Y-127107571D01*
X106982587Y-127104146D01*
X106876860Y-127135225D01*
X106785643Y-127200810D01*
X106719294Y-127300899D01*
X106709983Y-127324878D01*
X106688078Y-127401493D01*
X106402726Y-127401493D01*
X106471617Y-127268173D01*
X106540488Y-127182124D01*
X106648093Y-127085811D01*
X106761875Y-127025362D01*
X106896417Y-126994965D01*
X107026700Y-126988379D01*
X107187893Y-126999177D01*
G36*
X107197257Y-126075015D02*
G01*
X107248174Y-126084304D01*
X107472543Y-126154889D01*
X107670681Y-126264539D01*
X107839703Y-126407485D01*
X107976726Y-126577959D01*
X108078866Y-126770192D01*
X108143239Y-126978413D01*
X108166960Y-127196854D01*
X108147146Y-127419746D01*
X108080912Y-127641320D01*
X108055308Y-127698891D01*
X108001540Y-127806837D01*
X107963431Y-127868322D01*
X107938376Y-127882473D01*
X107923770Y-127848417D01*
X107917008Y-127765283D01*
X107915478Y-127652042D01*
X107913745Y-127526574D01*
X107907244Y-127437458D01*
X107893635Y-127370305D01*
X107870580Y-127310727D01*
X107854948Y-127279600D01*
X107758594Y-127123140D01*
X107653638Y-126999038D01*
X107561126Y-126924634D01*
X107475187Y-126871521D01*
X107536693Y-126810015D01*
X107579307Y-126752500D01*
X107598150Y-126697582D01*
X107598200Y-126695400D01*
X107578368Y-126636625D01*
X107530203Y-126575811D01*
X107470698Y-126530626D01*
X107427206Y-126517600D01*
X107347012Y-126540307D01*
X107289350Y-126599172D01*
X107268000Y-126677790D01*
X107268000Y-126758900D01*
X106785400Y-126758900D01*
X106785400Y-126677790D01*
X106762831Y-126597101D01*
X106704328Y-126539082D01*
X106626193Y-126517600D01*
X106569669Y-126538220D01*
X106511182Y-126588302D01*
X106467728Y-126650176D01*
X106455200Y-126695400D01*
X106472457Y-126749453D01*
X106514236Y-126807502D01*
X106516706Y-126810015D01*
X106578212Y-126871521D01*
X106492273Y-126924634D01*
X106386327Y-127012572D01*
X106282017Y-127141284D01*
X106198451Y-127279600D01*
X106169986Y-127340397D01*
X106152022Y-127401589D01*
X106142254Y-127477443D01*
X106138376Y-127582227D01*
X106137921Y-127654221D01*
X106137285Y-127762285D01*
X106135744Y-127848442D01*
X106133550Y-127902068D01*
X106131710Y-127914571D01*
X106115522Y-127895504D01*
X106081392Y-127847183D01*
X106061583Y-127817682D01*
X105969088Y-127635742D01*
X105910823Y-127428882D01*
X105888462Y-127211182D01*
X105903681Y-126996718D01*
X105944685Y-126835100D01*
X106044019Y-126625160D01*
X106180637Y-126442814D01*
X106348091Y-126291777D01*
X106539929Y-126175763D01*
X106749703Y-126098488D01*
X106970962Y-126063667D01*
X107197257Y-126075015D01*
G37*
X107197257Y-126075015D02*
X107248174Y-126084304D01*
X107472543Y-126154889D01*
X107670681Y-126264539D01*
X107839703Y-126407485D01*
X107976726Y-126577959D01*
X108078866Y-126770192D01*
X108143239Y-126978413D01*
X108166960Y-127196854D01*
X108147146Y-127419746D01*
X108080912Y-127641320D01*
X108055308Y-127698891D01*
X108001540Y-127806837D01*
X107963431Y-127868322D01*
X107938376Y-127882473D01*
X107923770Y-127848417D01*
X107917008Y-127765283D01*
X107915478Y-127652042D01*
X107913745Y-127526574D01*
X107907244Y-127437458D01*
X107893635Y-127370305D01*
X107870580Y-127310727D01*
X107854948Y-127279600D01*
X107758594Y-127123140D01*
X107653638Y-126999038D01*
X107561126Y-126924634D01*
X107475187Y-126871521D01*
X107536693Y-126810015D01*
X107579307Y-126752500D01*
X107598150Y-126697582D01*
X107598200Y-126695400D01*
X107578368Y-126636625D01*
X107530203Y-126575811D01*
X107470698Y-126530626D01*
X107427206Y-126517600D01*
X107347012Y-126540307D01*
X107289350Y-126599172D01*
X107268000Y-126677790D01*
X107268000Y-126758900D01*
X106785400Y-126758900D01*
X106785400Y-126677790D01*
X106762831Y-126597101D01*
X106704328Y-126539082D01*
X106626193Y-126517600D01*
X106569669Y-126538220D01*
X106511182Y-126588302D01*
X106467728Y-126650176D01*
X106455200Y-126695400D01*
X106472457Y-126749453D01*
X106514236Y-126807502D01*
X106516706Y-126810015D01*
X106578212Y-126871521D01*
X106492273Y-126924634D01*
X106386327Y-127012572D01*
X106282017Y-127141284D01*
X106198451Y-127279600D01*
X106169986Y-127340397D01*
X106152022Y-127401589D01*
X106142254Y-127477443D01*
X106138376Y-127582227D01*
X106137921Y-127654221D01*
X106137285Y-127762285D01*
X106135744Y-127848442D01*
X106133550Y-127902068D01*
X106131710Y-127914571D01*
X106115522Y-127895504D01*
X106081392Y-127847183D01*
X106061583Y-127817682D01*
X105969088Y-127635742D01*
X105910823Y-127428882D01*
X105888462Y-127211182D01*
X105903681Y-126996718D01*
X105944685Y-126835100D01*
X106044019Y-126625160D01*
X106180637Y-126442814D01*
X106348091Y-126291777D01*
X106539929Y-126175763D01*
X106749703Y-126098488D01*
X106970962Y-126063667D01*
X107197257Y-126075015D01*
G36*
X106143123Y-125846722D02*
G01*
X106262863Y-125899947D01*
X106292969Y-125921166D01*
X106382837Y-125989711D01*
X106258346Y-126073548D01*
X106147687Y-126160591D01*
X106034344Y-126270633D01*
X105932470Y-126388373D01*
X105856216Y-126498509D01*
X105843037Y-126522623D01*
X105809705Y-126581863D01*
X105784504Y-126615952D01*
X105779074Y-126619200D01*
X105754265Y-126602321D01*
X105709517Y-126559959D01*
X105690430Y-126540035D01*
X105639309Y-126474545D01*
X105604889Y-126410989D01*
X105600708Y-126398034D01*
X105599621Y-126298159D01*
X105637256Y-126185507D01*
X105707229Y-126070664D01*
X105803152Y-125964213D01*
X105913246Y-125880037D01*
X106023917Y-125839796D01*
X106143123Y-125846722D01*
G37*
X106143123Y-125846722D02*
X106262863Y-125899947D01*
X106292969Y-125921166D01*
X106382837Y-125989711D01*
X106258346Y-126073548D01*
X106147687Y-126160591D01*
X106034344Y-126270633D01*
X105932470Y-126388373D01*
X105856216Y-126498509D01*
X105843037Y-126522623D01*
X105809705Y-126581863D01*
X105784504Y-126615952D01*
X105779074Y-126619200D01*
X105754265Y-126602321D01*
X105709517Y-126559959D01*
X105690430Y-126540035D01*
X105639309Y-126474545D01*
X105604889Y-126410989D01*
X105600708Y-126398034D01*
X105599621Y-126298159D01*
X105637256Y-126185507D01*
X105707229Y-126070664D01*
X105803152Y-125964213D01*
X105913246Y-125880037D01*
X106023917Y-125839796D01*
X106143123Y-125846722D01*
G36*
X108107804Y-125862434D02*
G01*
X108136257Y-125877806D01*
X108253712Y-125968323D01*
X108352207Y-126077985D01*
X108423465Y-126194981D01*
X108459208Y-126307501D01*
X108461800Y-126342336D01*
X108444903Y-126410542D01*
X108403031Y-126490551D01*
X108349413Y-126560681D01*
X108307893Y-126594606D01*
X108274079Y-126604044D01*
X108245689Y-126583337D01*
X108211000Y-126523872D01*
X108210610Y-126523108D01*
X108142532Y-126416714D01*
X108045345Y-126299063D01*
X107933226Y-126185490D01*
X107820350Y-126091331D01*
X107795053Y-126073548D01*
X107670562Y-125989711D01*
X107760430Y-125921166D01*
X107877448Y-125856869D01*
X107996396Y-125836927D01*
X108107804Y-125862434D01*
G37*
X108107804Y-125862434D02*
X108136257Y-125877806D01*
X108253712Y-125968323D01*
X108352207Y-126077985D01*
X108423465Y-126194981D01*
X108459208Y-126307501D01*
X108461800Y-126342336D01*
X108444903Y-126410542D01*
X108403031Y-126490551D01*
X108349413Y-126560681D01*
X108307893Y-126594606D01*
X108274079Y-126604044D01*
X108245689Y-126583337D01*
X108211000Y-126523872D01*
X108210610Y-126523108D01*
X108142532Y-126416714D01*
X108045345Y-126299063D01*
X107933226Y-126185490D01*
X107820350Y-126091331D01*
X107795053Y-126073548D01*
X107670562Y-125989711D01*
X107760430Y-125921166D01*
X107877448Y-125856869D01*
X107996396Y-125836927D01*
X108107804Y-125862434D01*
G36*
X107026700Y-125606498D02*
G01*
X107230201Y-125607268D01*
X107413798Y-125608986D01*
X107572280Y-125611522D01*
X107700434Y-125614746D01*
X107793049Y-125618531D01*
X107844915Y-125622746D01*
X107852035Y-125626932D01*
X107696935Y-125694770D01*
X107562704Y-125792991D01*
X107532149Y-125823779D01*
X107479921Y-125875792D01*
X107441201Y-125894943D01*
X107398102Y-125888309D01*
X107382877Y-125882819D01*
X107269786Y-125855008D01*
X107125351Y-125841033D01*
X106967023Y-125840601D01*
X106812253Y-125853422D01*
X106678492Y-125879203D01*
X106628540Y-125895443D01*
X106582531Y-125889948D01*
X106543362Y-125846939D01*
X106474278Y-125773785D01*
X106369996Y-125702860D01*
X106245523Y-125644144D01*
X106229590Y-125638266D01*
X106211083Y-125629505D01*
X106212318Y-125622431D01*
X106237341Y-125616883D01*
X106290194Y-125612700D01*
X106374925Y-125609721D01*
X106495576Y-125607785D01*
X106656192Y-125606731D01*
X106860819Y-125606396D01*
X107026700Y-125606498D01*
G37*
X107026700Y-125606498D02*
X107230201Y-125607268D01*
X107413798Y-125608986D01*
X107572280Y-125611522D01*
X107700434Y-125614746D01*
X107793049Y-125618531D01*
X107844915Y-125622746D01*
X107852035Y-125626932D01*
X107696935Y-125694770D01*
X107562704Y-125792991D01*
X107532149Y-125823779D01*
X107479921Y-125875792D01*
X107441201Y-125894943D01*
X107398102Y-125888309D01*
X107382877Y-125882819D01*
X107269786Y-125855008D01*
X107125351Y-125841033D01*
X106967023Y-125840601D01*
X106812253Y-125853422D01*
X106678492Y-125879203D01*
X106628540Y-125895443D01*
X106582531Y-125889948D01*
X106543362Y-125846939D01*
X106474278Y-125773785D01*
X106369996Y-125702860D01*
X106245523Y-125644144D01*
X106229590Y-125638266D01*
X106211083Y-125629505D01*
X106212318Y-125622431D01*
X106237341Y-125616883D01*
X106290194Y-125612700D01*
X106374925Y-125609721D01*
X106495576Y-125607785D01*
X106656192Y-125606731D01*
X106860819Y-125606396D01*
X107026700Y-125606498D01*
D12*
%TO.C,AE1*%
X104150000Y-103776000D02*
X103900000Y-103276000D01*
X103650000Y-103776000D02*
X104150000Y-103776000D01*
X103900000Y-103276000D02*
X103650000Y-103776000D01*
%TO.C,J2*%
X105310000Y-136248000D02*
X105310000Y-133348000D01*
X108210000Y-136248000D02*
X105310000Y-136248000D01*
X108210000Y-133348000D02*
X108210000Y-136248000D01*
X105310000Y-133348000D02*
X108210000Y-133348000D01*
%TO.C,J5*%
X101112000Y-126170000D02*
X102442000Y-126170000D01*
X101112000Y-127500000D02*
X101112000Y-126170000D01*
X101112000Y-128770000D02*
X103772000Y-128770000D01*
X103772000Y-128770000D02*
X103772000Y-136450000D01*
X101112000Y-128770000D02*
X101112000Y-136450000D01*
X101112000Y-136450000D02*
X103772000Y-136450000D01*
%TO.C,D5*%
X108698000Y-130778000D02*
X115998000Y-130778000D01*
X108698000Y-136278000D02*
X115998000Y-136278000D01*
X115998000Y-136278000D02*
X115998000Y-135128000D01*
%TO.C,D4*%
X113888000Y-130190000D02*
X115888000Y-130190000D01*
X115888000Y-130190000D02*
X115888000Y-126290000D01*
X113888000Y-130190000D02*
X113888000Y-126290000D01*
%TO.C,J1*%
X118638000Y-136450000D02*
X121298000Y-136450000D01*
X118638000Y-128770000D02*
X118638000Y-136450000D01*
X121298000Y-128770000D02*
X121298000Y-136450000D01*
X118638000Y-128770000D02*
X121298000Y-128770000D01*
X118638000Y-127500000D02*
X118638000Y-126170000D01*
X118638000Y-126170000D02*
X119968000Y-126170000D01*
%TO.C,R2*%
X110622000Y-123614748D02*
X110622000Y-124137252D01*
X112042000Y-123614748D02*
X112042000Y-124137252D01*
%TO.C,Je*%
D11*
X115520380Y-123145714D02*
X116234666Y-123145714D01*
X116377523Y-123193333D01*
X116472761Y-123288571D01*
X116520380Y-123431428D01*
X116520380Y-123526666D01*
X116472761Y-122288571D02*
X116520380Y-122383809D01*
X116520380Y-122574285D01*
X116472761Y-122669523D01*
X116377523Y-122717142D01*
X115996571Y-122717142D01*
X115901333Y-122669523D01*
X115853714Y-122574285D01*
X115853714Y-122383809D01*
X115901333Y-122288571D01*
X115996571Y-122240952D01*
X116091809Y-122240952D01*
X116187047Y-122717142D01*
%TO.C,J6*%
X113792666Y-105631380D02*
X113792666Y-106345666D01*
X113745047Y-106488523D01*
X113649809Y-106583761D01*
X113506952Y-106631380D01*
X113411714Y-106631380D01*
X114697428Y-105631380D02*
X114506952Y-105631380D01*
X114411714Y-105679000D01*
X114364095Y-105726619D01*
X114268857Y-105869476D01*
X114221238Y-106059952D01*
X114221238Y-106440904D01*
X114268857Y-106536142D01*
X114316476Y-106583761D01*
X114411714Y-106631380D01*
X114602190Y-106631380D01*
X114697428Y-106583761D01*
X114745047Y-106536142D01*
X114792666Y-106440904D01*
X114792666Y-106202809D01*
X114745047Y-106107571D01*
X114697428Y-106059952D01*
X114602190Y-106012333D01*
X114411714Y-106012333D01*
X114316476Y-106059952D01*
X114268857Y-106107571D01*
X114221238Y-106202809D01*
%TO.C,RFM95*%
X113657142Y-105114380D02*
X113323809Y-104638190D01*
X113085714Y-105114380D02*
X113085714Y-104114380D01*
X113466666Y-104114380D01*
X113561904Y-104162000D01*
X113609523Y-104209619D01*
X113657142Y-104304857D01*
X113657142Y-104447714D01*
X113609523Y-104542952D01*
X113561904Y-104590571D01*
X113466666Y-104638190D01*
X113085714Y-104638190D01*
X114419047Y-104590571D02*
X114085714Y-104590571D01*
X114085714Y-105114380D02*
X114085714Y-104114380D01*
X114561904Y-104114380D01*
X114942857Y-105114380D02*
X114942857Y-104114380D01*
X115276190Y-104828666D01*
X115609523Y-104114380D01*
X115609523Y-105114380D01*
X116133333Y-105114380D02*
X116323809Y-105114380D01*
X116419047Y-105066761D01*
X116466666Y-105019142D01*
X116561904Y-104876285D01*
X116609523Y-104685809D01*
X116609523Y-104304857D01*
X116561904Y-104209619D01*
X116514285Y-104162000D01*
X116419047Y-104114380D01*
X116228571Y-104114380D01*
X116133333Y-104162000D01*
X116085714Y-104209619D01*
X116038095Y-104304857D01*
X116038095Y-104542952D01*
X116085714Y-104638190D01*
X116133333Y-104685809D01*
X116228571Y-104733428D01*
X116419047Y-104733428D01*
X116514285Y-104685809D01*
X116561904Y-104638190D01*
X116609523Y-104542952D01*
X117514285Y-104114380D02*
X117038095Y-104114380D01*
X116990476Y-104590571D01*
X117038095Y-104542952D01*
X117133333Y-104495333D01*
X117371428Y-104495333D01*
X117466666Y-104542952D01*
X117514285Y-104590571D01*
X117561904Y-104685809D01*
X117561904Y-104923904D01*
X117514285Y-105019142D01*
X117466666Y-105066761D01*
X117371428Y-105114380D01*
X117133333Y-105114380D01*
X117038095Y-105066761D01*
X116990476Y-105019142D01*
%TO.C,D1*%
X109498380Y-123852095D02*
X108498380Y-123852095D01*
X108498380Y-123614000D01*
X108546000Y-123471142D01*
X108641238Y-123375904D01*
X108736476Y-123328285D01*
X108926952Y-123280666D01*
X109069809Y-123280666D01*
X109260285Y-123328285D01*
X109355523Y-123375904D01*
X109450761Y-123471142D01*
X109498380Y-123614000D01*
X109498380Y-123852095D01*
X109498380Y-122328285D02*
X109498380Y-122899714D01*
X109498380Y-122614000D02*
X108498380Y-122614000D01*
X108641238Y-122709238D01*
X108736476Y-122804476D01*
X108784095Y-122899714D01*
%TO.C,D3*%
X102386380Y-123852095D02*
X101386380Y-123852095D01*
X101386380Y-123614000D01*
X101434000Y-123471142D01*
X101529238Y-123375904D01*
X101624476Y-123328285D01*
X101814952Y-123280666D01*
X101957809Y-123280666D01*
X102148285Y-123328285D01*
X102243523Y-123375904D01*
X102338761Y-123471142D01*
X102386380Y-123614000D01*
X102386380Y-123852095D01*
X101386380Y-122947333D02*
X101386380Y-122328285D01*
X101767333Y-122661619D01*
X101767333Y-122518761D01*
X101814952Y-122423523D01*
X101862571Y-122375904D01*
X101957809Y-122328285D01*
X102195904Y-122328285D01*
X102291142Y-122375904D01*
X102338761Y-122423523D01*
X102386380Y-122518761D01*
X102386380Y-122804476D01*
X102338761Y-122899714D01*
X102291142Y-122947333D01*
%TO.C,D2*%
X105688380Y-123852095D02*
X104688380Y-123852095D01*
X104688380Y-123614000D01*
X104736000Y-123471142D01*
X104831238Y-123375904D01*
X104926476Y-123328285D01*
X105116952Y-123280666D01*
X105259809Y-123280666D01*
X105450285Y-123328285D01*
X105545523Y-123375904D01*
X105640761Y-123471142D01*
X105688380Y-123614000D01*
X105688380Y-123852095D01*
X104783619Y-122899714D02*
X104736000Y-122852095D01*
X104688380Y-122756857D01*
X104688380Y-122518761D01*
X104736000Y-122423523D01*
X104783619Y-122375904D01*
X104878857Y-122328285D01*
X104974095Y-122328285D01*
X105116952Y-122375904D01*
X105688380Y-122947333D01*
X105688380Y-122328285D01*
%TO.C,AE1*%
X108958666Y-103198666D02*
X108958666Y-102722476D01*
X109244380Y-103293904D02*
X108244380Y-102960571D01*
X109244380Y-102627238D01*
X108720571Y-102293904D02*
X108720571Y-101960571D01*
X109244380Y-101817714D02*
X109244380Y-102293904D01*
X108244380Y-102293904D01*
X108244380Y-101817714D01*
X109244380Y-100865333D02*
X109244380Y-101436761D01*
X109244380Y-101151047D02*
X108244380Y-101151047D01*
X108387238Y-101246285D01*
X108482476Y-101341523D01*
X108530095Y-101436761D01*
%TO.C,J2*%
X106426666Y-132102380D02*
X106426666Y-132816666D01*
X106379047Y-132959523D01*
X106283809Y-133054761D01*
X106140952Y-133102380D01*
X106045714Y-133102380D01*
X106855238Y-132197619D02*
X106902857Y-132150000D01*
X106998095Y-132102380D01*
X107236190Y-132102380D01*
X107331428Y-132150000D01*
X107379047Y-132197619D01*
X107426666Y-132292857D01*
X107426666Y-132388095D01*
X107379047Y-132530952D01*
X106807619Y-133102380D01*
X107426666Y-133102380D01*
%TO.C,J5*%
X104394666Y-132032380D02*
X104394666Y-132746666D01*
X104347047Y-132889523D01*
X104251809Y-132984761D01*
X104108952Y-133032380D01*
X104013714Y-133032380D01*
X105347047Y-132032380D02*
X104870857Y-132032380D01*
X104823238Y-132508571D01*
X104870857Y-132460952D01*
X104966095Y-132413333D01*
X105204190Y-132413333D01*
X105299428Y-132460952D01*
X105347047Y-132508571D01*
X105394666Y-132603809D01*
X105394666Y-132841904D01*
X105347047Y-132937142D01*
X105299428Y-132984761D01*
X105204190Y-133032380D01*
X104966095Y-133032380D01*
X104870857Y-132984761D01*
X104823238Y-132937142D01*
%TO.C,D5*%
X111863904Y-133980380D02*
X111863904Y-132980380D01*
X112102000Y-132980380D01*
X112244857Y-133028000D01*
X112340095Y-133123238D01*
X112387714Y-133218476D01*
X112435333Y-133408952D01*
X112435333Y-133551809D01*
X112387714Y-133742285D01*
X112340095Y-133837523D01*
X112244857Y-133932761D01*
X112102000Y-133980380D01*
X111863904Y-133980380D01*
X113340095Y-132980380D02*
X112863904Y-132980380D01*
X112816285Y-133456571D01*
X112863904Y-133408952D01*
X112959142Y-133361333D01*
X113197238Y-133361333D01*
X113292476Y-133408952D01*
X113340095Y-133456571D01*
X113387714Y-133551809D01*
X113387714Y-133789904D01*
X113340095Y-133885142D01*
X113292476Y-133932761D01*
X113197238Y-133980380D01*
X112959142Y-133980380D01*
X112863904Y-133932761D01*
X112816285Y-133885142D01*
X108483714Y-132380380D02*
X107912285Y-132380380D01*
X108198000Y-132380380D02*
X108198000Y-131380380D01*
X108102761Y-131523238D01*
X108007523Y-131618476D01*
X107912285Y-131666095D01*
%TO.C,D4*%
X113308380Y-128678095D02*
X112308380Y-128678095D01*
X112308380Y-128440000D01*
X112356000Y-128297142D01*
X112451238Y-128201904D01*
X112546476Y-128154285D01*
X112736952Y-128106666D01*
X112879809Y-128106666D01*
X113070285Y-128154285D01*
X113165523Y-128201904D01*
X113260761Y-128297142D01*
X113308380Y-128440000D01*
X113308380Y-128678095D01*
X112641714Y-127249523D02*
X113308380Y-127249523D01*
X112260761Y-127487619D02*
X112975047Y-127725714D01*
X112975047Y-127106666D01*
%TO.C,J1*%
X116626380Y-125987333D02*
X117340666Y-125987333D01*
X117483523Y-126034952D01*
X117578761Y-126130190D01*
X117626380Y-126273047D01*
X117626380Y-126368285D01*
X117626380Y-124987333D02*
X117626380Y-125558761D01*
X117626380Y-125273047D02*
X116626380Y-125273047D01*
X116769238Y-125368285D01*
X116864476Y-125463523D01*
X116912095Y-125558761D01*
%TO.C,R2*%
X113562380Y-124042666D02*
X113086190Y-124376000D01*
X113562380Y-124614095D02*
X112562380Y-124614095D01*
X112562380Y-124233142D01*
X112610000Y-124137904D01*
X112657619Y-124090285D01*
X112752857Y-124042666D01*
X112895714Y-124042666D01*
X112990952Y-124090285D01*
X113038571Y-124137904D01*
X113086190Y-124233142D01*
X113086190Y-124614095D01*
X112657619Y-123661714D02*
X112610000Y-123614095D01*
X112562380Y-123518857D01*
X112562380Y-123280761D01*
X112610000Y-123185523D01*
X112657619Y-123137904D01*
X112752857Y-123090285D01*
X112848095Y-123090285D01*
X112990952Y-123137904D01*
X113562380Y-123709333D01*
X113562380Y-123090285D01*
%TD*%
M02*
